<svg width="893" height="422" viewBox="0 0 893 422" fill="none" xmlns="http://www.w3.org/2000/svg">
<path d="M120.279 374.32V224.9L156.469 207.292" stroke="#D6E5E3" stroke-linecap="round" stroke-linejoin="round"/>
<path d="M130.819 219.32V374.32" stroke="#D6E5E3" stroke-linecap="round" stroke-linejoin="round"/>
<path d="M122.14 230.443H128.73" stroke="#D6E5E3" stroke-linecap="round" stroke-linejoin="round"/>
<path d="M122.14 240.983H128.73" stroke="#D6E5E3" stroke-linecap="round" stroke-linejoin="round"/>
<path d="M122.14 251.523H128.73" stroke="#D6E5E3" stroke-linecap="round" stroke-linejoin="round"/>
<path d="M122.14 262.063H128.73" stroke="#D6E5E3" stroke-linecap="round" stroke-linejoin="round"/>
<path d="M122.14 272.603H128.73" stroke="#D6E5E3" stroke-linecap="round" stroke-linejoin="round"/>
<path d="M122.14 283.143H128.73" stroke="#D6E5E3" stroke-linecap="round" stroke-linejoin="round"/>
<path d="M122.14 293.683H128.73" stroke="#D6E5E3" stroke-linecap="round" stroke-linejoin="round"/>
<path d="M122.14 304.223H128.73" stroke="#D6E5E3" stroke-linecap="round" stroke-linejoin="round"/>
<path d="M620.309 368.74C620.149 368.741 619.989 368.757 619.832 368.79C619.657 368.178 619.35 367.613 618.932 367.134C618.515 366.654 617.997 366.272 617.416 366.015C616.834 365.758 616.204 365.631 615.568 365.645C614.932 365.658 614.307 365.811 613.737 366.093C613.777 365.84 613.798 365.585 613.799 365.33C613.802 364.445 613.581 363.574 613.157 362.797C612.733 362.02 612.119 361.363 611.374 360.886C610.628 360.409 609.774 360.129 608.891 360.07C608.008 360.011 607.124 360.176 606.322 360.55C606.131 358.65 605.218 356.896 603.77 355.651C602.322 354.406 600.451 353.766 598.544 353.862C596.637 353.959 594.84 354.785 593.525 356.169C592.21 357.554 591.478 359.391 591.479 361.3C591.479 361.486 591.479 361.672 591.479 361.852C590.805 361.488 590.051 361.298 589.285 361.3C588.428 361.302 587.589 361.54 586.858 361.987C586.128 362.434 585.534 363.074 585.143 363.836C584.851 362.24 583.999 360.8 582.741 359.775C581.482 358.751 579.9 358.208 578.277 358.246C576.655 358.283 575.099 358.898 573.89 359.979C572.68 361.06 571.895 362.538 571.677 364.146C570.955 363.649 570.127 363.328 569.259 363.211C568.391 363.093 567.508 363.181 566.68 363.469C565.852 363.756 565.104 364.234 564.496 364.864C563.887 365.494 563.436 366.259 563.177 367.096C562.919 367.933 562.862 368.819 563.01 369.682C563.158 370.546 563.507 371.362 564.029 372.066C564.551 372.769 565.231 373.34 566.015 373.731C566.799 374.123 567.663 374.325 568.539 374.32H619.999C620.103 374.326 620.206 374.326 620.309 374.32C621.049 374.32 621.759 374.026 622.282 373.503C622.805 372.98 623.099 372.27 623.099 371.53C623.099 370.79 622.805 370.08 622.282 369.557C621.759 369.034 621.049 368.74 620.309 368.74Z" stroke="#D6E5E3" stroke-linecap="round" stroke-linejoin="round"/>
<path d="M672.08 370.91C672.08 370.006 671.72 369.138 671.081 368.499C670.441 367.859 669.574 367.5 668.67 367.5C668.152 367.502 667.641 367.621 667.175 367.847C666.798 367.178 666.249 366.621 665.586 366.233C664.922 365.845 664.168 365.641 663.4 365.64C662.721 365.642 662.053 365.802 661.447 366.105C661.17 364.343 660.243 362.748 658.848 361.636C657.452 360.525 655.691 359.977 653.911 360.102C652.131 360.226 650.463 361.014 649.236 362.31C648.01 363.605 647.314 365.313 647.286 367.097C646.888 366.955 646.468 366.882 646.046 366.88H646.009C645.856 365.552 645.233 364.323 644.251 363.416C643.269 362.509 641.995 361.985 640.659 361.939C639.324 361.892 638.016 362.326 636.973 363.163C635.931 363.999 635.223 365.182 634.979 366.496C634.235 365.937 633.33 365.636 632.4 365.64C631.249 365.64 630.145 366.097 629.331 366.911C628.517 367.725 628.06 368.829 628.06 369.98C628.06 371.131 628.517 372.235 629.331 373.049C630.145 373.863 631.249 374.32 632.4 374.32H668.98C669.83 374.244 670.62 373.851 671.194 373.219C671.769 372.588 672.085 371.764 672.08 370.91Z" stroke="#D6E5E3" stroke-linecap="round" stroke-linejoin="round"/>
<path d="M703.7 369.36C703.139 369.362 702.596 369.556 702.162 369.912C701.914 369.378 701.518 368.926 701.022 368.608C700.525 368.291 699.949 368.122 699.36 368.12C699.151 368.121 698.944 368.144 698.74 368.188C698.691 367.036 698.305 365.924 697.63 364.989C696.954 364.054 696.019 363.339 694.94 362.932C693.861 362.524 692.686 362.443 691.561 362.698C690.437 362.953 689.412 363.532 688.614 364.365C687.816 365.197 687.28 366.246 687.073 367.38C686.866 368.515 686.997 369.685 687.45 370.746C687.902 371.806 688.657 372.711 689.619 373.346C690.581 373.982 691.709 374.32 692.862 374.32C692.968 374.32 693.067 374.32 693.172 374.32H703.712C704.37 374.32 705.001 374.059 705.466 373.594C705.931 373.129 706.192 372.498 706.192 371.84C706.192 371.182 705.931 370.551 705.466 370.086C705.001 369.621 704.37 369.36 703.712 369.36H703.7Z" stroke="#D6E5E3" stroke-linecap="round" stroke-linejoin="round"/>
<path d="M785.539 369.98C785.537 369.119 785.279 368.278 784.797 367.564C784.315 366.85 783.632 366.296 782.834 365.971C782.037 365.647 781.16 365.567 780.317 365.742C779.474 365.917 778.702 366.339 778.099 366.954C777.718 366.271 777.181 365.687 776.531 365.251C775.882 364.815 775.138 364.538 774.361 364.445C773.584 364.351 772.795 364.442 772.061 364.711C771.326 364.981 770.665 365.42 770.132 365.993C769.598 364.777 768.667 363.779 767.492 363.159C766.316 362.54 764.966 362.338 763.661 362.584C762.355 362.831 761.172 363.512 760.304 364.518C759.436 365.523 758.934 366.793 758.879 368.12H756.809C756.933 367.613 756.997 367.092 757.001 366.57C756.998 365.196 756.559 363.858 755.749 362.748C754.938 361.638 753.796 360.814 752.488 360.393C751.18 359.972 749.772 359.977 748.466 360.406C747.16 360.835 746.024 361.667 745.221 362.782C744.787 362.314 744.261 361.941 743.677 361.686C743.092 361.431 742.461 361.3 741.823 361.3C741.232 361.299 740.647 361.413 740.1 361.635C739.887 361.112 739.502 360.677 739.009 360.403C738.515 360.128 737.943 360.03 737.387 360.125C736.83 360.22 736.322 360.501 735.948 360.923C735.573 361.346 735.354 361.883 735.326 362.447C734.545 362.099 733.7 361.92 732.846 361.92H732.61C732.201 360.034 731.266 358.301 729.913 356.924C728.561 355.546 726.847 354.579 724.968 354.135C723.09 353.69 721.124 353.787 719.297 354.412C717.471 355.038 715.859 356.167 714.648 357.67C713.436 359.173 712.675 360.988 712.452 362.906C712.228 364.823 712.552 366.765 713.385 368.506C714.218 370.247 715.527 371.717 717.161 372.746C718.794 373.775 720.685 374.321 722.616 374.32C722.721 374.32 722.82 374.32 722.926 374.32H781.826V374.27C782.857 374.12 783.799 373.604 784.481 372.816C785.163 372.029 785.538 371.022 785.539 369.98Z" stroke="#D6E5E3" stroke-linecap="round" stroke-linejoin="round"/>
<path d="M122.14 314.763H128.73" stroke="#D6E5E3" stroke-linecap="round" stroke-linejoin="round"/>
<path d="M122.14 325.303H128.73" stroke="#D6E5E3" stroke-linecap="round" stroke-linejoin="round"/>
<path d="M122.14 335.843H128.73" stroke="#D6E5E3" stroke-linecap="round" stroke-linejoin="round"/>
<path d="M122.14 346.383H128.73" stroke="#D6E5E3" stroke-linecap="round" stroke-linejoin="round"/>
<path d="M122.14 356.923H128.73" stroke="#D6E5E3" stroke-linecap="round" stroke-linejoin="round"/>
<path d="M74.3994 374.32H818.399" stroke="#121212" stroke-linecap="round" stroke-linejoin="round"/>
<path d="M74.3994 409.66H818.399" stroke="#121212" stroke-linecap="round" stroke-linejoin="round"/>
<path d="M163.469 111.44H297.066C297.849 111.44 298.6 111.751 299.153 112.304C299.707 112.858 300.018 113.609 300.018 114.391V374.32H160.518V114.391C160.518 113.609 160.829 112.858 161.382 112.304C161.935 111.751 162.686 111.44 163.469 111.44Z" stroke="#121212" stroke-linecap="round" stroke-linejoin="round"/>
<path d="M294 111V100.507C294 99.5772 293.688 98.685 293.134 98.0273C292.579 97.3695 291.827 97 291.042 97H168.958C168.173 97 167.421 97.3695 166.866 98.0273C166.312 98.685 166 99.5772 166 100.507V111" stroke="#121212" stroke-linecap="round" stroke-linejoin="round"/>
<path d="M178.349 89.12H282.186C282.969 89.12 283.72 89.4309 284.273 89.9844C284.827 90.5378 285.137 91.2885 285.137 92.0712V96.56H175.397V92.0712C175.397 91.6836 175.474 91.2999 175.622 90.9418C175.77 90.5838 175.988 90.2584 176.262 89.9844C176.536 89.7103 176.861 89.493 177.219 89.3446C177.577 89.1963 177.961 89.12 178.349 89.12Z" stroke="#121212" stroke-linecap="round" stroke-linejoin="round"/>
<path d="M208.419 69.9H252.122C252.905 69.9 253.656 70.2109 254.209 70.7644C254.763 71.3178 255.074 72.0685 255.074 72.8512V89.12H205.474V72.8512C205.474 72.0696 205.784 71.3199 206.336 70.7666C206.888 70.2133 207.637 69.9016 208.419 69.9Z" stroke="#121212" stroke-linecap="round" stroke-linejoin="round"/>
<path d="M233.368 46.96H227.168V69.9H233.368V46.96Z" stroke="#121212" stroke-linecap="round" stroke-linejoin="round"/>
<path d="M203.98 120.12H199.64V365.64H203.98V120.12Z" stroke="#121212" stroke-linecap="round" stroke-linejoin="round"/>
<path d="M194.68 120.12H164.92V122.6H194.68V120.12Z" fill="#3D8579" stroke="#121212" stroke-linecap="round" stroke-linejoin="round"/>
<path d="M194.68 126.32H164.92V128.8H194.68V126.32Z" fill="#3D8579" stroke="#121212" stroke-linecap="round" stroke-linejoin="round"/>
<path d="M194.68 132.52H164.92V135H194.68V132.52Z" fill="#3D8579" stroke="#121212" stroke-linecap="round" stroke-linejoin="round"/>
<path d="M194.68 138.72H164.92V141.2H194.68V138.72Z" fill="#3D8579" stroke="#121212" stroke-linecap="round" stroke-linejoin="round"/>
<path d="M222.58 120.12H215.76V128.8H222.58V120.12Z" fill="#3D8579" stroke="#121212" stroke-linecap="round" stroke-linejoin="round"/>
<path d="M246.759 120.12H239.939V128.8H246.759V120.12Z" fill="#3D8579" stroke="#121212" stroke-linecap="round" stroke-linejoin="round"/>
<path d="M270.939 120.12H264.119V128.8H270.939V120.12Z" fill="#3D8579" stroke="#121212" stroke-linecap="round" stroke-linejoin="round"/>
<path d="M222.58 134.38H215.76V143.06H222.58V134.38Z" fill="#3D8579" stroke="#121212" stroke-linecap="round" stroke-linejoin="round"/>
<path d="M246.759 134.38H239.939V143.06H246.759V134.38Z" fill="#3D8579" stroke="#121212" stroke-linecap="round" stroke-linejoin="round"/>
<path d="M270.939 134.38H264.119V143.06H270.939V134.38Z" fill="#3D8579" stroke="#121212" stroke-linecap="round" stroke-linejoin="round"/>
<path d="M222.58 148.64H215.76V157.32H222.58V148.64Z" fill="#3D8579" stroke="#121212" stroke-linecap="round" stroke-linejoin="round"/>
<path d="M246.759 148.64H239.939V157.32H246.759V148.64Z" fill="#3D8579" stroke="#121212" stroke-linecap="round" stroke-linejoin="round"/>
<path d="M270.939 148.64H264.119V157.32H270.939V148.64Z" fill="#3D8579" stroke="#121212" stroke-linecap="round" stroke-linejoin="round"/>
<path d="M222.58 307.36H215.76V316.04H222.58V307.36Z" fill="#3D8579" stroke="#121212" stroke-linecap="round" stroke-linejoin="round"/>
<path d="M246.759 307.36H239.939V316.04H246.759V307.36Z" fill="#3D8579" stroke="#121212" stroke-linecap="round" stroke-linejoin="round"/>
<path d="M270.939 307.36H264.119V316.04H270.939V307.36Z" fill="#3D8579" stroke="#121212" stroke-linecap="round" stroke-linejoin="round"/>
<path d="M222.58 321.62H215.76V330.3H222.58V321.62Z" fill="#3D8579" stroke="#121212" stroke-linecap="round" stroke-linejoin="round"/>
<path d="M246.759 321.62H239.939V330.3H246.759V321.62Z" fill="#3D8579" stroke="#121212" stroke-linecap="round" stroke-linejoin="round"/>
<path d="M270.939 321.62H264.119V330.3H270.939V321.62Z" fill="#3D8579" stroke="#121212" stroke-linecap="round" stroke-linejoin="round"/>
<path d="M222.58 335.88H215.76V344.56H222.58V335.88Z" fill="#3D8579" stroke="#121212" stroke-linecap="round" stroke-linejoin="round"/>
<path d="M246.759 335.88H239.939V344.56H246.759V335.88Z" fill="#3D8579" stroke="#121212" stroke-linecap="round" stroke-linejoin="round"/>
<path d="M270.939 335.88H264.119V344.56H270.939V335.88Z" fill="#3D8579" stroke="#121212" stroke-linecap="round" stroke-linejoin="round"/>
<path d="M238.699 219.32H231.879V228H238.699V219.32Z" fill="#3D8579" stroke="#121212" stroke-linecap="round" stroke-linejoin="round"/>
<path d="M262.88 219.32H256.06V228H262.88V219.32Z" fill="#3D8579" stroke="#121212" stroke-linecap="round" stroke-linejoin="round"/>
<path d="M287.059 219.32H280.239V228H287.059V219.32Z" fill="#3D8579" stroke="#121212" stroke-linecap="round" stroke-linejoin="round"/>
<path d="M238.699 233.58H231.879V242.26H238.699V233.58Z" fill="#3D8579" stroke="#121212" stroke-linecap="round" stroke-linejoin="round"/>
<path d="M262.88 233.58H256.06V242.26H262.88V233.58Z" fill="#3D8579" stroke="#121212" stroke-linecap="round" stroke-linejoin="round"/>
<path d="M287.059 233.58H280.239V242.26H287.059V233.58Z" fill="#3D8579" stroke="#121212" stroke-linecap="round" stroke-linejoin="round"/>
<path d="M238.699 247.84H231.879V256.52H238.699V247.84Z" fill="#3D8579" stroke="#121212" stroke-linecap="round" stroke-linejoin="round"/>
<path d="M262.88 247.84H256.06V256.52H262.88V247.84Z" fill="#3D8579" stroke="#121212" stroke-linecap="round" stroke-linejoin="round"/>
<path d="M287.059 247.84H280.239V256.52H287.059V247.84Z" fill="#3D8579" stroke="#121212" stroke-linecap="round" stroke-linejoin="round"/>
<path d="M442.06 307.36H321.16V374.32H442.06V307.36Z" stroke="#121212" stroke-linecap="round" stroke-linejoin="round"/>
<path d="M442.06 304.26C442.06 302.287 441.276 300.394 439.881 298.999C438.486 297.604 436.593 296.82 434.62 296.82H328.6C326.627 296.82 324.735 297.604 323.339 298.999C321.944 300.394 321.16 302.287 321.16 304.26" stroke="#121212" stroke-linecap="round" stroke-linejoin="round"/>
<path d="M328.6 311.7V370.6" stroke="#3D8579" stroke-width="1.24" stroke-linecap="round" stroke-linejoin="round"/>
<path d="M334.799 311.7V370.6" stroke="#3D8579" stroke-width="1.24" stroke-linecap="round" stroke-linejoin="round"/>
<path d="M434.62 311.7V370.6" stroke="#121212" stroke-linecap="round" stroke-linejoin="round"/>
<path d="M328.6 314.8H334.8" stroke="#3D8579" stroke-width="1.24" stroke-linecap="round" stroke-linejoin="round"/>
<path d="M328.6 325.34H334.8" stroke="#3D8579" stroke-width="1.24" stroke-linecap="round" stroke-linejoin="round"/>
<path d="M328.6 335.88H334.8" stroke="#3D8579" stroke-width="1.24" stroke-linecap="round" stroke-linejoin="round"/>
<path d="M328.6 346.42H334.8" stroke="#3D8579" stroke-width="1.24" stroke-linecap="round" stroke-linejoin="round"/>
<path d="M579.079 353.24C584.558 353.24 588.999 348.799 588.999 343.32C588.999 337.841 584.558 333.4 579.079 333.4C573.601 333.4 569.159 337.841 569.159 343.32C569.159 348.799 573.601 353.24 579.079 353.24Z" stroke="#D6E5E3" stroke-linecap="round" stroke-linejoin="round"/>
<path d="M328.6 356.96H334.8" stroke="#3D8579" stroke-width="1.24" stroke-linecap="round" stroke-linejoin="round"/>
<path d="M607.296 336.5L600.159 350.76C600.033 351.023 599.975 351.313 599.991 351.604C600.007 351.895 600.096 352.177 600.25 352.424C600.404 352.672 600.618 352.876 600.872 353.019C601.126 353.161 601.412 353.238 601.703 353.24H615.963C616.255 353.238 616.541 353.161 616.795 353.019C617.049 352.876 617.263 352.672 617.417 352.424C617.571 352.177 617.66 351.895 617.676 351.604C617.691 351.313 617.633 351.023 617.507 350.76L610.377 336.5C610.232 336.216 610.012 335.978 609.74 335.811C609.468 335.645 609.155 335.557 608.836 335.557C608.518 335.557 608.205 335.645 607.933 335.811C607.661 335.978 607.441 336.216 607.296 336.5Z" stroke="#D6E5E3" stroke-linecap="round" stroke-linejoin="round"/>
<path d="M328.6 367.5H334.8" stroke="#3D8579" stroke-width="1.24" stroke-linecap="round" stroke-linejoin="round"/>
<path d="M637.98 353.24C643.458 353.24 647.9 348.799 647.9 343.32C647.9 337.841 643.458 333.4 637.98 333.4C632.501 333.4 628.06 337.841 628.06 343.32C628.06 348.799 632.501 353.24 637.98 353.24Z" stroke="#D6E5E3" stroke-linecap="round" stroke-linejoin="round"/>
<path d="M564.82 350.76C569.956 350.76 574.12 342.849 574.12 333.09C574.12 323.331 569.956 315.42 564.82 315.42C559.683 315.42 555.52 323.331 555.52 333.09C555.52 342.849 559.683 350.76 564.82 350.76Z" fill="#3D8579" stroke="#121212" stroke-linecap="round" stroke-linejoin="round"/>
<path d="M666.196 336.5L659.06 350.76C658.933 351.023 658.875 351.313 658.891 351.604C658.907 351.895 658.996 352.177 659.15 352.424C659.304 352.672 659.518 352.876 659.772 353.019C660.026 353.161 660.312 353.238 660.604 353.24H674.864C675.155 353.238 675.441 353.161 675.695 353.019C675.949 352.876 676.163 352.672 676.317 352.424C676.471 352.177 676.56 351.895 676.576 351.604C676.592 351.313 676.534 351.023 676.407 350.76L669.277 336.5C669.132 336.216 668.912 335.978 668.64 335.811C668.368 335.645 668.056 335.557 667.737 335.557C667.418 335.557 667.105 335.645 666.833 335.811C666.562 335.978 666.341 336.216 666.196 336.5Z" stroke="#D6E5E3" stroke-linecap="round" stroke-linejoin="round"/>
<path d="M434.62 374.32H445.16V352.62H447.64V349.52H445.16V329.68H447.64V326.58H445.16V306.74H447.64V303.64H445.16V283.8H447.64V280.7H445.16V260.86H447.64V257.76H445.16V237.92H447.64V234.82H445.16V223.66H434.62V234.82H431.52V237.92H434.62V257.76H431.52V260.86H434.62V280.7H431.52V283.8H434.62V293.72" stroke="#121212" stroke-linecap="round" stroke-linejoin="round"/>
<path d="M696.88 353.24C702.359 353.24 706.8 348.799 706.8 343.32C706.8 337.841 702.359 333.4 696.88 333.4C691.401 333.4 686.96 337.841 686.96 343.32C686.96 348.799 691.401 353.24 696.88 353.24Z" stroke="#D6E5E3" stroke-linecap="round" stroke-linejoin="round"/>
<path d="M593.959 350.76C599.095 350.76 603.259 342.849 603.259 333.09C603.259 323.331 599.095 315.42 593.959 315.42C588.823 315.42 584.659 323.331 584.659 333.09C584.659 342.849 588.823 350.76 593.959 350.76Z" fill="#3D8579" stroke="#121212" stroke-linecap="round" stroke-linejoin="round"/>
<path d="M725.095 332.78L717.959 347.04C717.833 347.303 717.775 347.593 717.791 347.884C717.806 348.175 717.895 348.457 718.049 348.704C718.203 348.952 718.417 349.156 718.671 349.299C718.926 349.441 719.212 349.518 719.503 349.52H733.763C734.054 349.518 734.34 349.441 734.595 349.299C734.849 349.156 735.063 348.952 735.217 348.704C735.371 348.457 735.46 348.175 735.475 347.884C735.491 347.593 735.433 347.303 735.307 347.04L728.177 332.78C728.032 332.496 727.811 332.258 727.539 332.091C727.268 331.925 726.955 331.837 726.636 331.837C726.317 331.837 726.005 331.925 725.733 332.091C725.461 332.258 725.24 332.496 725.095 332.78Z" stroke="#D6E5E3" stroke-linecap="round" stroke-linejoin="round"/>
<path d="M474.919 257.76H461.279V260.86H464.379V280.7H461.279V283.8H464.379V303.64H461.279V306.74H464.379V326.58H461.279V329.68H464.379V349.52H461.279V352.62H464.379V374.32H474.919V352.62H477.399V349.52H474.919V329.68H477.399V326.58H474.919V306.74H477.399V303.64H474.919V283.8H477.399V280.7H474.919V260.86H477.399V257.76H474.919Z" stroke="#121212" stroke-linecap="round" stroke-linejoin="round"/>
<path d="M755.779 353.24C761.258 353.24 765.699 348.799 765.699 343.32C765.699 337.841 761.258 333.4 755.779 333.4C750.301 333.4 745.859 337.841 745.859 343.32C745.859 348.799 750.301 353.24 755.779 353.24Z" stroke="#D6E5E3" stroke-linecap="round" stroke-linejoin="round"/>
<path d="M415.399 296.5V283L370.759 261V296.5" fill="#3D8579"/>
<path d="M415.399 296.5V283L370.759 261V296.5" stroke="#121212" stroke-linecap="round" stroke-linejoin="round"/>
<path d="M783.996 336.5L776.86 350.76C776.733 351.023 776.675 351.313 776.691 351.604C776.707 351.895 776.796 352.177 776.95 352.424C777.104 352.672 777.318 352.876 777.572 353.019C777.826 353.161 778.112 353.238 778.403 353.24H792.663C792.955 353.238 793.241 353.161 793.495 353.019C793.749 352.876 793.963 352.672 794.117 352.424C794.271 352.177 794.36 351.895 794.376 351.604C794.392 351.313 794.334 351.023 794.207 350.76L787.077 336.5C786.932 336.216 786.712 335.978 786.44 335.811C786.168 335.645 785.855 335.557 785.537 335.557C785.218 335.557 784.905 335.645 784.633 335.811C784.361 335.978 784.141 336.216 783.996 336.5Z" stroke="#D6E5E3" stroke-linecap="round" stroke-linejoin="round"/>
<path d="M623.099 350.76C628.235 350.76 632.399 342.849 632.399 333.09C632.399 323.331 628.235 315.42 623.099 315.42C617.963 315.42 613.799 323.331 613.799 333.09C613.799 342.849 617.963 350.76 623.099 350.76Z" fill="#3D8579" stroke="#121212" stroke-linecap="round" stroke-linejoin="round"/>
<path d="M376.339 297V285L331.699 261.5V297" fill="#3D8579"/>
<path d="M376.339 297V285L331.699 261.5V297" stroke="#121212" stroke-linecap="round" stroke-linejoin="round"/>
<path d="M652.239 350.76C657.376 350.76 661.539 342.849 661.539 333.09C661.539 323.331 657.376 315.42 652.239 315.42C647.103 315.42 642.939 323.331 642.939 333.09C642.939 342.849 647.103 350.76 652.239 350.76Z" fill="#3D8579" stroke="#121212" stroke-linecap="round" stroke-linejoin="round"/>
<path d="M412.299 293.72H350.919V296.82H412.299V293.72Z" fill="#F5FAF8" stroke="#121212" stroke-linecap="round" stroke-linejoin="round"/>
<path d="M681.379 350.76C686.515 350.76 690.679 342.849 690.679 333.09C690.679 323.331 686.515 315.42 681.379 315.42C676.243 315.42 672.079 323.331 672.079 333.09C672.079 342.849 676.243 350.76 681.379 350.76Z" fill="#3D8579" stroke="#121212" stroke-linecap="round" stroke-linejoin="round"/>
<path d="M461.043 333.406L456.84 374.32H496.03H535.214L518.908 215.6H496.154H495.9H473.146L469.203 254.009" stroke="#121212" stroke-linecap="round" stroke-linejoin="round"/>
<path d="M710.519 350.76C715.655 350.76 719.819 342.849 719.819 333.09C719.819 323.331 715.655 315.42 710.519 315.42C705.383 315.42 701.219 323.331 701.219 333.09C701.219 342.849 705.383 350.76 710.519 350.76Z" fill="#3D8579" stroke="#121212" stroke-linecap="round" stroke-linejoin="round"/>
<path d="M462.662 317.85L462.179 322.6" stroke="#121212" stroke-linecap="round" stroke-linejoin="round"/>
<path d="M739.659 350.76C744.796 350.76 748.959 342.849 748.959 333.09C748.959 323.331 744.796 315.42 739.659 315.42C734.523 315.42 730.359 323.331 730.359 333.09C730.359 342.849 734.523 350.76 739.659 350.76Z" fill="#3D8579" stroke="#121212" stroke-linecap="round" stroke-linejoin="round"/>
<path d="M473.059 212.5H469.37V203.82H522.69V212.5H518.939" stroke="#121212" stroke-linecap="round" stroke-linejoin="round"/>
<path d="M768.8 350.76C773.936 350.76 778.1 342.849 778.1 333.09C778.1 323.331 773.936 315.42 768.8 315.42C763.664 315.42 759.5 323.331 759.5 333.09C759.5 342.849 763.664 350.76 768.8 350.76Z" fill="#3D8579" stroke="#121212" stroke-linecap="round" stroke-linejoin="round"/>
<path d="M502.199 221.18H513.359" stroke="#3D8579" stroke-width="1.24" stroke-linecap="round" stroke-linejoin="round"/>
<path d="M797.94 350.76C803.076 350.76 807.24 342.849 807.24 333.09C807.24 323.331 803.076 315.42 797.94 315.42C792.803 315.42 788.64 323.331 788.64 333.09C788.64 342.849 792.803 350.76 797.94 350.76Z" fill="#3D8579" stroke="#121212" stroke-linecap="round" stroke-linejoin="round"/>
<path d="M502.199 228.62H513.359" stroke="#3D8579" stroke-width="1.24" stroke-linecap="round" stroke-linejoin="round"/>
<path d="M502.199 236.06H513.359" stroke="#3D8579" stroke-width="1.24" stroke-linecap="round" stroke-linejoin="round"/>
<path d="M502.199 243.5H513.359" stroke="#3D8579" stroke-width="1.24" stroke-linecap="round" stroke-linejoin="round"/>
<path d="M502.199 250.94H513.359" stroke="#3D8579" stroke-width="1.24" stroke-linecap="round" stroke-linejoin="round"/>
<path d="M564.956 361.92V336.5" stroke="#121212" stroke-linecap="round" stroke-linejoin="round"/>
<path d="M594.096 353.24V336.5" stroke="#121212" stroke-linecap="round" stroke-linejoin="round"/>
<path d="M623.235 367.5V336.5" stroke="#121212" stroke-linecap="round" stroke-linejoin="round"/>
<path d="M652.376 358.2V336.5" stroke="#121212" stroke-linecap="round" stroke-linejoin="round"/>
<path d="M681.516 374.32V336.5" stroke="#121212" stroke-linecap="round" stroke-linejoin="round"/>
<path d="M710.656 374.32V336.5" stroke="#121212" stroke-linecap="round" stroke-linejoin="round"/>
<path d="M739.796 358.82V336.5" stroke="#121212" stroke-linecap="round" stroke-linejoin="round"/>
<path d="M768.936 361.92V336.5" stroke="#121212" stroke-linecap="round" stroke-linejoin="round"/>
<path d="M798.076 360.68V336.5" stroke="#121212" stroke-linecap="round" stroke-linejoin="round"/>
<path d="M578.919 356.34V348.28" stroke="#D6E5E3" stroke-linecap="round" stroke-linejoin="round"/>
<path d="M608.678 358.2V348.28" stroke="#D6E5E3" stroke-linecap="round" stroke-linejoin="round"/>
<path d="M637.818 360.68V348.28" stroke="#D6E5E3" stroke-linecap="round" stroke-linejoin="round"/>
<path d="M667.578 364.4V348.28" stroke="#D6E5E3" stroke-linecap="round" stroke-linejoin="round"/>
<path d="M696.718 361.3V348.28" stroke="#D6E5E3" stroke-linecap="round" stroke-linejoin="round"/>
<path d="M726.479 352.62V344.56" stroke="#D6E5E3" stroke-linecap="round" stroke-linejoin="round"/>
<path d="M755.618 359.44V348.28" stroke="#D6E5E3" stroke-linecap="round" stroke-linejoin="round"/>
<path d="M785.379 365.64V348.28" stroke="#D6E5E3" stroke-linecap="round" stroke-linejoin="round"/>
<path d="M814.679 370.91C814.679 370.006 814.32 369.138 813.681 368.499C813.041 367.859 812.174 367.5 811.269 367.5C810.809 367.501 810.354 367.593 809.93 367.773C809.572 366.969 808.992 366.284 808.258 365.798C807.525 365.312 806.668 365.044 805.789 365.026C805.106 363.844 804.053 362.921 802.792 362.398C801.531 361.876 800.133 361.784 798.815 362.138C797.496 362.491 796.332 363.269 795.501 364.352C794.67 365.435 794.22 366.761 794.219 368.126C794.216 368.147 794.216 368.168 794.219 368.188C793.466 368.341 792.796 368.769 792.34 369.388C791.885 370.007 791.675 370.773 791.752 371.538C791.829 372.303 792.188 373.012 792.759 373.527C793.329 374.042 794.071 374.327 794.839 374.326H812.199C812.923 374.095 813.553 373.639 813.999 373.025C814.446 372.41 814.684 371.669 814.679 370.91Z" stroke="#D6E5E3" stroke-linecap="round" stroke-linejoin="round"/>
<path d="M807.859 314.589C808.363 313.965 808.726 313.24 808.924 312.463C809.122 311.685 809.15 310.875 809.007 310.086C808.863 309.297 808.551 308.548 808.092 307.89C807.633 307.233 807.038 306.682 806.346 306.275C807.014 305.289 807.328 304.105 807.236 302.917C807.144 301.729 806.651 300.608 805.839 299.736C805.027 298.864 803.944 298.293 802.765 298.117C801.587 297.941 800.384 298.17 799.353 298.767C798.986 297.688 798.402 296.695 797.637 295.85C796.873 295.005 795.943 294.325 794.906 293.852C793.869 293.379 792.746 293.124 791.606 293.101C790.467 293.078 789.335 293.289 788.279 293.72C787.923 292.529 787.315 291.428 786.496 290.492C785.677 289.556 784.667 288.807 783.533 288.295C782.4 287.784 781.17 287.522 779.926 287.527C778.683 287.532 777.455 287.805 776.326 288.326C775.41 284.884 773.381 281.842 770.555 279.676C767.728 277.509 764.264 276.339 760.702 276.349C757.141 276.359 753.683 277.548 750.869 279.731C748.055 281.913 746.042 284.966 745.146 288.413C743.705 287.78 742.141 287.477 740.568 287.528C738.996 287.578 737.454 287.98 736.057 288.704C735.444 287.001 734.295 285.543 732.783 284.548C731.27 283.554 729.476 283.078 727.669 283.191C725.863 283.304 724.142 284.001 722.765 285.176C721.389 286.352 720.431 287.942 720.036 289.709C717.982 288.123 715.414 287.354 712.827 287.55C710.239 287.746 707.816 288.893 706.024 290.769C706.126 290.313 706.178 289.847 706.179 289.38C706.177 288.04 705.741 286.738 704.937 285.666C704.133 284.595 703.003 283.813 701.717 283.438C700.431 283.062 699.059 283.113 697.804 283.583C696.55 284.053 695.481 284.917 694.759 286.044C693.654 283.907 691.991 282.109 689.946 280.841C687.902 279.573 685.552 278.883 683.146 278.844C680.741 278.804 678.369 279.417 676.284 280.617C674.199 281.818 672.478 283.56 671.304 285.66H670.647C669.735 284.616 668.465 283.952 667.088 283.8C667.506 282.919 667.718 281.954 667.708 280.979C667.711 279.507 667.215 278.077 666.301 276.923C665.387 275.77 664.108 274.961 662.674 274.628C661.24 274.295 659.735 274.459 658.406 275.092C657.077 275.726 656.002 276.791 655.358 278.115C654.182 277.654 652.912 277.489 651.658 277.632C650.404 277.775 649.204 278.223 648.163 278.937C647.121 279.65 646.271 280.608 645.684 281.726C645.098 282.843 644.794 284.088 644.799 285.35C644.799 285.53 644.799 285.71 644.799 285.883C643.98 285.738 643.151 285.663 642.319 285.66C640.129 285.658 637.968 286.16 636.004 287.128C634.04 288.096 632.324 289.503 630.992 291.24C629.498 288.133 626.928 285.672 623.759 284.313C620.59 282.954 617.037 282.79 613.756 283.85C613.551 281.207 612.327 278.747 610.343 276.989C608.359 275.23 605.77 274.312 603.122 274.426C600.474 274.54 597.973 275.678 596.148 277.601C594.323 279.523 593.316 282.079 593.339 284.73C593.342 285.354 593.4 285.976 593.513 286.59C592.431 285.763 591.143 285.248 589.789 285.102C588.435 284.957 587.067 285.185 585.834 285.763C584.601 286.342 583.551 287.247 582.797 288.381C582.043 289.515 581.615 290.834 581.559 292.195C577.069 291.311 572.411 292.204 568.566 294.686C564.721 297.168 561.988 301.044 560.944 305.5C559.804 305.532 558.7 305.913 557.783 306.591C556.866 307.269 556.178 308.213 555.814 309.293C555.449 310.374 555.424 311.541 555.743 312.637C556.061 313.732 556.708 314.703 557.596 315.42" stroke="#D6E5E3" stroke-linecap="round" stroke-linejoin="round"/>
<path d="M781.51 186.46C783.401 186.46 785.214 185.709 786.551 184.372C787.888 183.035 788.64 181.221 788.64 179.33C788.64 177.439 787.888 175.625 786.551 174.288C785.214 172.951 783.401 172.2 781.51 172.2C781.117 172.203 780.725 172.238 780.338 172.305C780.497 171.557 780.578 170.795 780.58 170.03C780.585 168.219 780.136 166.435 779.274 164.842C778.412 163.249 777.165 161.898 775.646 160.911C774.127 159.924 772.385 159.334 770.58 159.194C768.774 159.054 766.962 159.369 765.309 160.11C764.841 158.213 764.004 156.426 762.845 154.852C761.686 153.278 760.229 151.948 758.556 150.937C756.883 149.926 755.028 149.255 753.096 148.962C751.164 148.668 749.192 148.758 747.295 149.226C745.397 149.694 743.611 150.531 742.037 151.69C740.463 152.849 739.133 154.306 738.122 155.979C737.111 157.652 736.44 159.507 736.146 161.439C735.853 163.371 735.943 165.343 736.411 167.24H736.25C734.988 167.22 733.734 167.448 732.56 167.912C731.386 168.376 730.316 169.067 729.409 169.945C728.502 170.823 727.777 171.871 727.275 173.029C726.774 174.187 726.505 175.433 726.485 176.695C726.464 177.957 726.693 179.211 727.157 180.384C727.621 181.558 728.312 182.629 729.19 183.536C730.068 184.442 731.116 185.167 732.274 185.669C733.432 186.171 734.678 186.44 735.94 186.46H781.51Z" stroke="#D6E5E3" stroke-linecap="round" stroke-linejoin="round"/>
<path d="M393.39 115.78C391.499 115.78 389.685 115.029 388.348 113.692C387.011 112.355 386.26 110.541 386.26 108.65C386.26 106.759 387.011 104.945 388.348 103.608C389.685 102.271 391.499 101.52 393.39 101.52C393.783 101.523 394.174 101.558 394.562 101.625C394.402 100.877 394.321 100.115 394.32 99.35C394.315 97.5388 394.764 95.7553 395.625 94.1623C396.487 92.5694 397.735 91.2178 399.253 90.2312C400.772 89.2445 402.514 88.6542 404.32 88.5143C406.126 88.3743 407.938 88.6892 409.59 89.43C410.059 87.5325 410.896 85.7458 412.055 84.1719C413.213 82.5981 414.67 81.2678 416.343 80.2571C419.722 78.2159 423.772 77.6004 427.604 78.5459C429.502 79.0141 431.289 79.8514 432.863 81.01C434.436 82.1687 435.767 83.626 436.777 85.2988C437.788 86.9715 438.459 88.827 438.753 90.7592C439.047 92.6914 438.957 94.6625 438.489 96.56H438.65C441.198 96.5189 443.659 97.4919 445.49 99.2651C447.322 101.038 448.374 103.466 448.415 106.015C448.456 108.564 447.483 111.024 445.71 112.856C443.936 114.687 441.508 115.739 438.96 115.78H393.39Z" stroke="#D6E5E3" stroke-linecap="round" stroke-linejoin="round"/>
<path d="M615.659 210.33C615.659 207.893 615.048 205.495 613.881 203.355C612.714 201.216 611.03 199.403 608.981 198.083C606.933 196.763 604.586 195.977 602.155 195.799C599.725 195.621 597.288 196.055 595.069 197.062C594.132 194.869 592.387 193.119 590.196 192.176C588.006 191.232 585.536 191.166 583.298 191.992C581.061 192.817 579.225 194.471 578.172 196.611C577.12 198.752 576.929 201.215 577.641 203.491C576.895 203.303 576.129 203.205 575.359 203.2C573.768 203.202 572.204 203.613 570.817 204.392C569.429 205.171 568.265 206.294 567.436 207.652C566.602 206.16 565.347 204.948 563.827 204.166C562.308 203.385 560.591 203.069 558.893 203.259C557.195 203.449 555.591 204.136 554.281 205.234C552.972 206.332 552.016 207.792 551.533 209.431C551.316 209.431 551.092 209.4 550.869 209.4C548.814 209.4 546.842 210.217 545.389 211.67C543.936 213.123 543.119 215.095 543.119 217.15C543.119 219.205 543.936 221.177 545.389 222.63C546.842 224.083 548.814 224.9 550.869 224.9C550.975 224.9 551.074 224.9 551.179 224.9H601.399C605.209 224.819 608.836 223.248 611.502 220.524C614.168 217.801 615.66 214.141 615.659 210.33Z" stroke="#D6E5E3" stroke-linecap="round" stroke-linejoin="round"/>
<path d="M715.479 87.88C713.668 87.88 711.873 88.225 710.191 88.8968C709.856 87.8691 709.282 86.9355 708.516 86.1732C707.75 85.4109 706.814 84.8415 705.784 84.5121C704.755 84.1827 703.662 84.1027 702.596 84.2786C701.529 84.4545 700.52 84.8814 699.651 85.524C698.258 83.0457 696.057 81.1211 693.414 80.0725C690.772 79.0239 687.85 78.9151 685.137 79.7642C682.762 75.9202 679.198 72.9555 674.987 71.3196C670.775 69.6837 666.145 69.4658 661.798 70.699C657.451 71.9322 653.625 74.5493 650.9 78.1533C648.175 81.7573 646.699 86.1517 646.697 90.67C646.7 91.624 646.766 92.5768 646.895 93.522C645.278 92.9465 643.555 92.7312 641.846 92.8914C640.137 93.0515 638.484 93.5832 637.002 94.4491C635.52 95.3151 634.245 96.4944 633.267 97.9046C632.288 99.3148 631.63 100.922 631.337 102.613C631.045 104.304 631.126 106.039 631.574 107.696C632.022 109.353 632.827 110.892 633.932 112.205C635.037 113.518 636.416 114.574 637.972 115.299C639.528 116.023 641.223 116.399 642.939 116.4H715.479C719.261 116.4 722.889 114.898 725.563 112.223C728.237 109.549 729.739 105.922 729.739 102.14C729.739 98.358 728.237 94.7309 725.563 92.0567C722.889 89.3824 719.261 87.88 715.479 87.88Z" stroke="#D6E5E3" stroke-linecap="round" stroke-linejoin="round"/>
<path d="M628.5 104.428C622.342 101.409 617.104 96.7985 613.329 91.0736C609.554 85.3486 607.379 78.7179 607.029 71.8692C606.68 65.0204 608.169 58.2029 611.343 52.1237C614.516 46.0444 619.258 40.9248 625.077 37.2957C630.896 33.6666 637.579 31.6601 644.435 31.4844C651.29 31.3087 658.068 32.9701 664.065 36.2964C670.062 39.6227 675.06 44.4927 678.54 50.4014C682.021 56.3101 683.857 63.0423 683.86 69.9C683.86 71.14 683.8 72.38 683.68 73.62" stroke="#D6E5E3" stroke-linecap="round" stroke-linejoin="round"/>
<path d="M620 143.06C620 143.06 616.28 136.86 610.7 136.86C605.12 136.86 603.26 143.06 603.26 143.06C603.26 143.06 601.4 136.86 595.82 136.86C590.24 136.86 586.52 143.06 586.52 143.06" stroke="#D6E5E3" stroke-linecap="round" stroke-linejoin="round"/>
<path d="M597.06 147.4C597.06 147.4 598.92 143.06 603.26 143.06" stroke="#D6E5E3" stroke-linecap="round" stroke-linejoin="round"/>
<path d="M609.46 147.4C609.46 147.4 607.6 143.06 603.26 143.06" stroke="#D6E5E3" stroke-linecap="round" stroke-linejoin="round"/>
<path d="M649.139 157.94C649.139 157.94 645.419 151.74 639.839 151.74C634.259 151.74 632.399 157.94 632.399 157.94C632.399 157.94 630.539 151.74 624.959 151.74C619.379 151.74 615.659 157.94 615.659 157.94" stroke="#D6E5E3" stroke-linecap="round" stroke-linejoin="round"/>
<path d="M626.2 162.28C626.2 162.28 628.06 157.94 632.4 157.94" stroke="#D6E5E3" stroke-linecap="round" stroke-linejoin="round"/>
<path d="M638.599 162.28C638.599 162.28 636.739 157.94 632.399 157.94" stroke="#D6E5E3" stroke-linecap="round" stroke-linejoin="round"/>
<path d="M115.939 180.26C115.939 180.26 119.659 174.06 125.239 174.06C130.819 174.06 132.679 180.26 132.679 180.26C132.679 180.26 134.539 174.06 140.119 174.06C145.699 174.06 149.419 180.26 149.419 180.26" stroke="#D6E5E3" stroke-linecap="round" stroke-linejoin="round"/>
<path d="M138.88 184.6C138.88 184.6 137.02 180.26 132.68 180.26" stroke="#D6E5E3" stroke-linecap="round" stroke-linejoin="round"/>
<path d="M126.479 184.6C126.479 184.6 128.339 180.26 132.679 180.26" stroke="#D6E5E3" stroke-linecap="round" stroke-linejoin="round"/>
<path d="M86.7998 195.14C86.7998 195.14 90.5198 188.94 96.0998 188.94C101.68 188.94 103.54 195.14 103.54 195.14C103.54 195.14 105.4 188.94 110.98 188.94C116.56 188.94 120.28 195.14 120.28 195.14" stroke="#D6E5E3" stroke-linecap="round" stroke-linejoin="round"/>
<path d="M109.74 199.48C109.74 199.48 107.88 195.14 103.54 195.14" stroke="#D6E5E3" stroke-linecap="round" stroke-linejoin="round"/>
<path d="M97.3398 199.48C97.3398 199.48 99.1998 195.14 103.54 195.14" stroke="#D6E5E3" stroke-linecap="round" stroke-linejoin="round"/>
<path d="M122.14 367.463H128.73" stroke="#D6E5E3" stroke-linecap="round" stroke-linejoin="round"/>
<path d="M270.939 86.4354V68.04H360.219V274.5" stroke="#D6E5E3" stroke-linecap="round" stroke-linejoin="round"/>
<path d="M360.219 64.94C360.219 53.2652 355.582 42.0685 347.326 33.8132C339.071 25.5578 327.874 20.92 316.199 20.92H270.939V64.94" stroke="#D6E5E3" stroke-linecap="round" stroke-linejoin="round"/>
<path d="M354.64 74.24H276.52V76.1H354.64V74.24Z" stroke="#D6E5E3" stroke-linecap="round" stroke-linejoin="round"/>
<path d="M354.64 82.3H276.52V84.16H354.64V82.3Z" stroke="#D6E5E3" stroke-linecap="round" stroke-linejoin="round"/>
<path d="M280.24 24.64H276.52V64.94H280.24V24.64Z" stroke="#D6E5E3" stroke-linecap="round" stroke-linejoin="round"/>
<path d="M354.639 104H347.819V112.68H354.639V104Z" stroke="#D6E5E3" stroke-linecap="round" stroke-linejoin="round"/>
<path d="M335.42 104H328.6V112.68H335.42V104Z" stroke="#D6E5E3" stroke-linecap="round" stroke-linejoin="round"/>
<path d="M354.639 118.88H347.819V127.56H354.639V118.88Z" stroke="#D6E5E3" stroke-linecap="round" stroke-linejoin="round"/>
<path d="M335.42 118.88H328.6V127.56H335.42V118.88Z" stroke="#D6E5E3" stroke-linecap="round" stroke-linejoin="round"/>
<path d="M354.639 133.76H347.819V142.44H354.639V133.76Z" stroke="#D6E5E3" stroke-linecap="round" stroke-linejoin="round"/>
<path d="M335.42 133.76H328.6V142.44H335.42V133.76Z" stroke="#D6E5E3" stroke-linecap="round" stroke-linejoin="round"/>
<path d="M331.699 196.38H324.879V205.06H331.699V196.38Z" stroke="#D6E5E3" stroke-linecap="round" stroke-linejoin="round"/>
<path d="M312.479 196.38H305.659V205.06H312.479V196.38Z" stroke="#D6E5E3" stroke-linecap="round" stroke-linejoin="round"/>
<path d="M331.699 211.26H324.879V219.94H331.699V211.26Z" stroke="#D6E5E3" stroke-linecap="round" stroke-linejoin="round"/>
<path d="M312.479 211.26H305.659V219.94H312.479V211.26Z" stroke="#D6E5E3" stroke-linecap="round" stroke-linejoin="round"/>
<path d="M331.699 226.14H324.879V234.82H331.699V226.14Z" stroke="#D6E5E3" stroke-linecap="round" stroke-linejoin="round"/>
<path d="M312.479 226.14H305.659V234.82H312.479V226.14Z" stroke="#D6E5E3" stroke-linecap="round" stroke-linejoin="round"/>
<path d="M362.699 162.28H417.259V174.06H401.759L405.479 175.3L417.259 179.02V193.9H401.759L405.479 195.14L417.259 198.86V213.74H401.759L405.479 214.98L417.259 218.7V233.58H401.759L405.479 234.82L417.259 238.54V253.42H401.759L405.479 254.66L417.259 258.38V293.72" stroke="#D6E5E3" stroke-linecap="round" stroke-linejoin="round"/>
<path d="M362.699 149.26H417.259V160.42" stroke="#D6E5E3" stroke-linecap="round" stroke-linejoin="round"/>
<path d="M362.699 141.82H415.399V147.4" stroke="#D6E5E3" stroke-linecap="round" stroke-linejoin="round"/>
<path d="M411.059 139.34L386.879 128.8L362.699 139.34" stroke="#D6E5E3" stroke-linecap="round" stroke-linejoin="round"/>
<path d="M370.759 166.62V256.5" stroke="#D6E5E3" stroke-linecap="round" stroke-linejoin="round"/>
<path d="M375.1 166.62V261.5" stroke="#D6E5E3" stroke-linecap="round" stroke-linejoin="round"/>
<path d="M391.839 166H388.119V174.68H391.839V166Z" stroke="#D6E5E3" stroke-linecap="round" stroke-linejoin="round"/>
<path d="M391.839 195.76H388.119V204.44H391.839V195.76Z" stroke="#D6E5E3" stroke-linecap="round" stroke-linejoin="round"/>
<path d="M391.839 225.52H388.119V234.2H391.839V225.52Z" stroke="#D6E5E3" stroke-linecap="round" stroke-linejoin="round"/>
<path d="M99.2676 374.32V359.44" stroke="#121212" stroke-linecap="round" stroke-linejoin="round"/>
<path d="M99.2002 355.1C99.6935 355.1 100.167 355.296 100.515 355.645C100.864 355.994 101.06 356.467 101.06 356.96V358.578C101.06 358.813 100.967 359.039 100.801 359.205C100.634 359.371 100.409 359.465 100.174 359.465H98.2206C97.9854 359.465 97.7599 359.371 97.5937 359.205C97.4274 359.039 97.334 358.813 97.334 358.578V356.96C97.334 356.715 97.3823 356.473 97.4762 356.247C97.57 356.021 97.7076 355.815 97.8809 355.643C98.0543 355.47 98.2601 355.333 98.4865 355.24C98.7129 355.147 98.9554 355.099 99.2002 355.1Z" stroke="#121212" stroke-linecap="round" stroke-linejoin="round"/>
<path d="M99.1992 353.24V350.14" stroke="#121212" stroke-linecap="round" stroke-linejoin="round"/>
<path d="M96.2232 354.914L93.8486 352.924" stroke="#121212" stroke-linecap="round" stroke-linejoin="round"/>
<path d="M95.5976 358.274L92.541 358.814" stroke="#121212" stroke-linecap="round" stroke-linejoin="round"/>
<path d="M103.403 358.355L106.317 359.415" stroke="#121212" stroke-linecap="round" stroke-linejoin="round"/>
<path d="M102.845 354.988L105.529 353.438" stroke="#121212" stroke-linecap="round" stroke-linejoin="round"/>
<path d="M186.688 374.32V359.44" stroke="#121212" stroke-linecap="round" stroke-linejoin="round"/>
<path d="M186.62 355.1C187.113 355.1 187.587 355.296 187.935 355.645C188.284 355.994 188.48 356.467 188.48 356.96V358.578C188.48 358.813 188.387 359.039 188.22 359.205C188.054 359.371 187.829 359.465 187.594 359.465H185.641C185.405 359.465 185.18 359.371 185.014 359.205C184.847 359.039 184.754 358.813 184.754 358.578V356.96C184.754 356.715 184.802 356.473 184.896 356.247C184.99 356.021 185.128 355.815 185.301 355.643C185.474 355.47 185.68 355.333 185.906 355.24C186.133 355.147 186.375 355.099 186.62 355.1Z" stroke="#121212" stroke-linecap="round" stroke-linejoin="round"/>
<path d="M186.619 353.24V350.14" stroke="#121212" stroke-linecap="round" stroke-linejoin="round"/>
<path d="M183.643 354.914L181.269 352.924" stroke="#121212" stroke-linecap="round" stroke-linejoin="round"/>
<path d="M183.018 358.274L179.961 358.814" stroke="#121212" stroke-linecap="round" stroke-linejoin="round"/>
<path d="M190.823 358.355L193.737 359.415" stroke="#121212" stroke-linecap="round" stroke-linejoin="round"/>
<path d="M190.265 354.988L192.949 353.438" stroke="#121212" stroke-linecap="round" stroke-linejoin="round"/>
<path d="M274.107 374.32V359.44" stroke="#121212" stroke-linecap="round" stroke-linejoin="round"/>
<path d="M274.04 355.1C274.533 355.1 275.006 355.296 275.355 355.645C275.704 355.994 275.9 356.467 275.9 356.96V358.578C275.9 358.813 275.807 359.039 275.64 359.205C275.474 359.371 275.249 359.465 275.013 359.465H273.06C272.825 359.465 272.6 359.371 272.434 359.205C272.267 359.039 272.174 358.813 272.174 358.578V356.96C272.174 356.715 272.222 356.473 272.316 356.247C272.41 356.021 272.547 355.815 272.721 355.643C272.894 355.47 273.1 355.333 273.326 355.24C273.553 355.147 273.795 355.099 274.04 355.1Z" stroke="#121212" stroke-linecap="round" stroke-linejoin="round"/>
<path d="M274.039 353.24V350.14" stroke="#121212" stroke-linecap="round" stroke-linejoin="round"/>
<path d="M271.064 354.914L268.689 352.924" stroke="#121212" stroke-linecap="round" stroke-linejoin="round"/>
<path d="M270.437 358.274L267.381 358.814" stroke="#121212" stroke-linecap="round" stroke-linejoin="round"/>
<path d="M278.243 358.355L281.157 359.415" stroke="#121212" stroke-linecap="round" stroke-linejoin="round"/>
<path d="M277.685 354.988L280.369 353.438" stroke="#121212" stroke-linecap="round" stroke-linejoin="round"/>
<path d="M361.527 374.32V359.44" stroke="#121212" stroke-linecap="round" stroke-linejoin="round"/>
<path d="M361.46 355.1C361.953 355.1 362.426 355.296 362.775 355.645C363.124 355.994 363.32 356.467 363.32 356.96V358.578C363.32 358.813 363.227 359.039 363.06 359.205C362.894 359.371 362.669 359.465 362.433 359.465H360.48C360.245 359.465 360.02 359.371 359.853 359.205C359.687 359.039 359.594 358.813 359.594 358.578V356.96C359.594 356.715 359.642 356.473 359.736 356.247C359.83 356.021 359.967 355.815 360.141 355.643C360.314 355.47 360.52 355.333 360.746 355.24C360.973 355.147 361.215 355.099 361.46 355.1Z" stroke="#121212" stroke-linecap="round" stroke-linejoin="round"/>
<path d="M361.459 353.24V350.14" stroke="#121212" stroke-linecap="round" stroke-linejoin="round"/>
<path d="M358.484 354.914L356.109 352.924" stroke="#121212" stroke-linecap="round" stroke-linejoin="round"/>
<path d="M357.857 358.274L354.801 358.814" stroke="#121212" stroke-linecap="round" stroke-linejoin="round"/>
<path d="M365.663 358.355L368.577 359.415" stroke="#121212" stroke-linecap="round" stroke-linejoin="round"/>
<path d="M365.104 354.988L367.789 353.438" stroke="#121212" stroke-linecap="round" stroke-linejoin="round"/>
<path d="M545.048 374.32V359.44" stroke="#121212" stroke-linecap="round" stroke-linejoin="round"/>
<path d="M544.979 355.1C545.473 355.1 545.946 355.296 546.295 355.645C546.644 355.994 546.839 356.467 546.839 356.96V358.578C546.839 358.813 546.746 359.039 546.58 359.205C546.414 359.371 546.188 359.465 545.953 359.465H544C543.765 359.465 543.539 359.371 543.373 359.205C543.207 359.039 543.113 358.813 543.113 358.578V356.96C543.113 356.715 543.162 356.473 543.255 356.247C543.349 356.021 543.487 355.815 543.66 355.643C543.834 355.47 544.039 355.333 544.266 355.24C544.492 355.147 544.735 355.099 544.979 355.1Z" stroke="#121212" stroke-linecap="round" stroke-linejoin="round"/>
<path d="M544.979 353.24V350.14" stroke="#121212" stroke-linecap="round" stroke-linejoin="round"/>
<path d="M542.004 354.914L539.629 352.924" stroke="#121212" stroke-linecap="round" stroke-linejoin="round"/>
<path d="M541.377 358.274L538.32 358.814" stroke="#121212" stroke-linecap="round" stroke-linejoin="round"/>
<path d="M549.184 358.355L552.098 359.415" stroke="#121212" stroke-linecap="round" stroke-linejoin="round"/>
<path d="M548.625 354.988L551.31 353.438" stroke="#121212" stroke-linecap="round" stroke-linejoin="round"/>
<path d="M74.709 389.51H93.309" stroke="#121212" stroke-linecap="round" stroke-linejoin="round"/>
<path d="M130.51 389.51H781.51" stroke="#121212" stroke-linecap="round" stroke-linejoin="round" stroke-dasharray="37.2 37.2"/>
<path d="M800.109 389.51H818.709" stroke="#121212" stroke-linecap="round" stroke-linejoin="round"/>
<path d="M156.475 393.943H200.948C201.422 393.943 201.877 393.755 202.212 393.42C202.548 393.086 202.738 392.632 202.739 392.157V384.593C202.738 383.887 202.456 383.211 201.956 382.712C201.457 382.214 200.779 381.934 200.073 381.934H195.256L191.176 370.6H167.833L159.904 382.38H157.349C156.644 382.38 155.967 382.66 155.469 383.159C154.97 383.658 154.689 384.334 154.689 385.04V392.151C154.689 392.386 154.734 392.619 154.824 392.836C154.913 393.054 155.044 393.251 155.21 393.418C155.376 393.584 155.573 393.716 155.79 393.807C156.007 393.897 156.24 393.943 156.475 393.943Z" fill="#F5FAF8"/>
<path d="M156.475 393.943H200.948C201.422 393.943 201.877 393.755 202.212 393.42C202.548 393.086 202.738 392.632 202.739 392.157V384.593C202.738 383.887 202.456 383.211 201.956 382.712C201.457 382.214 200.779 381.934 200.073 381.934H195.256L191.176 370.6H167.833L159.904 382.38H157.349C156.644 382.38 155.967 382.66 155.469 383.159C154.97 383.658 154.689 384.334 154.689 385.04V392.151C154.689 392.386 154.734 392.619 154.824 392.836C154.913 393.054 155.044 393.251 155.21 393.418C155.376 393.584 155.573 393.716 155.79 393.807C156.007 393.897 156.24 393.943 156.475 393.943Z" stroke="#121212" stroke-linecap="round" stroke-linejoin="round"/>
<path d="M171.045 389.057C171.46 389.869 171.673 390.769 171.665 391.68" stroke="#121212" stroke-linecap="round" stroke-linejoin="round"/>
<path d="M169.18 386.974C169.724 387.339 170.201 387.797 170.587 388.326" stroke="#121212" stroke-linecap="round" stroke-linejoin="round"/>
<path d="M160.355 391.68C160.355 390.177 160.952 388.736 162.015 387.673C163.078 386.61 164.519 386.013 166.022 386.013C166.779 386.01 167.528 386.162 168.223 386.46" stroke="#121212" stroke-linecap="round" stroke-linejoin="round"/>
<path d="M171.045 394.526C170.565 395.44 169.843 396.205 168.959 396.739C168.075 397.273 167.062 397.555 166.029 397.555C164.997 397.555 163.984 397.273 163.1 396.739C162.216 396.205 161.494 395.44 161.014 394.526" stroke="#121212" stroke-linecap="round" stroke-linejoin="round"/>
<path d="M196.428 389.057C196.843 389.869 197.056 390.769 197.048 391.68" stroke="#121212" stroke-linecap="round" stroke-linejoin="round"/>
<path d="M194.562 386.974C195.107 387.341 195.585 387.798 195.975 388.326" stroke="#121212" stroke-linecap="round" stroke-linejoin="round"/>
<path d="M185.739 391.68C185.739 390.177 186.336 388.736 187.399 387.673C188.462 386.61 189.903 386.013 191.406 386.013C192.164 386.01 192.916 386.162 193.613 386.46" stroke="#121212" stroke-linecap="round" stroke-linejoin="round"/>
<path d="M196.427 394.526C195.946 395.44 195.225 396.205 194.341 396.739C193.457 397.273 192.444 397.555 191.411 397.555C190.379 397.555 189.365 397.273 188.481 396.739C187.597 396.205 186.876 395.44 186.396 394.526" stroke="#121212" stroke-linecap="round" stroke-linejoin="round"/>
<path d="M173.952 371.958V382.38H163.412C163.269 382.377 163.128 382.336 163.005 382.262C162.882 382.189 162.781 382.084 162.711 381.958C162.64 381.833 162.604 381.692 162.606 381.548C162.607 381.405 162.646 381.264 162.718 381.14L168.254 372.361C168.329 372.243 168.431 372.147 168.552 372.08C168.674 372.012 168.81 371.977 168.949 371.976L173.952 371.958Z" stroke="#121212" stroke-linecap="round" stroke-linejoin="round"/>
<path d="M186.415 371.958H174.858V382.386H186.415V371.958Z" stroke="#121212" stroke-linecap="round" stroke-linejoin="round"/>
<path d="M192.54 382.38H187.326V371.958H189.676C189.85 371.958 190.019 372.014 190.159 372.116C190.299 372.219 190.404 372.363 190.457 372.528L193.322 381.307C193.36 381.431 193.37 381.561 193.349 381.688C193.328 381.816 193.278 381.937 193.202 382.041C193.126 382.145 193.026 382.23 192.911 382.289C192.797 382.348 192.669 382.379 192.54 382.38Z" stroke="#121212" stroke-linecap="round" stroke-linejoin="round"/>
<path d="M173.952 383.744H171.689" stroke="#121212" stroke-linecap="round" stroke-linejoin="round"/>
<path d="M186.422 383.744H184.152" stroke="#121212" stroke-linecap="round" stroke-linejoin="round"/>
<path d="M203.192 390.998H205.003V392.356H203.192" stroke="#121212" stroke-linecap="round" stroke-linejoin="round"/>
<path d="M392.076 400.143H436.548C437.022 400.143 437.477 399.955 437.813 399.62C438.149 399.286 438.338 398.832 438.34 398.357V390.793C438.338 390.087 438.057 389.411 437.557 388.912C437.057 388.414 436.38 388.134 435.674 388.134H430.857L426.777 376.8H403.434L395.504 388.58H392.95C392.244 388.58 391.568 388.86 391.069 389.359C390.57 389.858 390.29 390.534 390.29 391.24V398.351C390.289 398.586 390.335 398.819 390.424 399.036C390.514 399.254 390.645 399.451 390.811 399.618C390.977 399.784 391.174 399.916 391.391 400.006C391.608 400.097 391.841 400.143 392.076 400.143Z" fill="#F5FAF8"/>
<path d="M392.076 400.143H436.548C437.022 400.143 437.477 399.955 437.813 399.62C438.149 399.286 438.338 398.832 438.34 398.357V390.793C438.338 390.087 438.057 389.411 437.557 388.912C437.057 388.414 436.38 388.134 435.674 388.134H430.857L426.777 376.8H403.434L395.504 388.58H392.95C392.244 388.58 391.568 388.86 391.069 389.359C390.57 389.858 390.29 390.534 390.29 391.24V398.351C390.289 398.586 390.335 398.819 390.424 399.036C390.514 399.254 390.645 399.451 390.811 399.618C390.977 399.784 391.174 399.916 391.391 400.006C391.608 400.097 391.841 400.143 392.076 400.143Z" stroke="#121212" stroke-linecap="round" stroke-linejoin="round"/>
<path d="M406.645 395.257C407.06 396.069 407.273 396.969 407.265 397.88" stroke="#121212" stroke-linecap="round" stroke-linejoin="round"/>
<path d="M404.779 393.174C405.324 393.539 405.8 393.997 406.187 394.526" stroke="#121212" stroke-linecap="round" stroke-linejoin="round"/>
<path d="M395.956 397.88C395.956 396.377 396.553 394.936 397.616 393.873C398.679 392.81 400.12 392.213 401.623 392.213C402.379 392.21 403.128 392.362 403.824 392.66" stroke="#121212" stroke-linecap="round" stroke-linejoin="round"/>
<path d="M406.645 400.726C406.164 401.64 405.443 402.405 404.559 402.939C403.675 403.473 402.662 403.755 401.629 403.755C400.596 403.755 399.583 403.473 398.699 402.939C397.815 402.405 397.094 401.64 396.613 400.726" stroke="#121212" stroke-linecap="round" stroke-linejoin="round"/>
<path d="M432.028 395.257C432.444 396.069 432.657 396.969 432.648 397.88" stroke="#121212" stroke-linecap="round" stroke-linejoin="round"/>
<path d="M430.161 393.174C430.706 393.541 431.184 393.998 431.575 394.526" stroke="#121212" stroke-linecap="round" stroke-linejoin="round"/>
<path d="M421.339 397.88C421.339 396.377 421.936 394.936 422.999 393.873C424.061 392.81 425.503 392.213 427.006 392.213C427.764 392.21 428.515 392.362 429.213 392.66" stroke="#121212" stroke-linecap="round" stroke-linejoin="round"/>
<path d="M432.028 400.726C431.547 401.64 430.826 402.405 429.942 402.939C429.058 403.473 428.045 403.755 427.012 403.755C425.979 403.755 424.966 403.473 424.082 402.939C423.198 402.405 422.477 401.64 421.996 400.726" stroke="#121212" stroke-linecap="round" stroke-linejoin="round"/>
<path d="M409.553 378.158V388.58H399.013C398.869 388.577 398.729 388.536 398.606 388.462C398.483 388.389 398.381 388.284 398.311 388.159C398.241 388.033 398.205 387.892 398.206 387.748C398.207 387.605 398.246 387.464 398.318 387.34L403.855 378.561C403.929 378.444 404.032 378.347 404.153 378.28C404.274 378.212 404.411 378.177 404.549 378.176L409.553 378.158Z" stroke="#121212" stroke-linecap="round" stroke-linejoin="round"/>
<path d="M422.016 378.158H410.459V388.586H422.016V378.158Z" stroke="#121212" stroke-linecap="round" stroke-linejoin="round"/>
<path d="M428.14 388.58H422.926V378.158H425.276C425.449 378.159 425.618 378.214 425.759 378.316C425.899 378.419 426.003 378.563 426.057 378.728L428.921 387.507C428.96 387.631 428.969 387.761 428.949 387.888C428.928 388.016 428.877 388.137 428.801 388.241C428.725 388.345 428.626 388.43 428.511 388.489C428.396 388.548 428.269 388.579 428.14 388.58Z" stroke="#121212" stroke-linecap="round" stroke-linejoin="round"/>
<path d="M409.552 389.944H407.289" stroke="#121212" stroke-linecap="round" stroke-linejoin="round"/>
<path d="M422.021 389.944H419.752" stroke="#121212" stroke-linecap="round" stroke-linejoin="round"/>
<path d="M438.792 397.198H440.602V398.556H438.792" stroke="#121212" stroke-linecap="round" stroke-linejoin="round"/>
<path d="M810.197 382.783H765.7C765.226 382.783 764.772 382.595 764.437 382.26C764.102 381.925 763.914 381.471 763.914 380.997V373.433C763.914 372.728 764.194 372.051 764.693 371.553C765.192 371.054 765.868 370.774 766.574 370.774H771.391L775.496 359.44H798.839L806.768 371.22H809.323C810.028 371.22 810.705 371.5 811.204 371.999C811.702 372.498 811.983 373.174 811.983 373.88V380.991C811.983 381.226 811.938 381.459 811.848 381.676C811.759 381.894 811.628 382.091 811.462 382.258C811.296 382.424 811.099 382.556 810.882 382.646C810.665 382.737 810.432 382.783 810.197 382.783Z" fill="#F5FAF8"/>
<path d="M810.197 382.783H765.7C765.226 382.783 764.772 382.595 764.437 382.26C764.102 381.925 763.914 381.471 763.914 380.997V373.433C763.914 372.728 764.194 372.051 764.693 371.553C765.192 371.054 765.868 370.774 766.574 370.774H771.391L775.496 359.44H798.839L806.768 371.22H809.323C810.028 371.22 810.705 371.5 811.204 371.999C811.702 372.498 811.983 373.174 811.983 373.88V380.991C811.983 381.226 811.938 381.459 811.848 381.676C811.759 381.894 811.628 382.091 811.462 382.258C811.296 382.424 811.099 382.556 810.882 382.646C810.665 382.737 810.432 382.783 810.197 382.783Z" stroke="#121212" stroke-linecap="round" stroke-linejoin="round"/>
<path d="M795.627 377.897C795.211 378.709 794.999 379.609 795.007 380.52" stroke="#121212" stroke-linecap="round" stroke-linejoin="round"/>
<path d="M797.492 375.814C796.948 376.179 796.472 376.637 796.085 377.166" stroke="#121212" stroke-linecap="round" stroke-linejoin="round"/>
<path d="M806.316 380.52C806.316 379.017 805.719 377.576 804.656 376.513C803.594 375.45 802.152 374.853 800.649 374.853C799.893 374.85 799.144 375.002 798.448 375.3" stroke="#121212" stroke-linecap="round" stroke-linejoin="round"/>
<path d="M795.627 383.366C796.108 384.28 796.829 385.045 797.713 385.579C798.597 386.113 799.61 386.395 800.643 386.395C801.675 386.395 802.689 386.113 803.573 385.579C804.457 385.045 805.178 384.28 805.659 383.366" stroke="#121212" stroke-linecap="round" stroke-linejoin="round"/>
<path d="M770.244 377.897C769.829 378.709 769.616 379.609 769.624 380.52" stroke="#121212" stroke-linecap="round" stroke-linejoin="round"/>
<path d="M772.111 375.814C771.566 376.179 771.09 376.637 770.703 377.166" stroke="#121212" stroke-linecap="round" stroke-linejoin="round"/>
<path d="M780.932 380.52C780.932 379.017 780.335 377.576 779.272 376.513C778.21 375.45 776.768 374.853 775.265 374.853C774.509 374.85 773.76 375.002 773.064 375.3" stroke="#121212" stroke-linecap="round" stroke-linejoin="round"/>
<path d="M770.244 383.366C770.725 384.28 771.446 385.045 772.33 385.579C773.214 386.113 774.227 386.395 775.26 386.395C776.293 386.395 777.306 386.113 778.19 385.579C779.074 385.045 779.795 384.28 780.276 383.366" stroke="#121212" stroke-linecap="round" stroke-linejoin="round"/>
<path d="M792.719 360.798V371.22H803.259C803.402 371.217 803.543 371.176 803.666 371.102C803.789 371.029 803.89 370.924 803.96 370.798C804.031 370.673 804.067 370.532 804.066 370.388C804.064 370.245 804.026 370.104 803.953 369.98L798.417 361.201C798.343 361.084 798.24 360.987 798.119 360.92C797.997 360.852 797.861 360.817 797.722 360.816L792.719 360.798Z" stroke="#121212" stroke-linecap="round" stroke-linejoin="round"/>
<path d="M791.807 360.798H780.25V371.226H791.807V360.798Z" stroke="#121212" stroke-linecap="round" stroke-linejoin="round"/>
<path d="M774.138 371.22H779.346V360.798H776.996C776.823 360.799 776.654 360.854 776.513 360.956C776.373 361.059 776.269 361.203 776.215 361.368L773.351 370.147C773.312 370.271 773.302 370.402 773.324 370.53C773.345 370.658 773.396 370.779 773.472 370.883C773.549 370.988 773.649 371.073 773.765 371.131C773.881 371.19 774.008 371.22 774.138 371.22Z" stroke="#121212" stroke-linecap="round" stroke-linejoin="round"/>
<path d="M792.719 372.584H794.988" stroke="#121212" stroke-linecap="round" stroke-linejoin="round"/>
<path d="M780.25 372.584H782.519" stroke="#121212" stroke-linecap="round" stroke-linejoin="round"/>
<path d="M763.479 379.838H761.669V381.196H763.479" stroke="#121212" stroke-linecap="round" stroke-linejoin="round"/>
<path d="M576.464 357.623H593.824C595.544 357.623 597.193 358.307 598.41 359.523C599.626 360.739 600.309 362.389 600.309 364.109V381.469H576.464V357.623Z" fill="#F5FAF8"/>
<path d="M574.274 348.28H528.152V377.308H574.274V348.28Z" fill="#F5FAF8"/>
<path d="M574.274 378.499H528.152V381.679H574.274V378.499Z" fill="#F5FAF8"/>
<path d="M576.464 357.623H593.824C595.544 357.623 597.193 358.307 598.41 359.523C599.626 360.739 600.309 362.389 600.309 364.109V381.469H576.464V357.623Z" stroke="#121212" stroke-linecap="round" stroke-linejoin="round"/>
<path d="M574.274 348.28H528.152V377.308H574.274V348.28Z" stroke="#121212" stroke-linecap="round" stroke-linejoin="round"/>
<path d="M574.274 378.499H528.152V381.679H574.274V378.499Z" stroke="#121212" stroke-linecap="round" stroke-linejoin="round"/>
<path d="M531.729 349.873V376.112" stroke="#121212" stroke-linecap="round" stroke-linejoin="round"/>
<path d="M537.298 349.873V376.112" stroke="#121212" stroke-linecap="round" stroke-linejoin="round"/>
<path d="M542.865 349.873V376.112" stroke="#121212" stroke-linecap="round" stroke-linejoin="round"/>
<path d="M548.434 349.873V376.112" stroke="#121212" stroke-linecap="round" stroke-linejoin="round"/>
<path d="M554 349.873V376.112" stroke="#121212" stroke-linecap="round" stroke-linejoin="round"/>
<path d="M559.562 349.873V376.112" stroke="#121212" stroke-linecap="round" stroke-linejoin="round"/>
<path d="M565.13 349.873V376.112" stroke="#121212" stroke-linecap="round" stroke-linejoin="round"/>
<path d="M570.697 349.873V376.112" stroke="#121212" stroke-linecap="round" stroke-linejoin="round"/>
<path d="M582.626 359.812H577.852V368.56H582.626V359.812Z" stroke="#121212" stroke-linecap="round" stroke-linejoin="round"/>
<path d="M598.529 364.177V368.56H583.816V359.812H594.164C594.738 359.809 595.307 359.919 595.838 360.138C596.369 360.356 596.852 360.677 597.258 361.083C597.664 361.489 597.985 361.972 598.203 362.503C598.422 363.034 598.532 363.603 598.529 364.177Z" stroke="#121212" stroke-linecap="round" stroke-linejoin="round"/>
<path d="M583.816 370.147H586.6" stroke="#121212" stroke-linecap="round" stroke-linejoin="round"/>
<path d="M539.207 382.473C538.84 383.19 538.282 383.793 537.595 384.213C536.907 384.634 536.117 384.856 535.311 384.856C534.505 384.856 533.714 384.634 533.027 384.213C532.339 383.793 531.781 383.19 531.414 382.473" stroke="#121212" stroke-linecap="round" stroke-linejoin="round"/>
<path d="M549.542 382.473C549.175 383.19 548.617 383.793 547.93 384.213C547.242 384.634 546.452 384.856 545.646 384.856C544.84 384.856 544.049 384.634 543.362 384.213C542.674 383.793 542.116 383.19 541.749 382.473" stroke="#121212" stroke-linecap="round" stroke-linejoin="round"/>
<path d="M588.113 382.473C587.746 383.19 587.187 383.793 586.5 384.213C585.812 384.634 585.022 384.856 584.216 384.856C583.41 384.856 582.62 384.634 581.932 384.213C581.245 383.793 580.686 383.19 580.319 382.473" stroke="#121212" stroke-linecap="round" stroke-linejoin="round"/>
<path d="M747.099 388.468V389.764C740.211 389.919 733.329 391.736 730.613 392.536L730.886 391.606C731.278 390.25 732.101 389.059 733.229 388.211C734.357 387.363 735.731 386.905 737.142 386.906H745.537C745.951 386.906 746.348 387.071 746.641 387.364C746.934 387.657 747.099 388.054 747.099 388.468Z" fill="#F5FAF8"/>
<path d="M730.322 393.54L729.863 395.109H724.699L730.198 377.891H726.925C726.13 377.888 725.356 378.139 724.714 378.607C724.073 379.076 723.598 379.737 723.36 380.495L723.031 381.524H727.191V382.764H722.628L718.462 395.815C718.422 395.913 718.409 396.019 718.422 396.123C718.435 396.228 718.474 396.327 718.536 396.412C718.598 396.497 718.681 396.565 718.776 396.609C718.872 396.653 718.977 396.672 719.082 396.665H744.619C745.277 396.665 745.908 396.404 746.373 395.938C746.838 395.473 747.099 394.843 747.099 394.185V390.44C741.396 390.738 735.756 391.781 730.322 393.54Z" fill="#F5FAF8"/>
<path d="M747.099 388.468V389.764C740.211 389.919 733.329 391.736 730.613 392.536L730.886 391.606C731.278 390.25 732.101 389.059 733.229 388.211C734.357 387.363 735.731 386.905 737.142 386.906H745.537C745.951 386.906 746.348 387.071 746.641 387.364C746.934 387.657 747.099 388.054 747.099 388.468Z" stroke="#121212" stroke-linecap="round" stroke-linejoin="round"/>
<path d="M727.985 380.266C728.42 380.266 728.772 379.913 728.772 379.478C728.772 379.044 728.42 378.691 727.985 378.691C727.55 378.691 727.197 379.044 727.197 379.478C727.197 379.913 727.55 380.266 727.985 380.266Z" stroke="#121212" stroke-linecap="round" stroke-linejoin="round"/>
<path d="M730.322 393.54L729.863 395.109H724.699L730.198 377.891H726.925C726.13 377.888 725.356 378.139 724.714 378.607C724.073 379.076 723.598 379.737 723.36 380.495L723.031 381.524H727.191V382.764H722.628L718.462 395.815C718.422 395.913 718.409 396.019 718.422 396.123C718.435 396.228 718.474 396.327 718.536 396.412C718.598 396.497 718.681 396.565 718.776 396.609C718.872 396.653 718.977 396.672 719.082 396.665H744.619C745.277 396.665 745.908 396.404 746.373 395.938C746.838 395.473 747.099 394.843 747.099 394.185V390.44C741.396 390.738 735.756 391.781 730.322 393.54Z" stroke="#121212" stroke-linecap="round" stroke-linejoin="round"/>
<path d="M722.702 397.322C722.554 398.118 722.182 398.856 721.63 399.449C721.077 400.041 720.368 400.464 719.584 400.669C718.8 400.873 717.974 400.85 717.203 400.602C716.432 400.354 715.747 399.891 715.229 399.268C714.711 398.646 714.381 397.888 714.278 397.085C714.175 396.281 714.302 395.465 714.646 394.731C714.99 393.998 715.535 393.377 716.218 392.942C716.902 392.507 717.695 392.276 718.505 392.275" stroke="#121212" stroke-linecap="round" stroke-linejoin="round"/>
<path d="M744.817 397.334C744.629 398.309 744.108 399.187 743.342 399.819C742.577 400.451 741.615 400.796 740.623 400.796C739.631 400.796 738.669 400.451 737.904 399.819C737.138 399.187 736.617 398.309 736.429 397.334" stroke="#121212" stroke-linecap="round" stroke-linejoin="round"/>
<path d="M279.619 372.968V374.264C286.507 374.419 293.389 376.236 296.105 377.036L295.832 376.106C295.44 374.75 294.617 373.559 293.489 372.711C292.361 371.863 290.988 371.405 289.576 371.406H281.182C280.767 371.406 280.37 371.571 280.077 371.864C279.784 372.157 279.619 372.554 279.619 372.968Z" fill="#F5FAF8"/>
<path d="M296.396 378.04L296.855 379.609H302.02L296.52 362.391H299.794C300.588 362.388 301.363 362.639 302.004 363.107C302.646 363.576 303.121 364.237 303.359 364.995L303.688 366.024H299.527V367.264H304.091L308.257 380.315C308.296 380.413 308.31 380.519 308.297 380.623C308.284 380.728 308.244 380.827 308.182 380.912C308.12 380.997 308.038 381.065 307.942 381.109C307.847 381.153 307.742 381.172 307.637 381.165H282.099C281.441 381.165 280.811 380.903 280.346 380.438C279.88 379.973 279.619 379.342 279.619 378.685V374.94C285.323 375.238 290.963 376.281 296.396 378.04Z" fill="#F5FAF8"/>
<path d="M279.619 372.968V374.264C286.507 374.419 293.389 376.236 296.105 377.036L295.832 376.106C295.44 374.75 294.617 373.559 293.489 372.711C292.361 371.863 290.988 371.405 289.576 371.406H281.182C280.767 371.406 280.37 371.571 280.077 371.864C279.784 372.157 279.619 372.554 279.619 372.968Z" stroke="#121212" stroke-linecap="round" stroke-linejoin="round"/>
<path d="M298.734 364.766C299.169 364.766 299.521 364.413 299.521 363.978C299.521 363.544 299.169 363.191 298.734 363.191C298.299 363.191 297.946 363.544 297.946 363.978C297.946 364.413 298.299 364.766 298.734 364.766Z" stroke="#121212" stroke-linecap="round" stroke-linejoin="round"/>
<path d="M296.396 378.04L296.855 379.609H302.02L296.52 362.391H299.794C300.588 362.388 301.363 362.639 302.004 363.107C302.646 363.576 303.121 364.237 303.359 364.995L303.688 366.024H299.527V367.264H304.091L308.257 380.315C308.296 380.413 308.31 380.519 308.297 380.623C308.284 380.728 308.244 380.827 308.182 380.912C308.12 380.997 308.038 381.065 307.942 381.109C307.847 381.153 307.742 381.172 307.637 381.165H282.099C281.441 381.165 280.811 380.903 280.346 380.438C279.88 379.973 279.619 379.342 279.619 378.685V374.94C285.323 375.238 290.963 376.281 296.396 378.04Z" stroke="#121212" stroke-linecap="round" stroke-linejoin="round"/>
<path d="M304.017 381.822C304.165 382.618 304.537 383.356 305.089 383.949C305.641 384.541 306.351 384.964 307.135 385.169C307.919 385.373 308.745 385.35 309.516 385.102C310.287 384.854 310.972 384.391 311.49 383.768C312.008 383.146 312.338 382.388 312.441 381.585C312.544 380.781 312.417 379.965 312.073 379.231C311.729 378.498 311.184 377.877 310.501 377.442C309.817 377.007 309.024 376.776 308.214 376.775" stroke="#121212" stroke-linecap="round" stroke-linejoin="round"/>
<path d="M281.9 381.834C282.089 382.809 282.61 383.687 283.376 384.319C284.141 384.951 285.102 385.296 286.095 385.296C287.087 385.296 288.049 384.951 288.814 384.319C289.579 383.687 290.101 382.809 290.289 381.834" stroke="#121212" stroke-linecap="round" stroke-linejoin="round"/>
<path d="M584.04 394.668V395.964C577.151 396.119 570.269 397.936 567.554 398.736L567.827 397.806C568.219 396.45 569.041 395.259 570.17 394.411C571.298 393.563 572.671 393.105 574.082 393.106H582.477C582.891 393.106 583.289 393.271 583.582 393.564C583.875 393.857 584.04 394.254 584.04 394.668Z" fill="#F5FAF8"/>
<path d="M567.263 399.74L566.804 401.309H561.639L567.139 384.091H563.865C563.071 384.088 562.296 384.339 561.655 384.807C561.013 385.276 560.538 385.937 560.3 386.695L559.971 387.724H564.132V388.964H559.568L555.402 402.015C555.363 402.113 555.349 402.219 555.362 402.323C555.375 402.428 555.415 402.527 555.477 402.612C555.539 402.697 555.621 402.765 555.717 402.809C555.812 402.853 555.917 402.872 556.022 402.865H581.56C582.218 402.865 582.848 402.603 583.313 402.138C583.779 401.673 584.04 401.043 584.04 400.385V396.64C578.336 396.938 572.696 397.981 567.263 399.74Z" fill="#F5FAF8"/>
<path d="M584.04 394.668V395.964C577.151 396.119 570.269 397.936 567.554 398.736L567.827 397.806C568.219 396.45 569.041 395.259 570.17 394.411C571.298 393.563 572.671 393.105 574.082 393.106H582.477C582.891 393.106 583.289 393.271 583.582 393.564C583.875 393.857 584.04 394.254 584.04 394.668Z" stroke="#121212" stroke-linecap="round" stroke-linejoin="round"/>
<path d="M564.925 386.466C565.36 386.466 565.712 386.113 565.712 385.678C565.712 385.244 565.36 384.891 564.925 384.891C564.49 384.891 564.138 385.244 564.138 385.678C564.138 386.113 564.49 386.466 564.925 386.466Z" stroke="#121212" stroke-linecap="round" stroke-linejoin="round"/>
<path d="M567.263 399.74L566.804 401.309H561.639L567.139 384.091H563.865C563.071 384.088 562.296 384.339 561.655 384.807C561.013 385.276 560.538 385.937 560.3 386.695L559.971 387.724H564.132V388.964H559.568L555.402 402.015C555.363 402.113 555.349 402.219 555.362 402.323C555.375 402.428 555.415 402.527 555.477 402.612C555.539 402.697 555.621 402.765 555.717 402.809C555.812 402.853 555.917 402.872 556.022 402.865H581.56C582.218 402.865 582.848 402.603 583.313 402.138C583.779 401.673 584.04 401.043 584.04 400.385V396.64C578.336 396.938 572.696 397.981 567.263 399.74Z" stroke="#121212" stroke-linecap="round" stroke-linejoin="round"/>
<path d="M559.642 403.522C559.493 404.318 559.121 405.056 558.569 405.649C558.017 406.241 557.307 406.665 556.523 406.869C555.739 407.073 554.914 407.05 554.142 406.802C553.371 406.554 552.687 406.091 552.169 405.468C551.651 404.846 551.321 404.088 551.217 403.285C551.114 402.481 551.242 401.665 551.585 400.931C551.929 400.198 552.474 399.577 553.158 399.142C553.841 398.707 554.634 398.476 555.444 398.475" stroke="#121212" stroke-linecap="round" stroke-linejoin="round"/>
<path d="M581.758 403.534C581.57 404.509 581.048 405.387 580.283 406.019C579.517 406.651 578.556 406.996 577.563 406.996C576.571 406.996 575.61 406.651 574.844 406.019C574.079 405.387 573.557 404.509 573.369 403.534" stroke="#121212" stroke-linecap="round" stroke-linejoin="round"/>
</svg>
