<svg width="576" height="500" viewBox="0 0 576 500" fill="none" xmlns="http://www.w3.org/2000/svg">
<g clip-path="url(#clip0_6916_59561)">
<rect width="576" height="500" rx="23" fill="#F5FAF8"/>
<path d="M114.954 137.065L137.253 230.954L602 91.2946V2.10071L114.954 137.065ZM491.094 115.166C488.513 116.499 485.806 117.574 483.014 118.376C479.691 119.352 476.228 119.767 472.768 119.602C469.382 119.424 466.084 118.462 463.133 116.791C459.858 114.872 457.034 112.27 454.853 109.163C452.369 105.771 450.347 101.372 448.786 95.9656C447.166 90.344 446.579 85.411 447.025 81.1664C447.359 77.3236 448.524 73.5994 450.441 70.2519C452.16 67.3123 454.506 64.7878 457.312 62.8582C459.979 61.0097 462.928 59.6048 466.044 58.6978C468.817 57.8476 471.664 57.2582 474.546 56.9374C476.559 56.7262 478.586 56.7065 480.602 56.8787L481.13 67.0128C479.525 66.7794 477.895 66.7794 476.289 67.0128C474.128 67.3124 471.994 67.7793 469.905 68.4094C465.367 69.7199 462.188 72.3859 460.369 76.4075C458.55 80.429 458.615 85.8296 460.563 92.6091C461.319 95.3444 462.432 97.9683 463.873 100.414C465.097 102.505 466.725 104.332 468.661 105.789C470.483 107.117 472.591 108 474.816 108.365C477.272 108.738 479.78 108.547 482.151 107.807C484.263 107.242 486.286 106.385 488.16 105.261C489.587 104.384 490.891 103.322 492.039 102.104L496.962 110.559C495.35 112.488 493.351 114.058 491.094 115.166ZM540.515 93.413C537.776 99.7935 532.53 104.097 524.777 106.323C521.086 107.48 517.186 107.816 513.352 107.308C509.964 106.812 506.752 105.484 504.004 103.441C501.106 101.225 498.668 98.4646 496.827 95.3142C494.655 91.6238 492.976 87.6643 491.834 83.5371C489.095 73.984 489.076 66.023 491.775 59.6543C494.474 53.2855 499.736 48.9823 507.56 46.7446C511.223 45.6 515.093 45.2695 518.897 45.7764C522.294 46.2791 525.518 47.6046 528.286 49.6376C531.206 51.8399 533.659 54.6004 535.503 57.7589C537.679 61.448 539.358 65.4078 540.497 69.536C543.236 79.0735 543.232 87.0325 540.485 93.413H540.515ZM542.627 58.4044L541.759 55.3706C542.263 54.4083 542.823 53.2933 543.437 52.0258C544.051 50.7583 544.654 49.4243 545.244 48.0238C545.831 46.6273 546.418 45.2013 546.923 43.7461C547.438 42.3321 547.873 40.8902 548.225 39.4272C548.551 38.1062 548.761 36.7593 548.853 35.4017C548.939 34.2471 548.828 33.0863 548.525 31.9689C548.245 30.8421 547.552 29.8618 546.582 29.2227C545.643 28.632 544.405 28.5557 542.868 28.9939C541.853 29.2993 540.907 29.7974 540.081 30.4609C539.247 31.0934 538.533 31.8705 537.974 32.7553L534.424 29.2755C535.344 27.9471 536.469 26.7726 537.757 25.7958C539.262 24.6871 540.962 23.871 542.768 23.3899C543.979 23.0321 545.238 22.8697 546.5 22.9087C547.627 22.9416 548.736 23.2053 549.757 23.6833C550.765 24.172 551.654 24.8749 552.362 25.743C553.169 26.7619 553.756 27.9366 554.087 29.1934C554.538 30.7832 554.708 32.4391 554.592 34.0873C554.481 35.8498 554.216 37.5993 553.8 39.3157C553.373 41.073 552.842 42.8032 552.21 44.4972C551.57 46.1989 550.931 47.7833 550.273 49.2444L548.413 51.7911L548.478 52.0141L551.547 50.4415L560.231 47.9358L561.663 52.9119L542.627 58.4044Z" fill="#007A66"/>
<path d="M261.719 307.948L244.391 276.965C242.472 273.544 238.224 271.572 234.949 272.593L174.397 291.447C171.228 292.433 170.201 295.989 172.114 299.339L189.431 329.677C191.326 332.998 195.463 334.958 198.638 333.99L259.208 315.899C262.482 314.919 263.614 311.345 261.719 307.948ZM201.009 299.527L225.067 291.717L228.089 297.274L204.031 305.119L201.009 299.527ZM209.271 314.784L206.243 309.186L230.302 301.323L233.324 306.892L209.271 314.784Z" fill="#007A66"/>
<path d="M328.82 380.031L306.398 339.94C303.922 335.51 298.417 332.969 294.181 334.284L215.843 358.683C211.735 359.956 210.409 364.551 212.909 368.893L235.289 408.168C237.742 412.469 243.1 414.981 247.207 413.754L325.575 390.347C329.811 389.05 331.278 384.42 328.82 380.031ZM293.735 383.686L266.155 393.157L256.373 396.514L245.811 377.196L254.507 364.058L259.201 372.66L268.649 369.439L263.955 360.854L267.681 354.827L274.564 367.455L279.364 365.83L274.67 357.269L278.366 351.26L295.742 382.988L293.735 383.686Z" fill="#007A66"/>
<path d="M379.871 468.638L357.45 428.547C354.973 424.117 349.469 421.576 345.232 422.891L266.894 447.29C262.787 448.563 261.461 453.158 263.96 457.5L286.341 496.775C288.794 501.076 294.151 503.588 298.259 502.361L376.626 478.954C380.863 477.657 382.33 473.027 379.871 468.638ZM312.33 479.869C311.592 480.085 310.802 480.043 310.091 479.748C309.38 479.453 308.792 478.925 308.422 478.25C307.648 476.841 308.158 475.316 309.549 474.793C310.29 474.578 311.082 474.622 311.794 474.919C312.506 475.216 313.095 475.747 313.463 476.425V476.466C314.214 477.851 313.709 479.37 312.33 479.869ZM341.888 469.195C341.153 469.409 340.367 469.364 339.661 469.068C338.955 468.773 338.372 468.244 338.009 467.57L337.011 467.934C337.78 469.33 337.287 470.868 335.908 471.361C335.172 471.575 334.384 471.531 333.676 471.235C332.968 470.939 332.383 470.41 332.018 469.735L316.978 475.163L314.813 471.214L311.996 466.085L309.185 460.945L306.374 455.822L304.186 451.826L334.201 441.158L336.389 445.125L339.194 450.212L341.999 455.306L344.804 460.393L346.964 464.313L343.22 465.674L342.991 465.757C343.754 467.147 343.267 468.679 341.888 469.195Z" fill="#007A66"/>
<path d="M475.52 333.673L453.098 293.583C450.622 289.153 445.118 286.612 440.881 287.926L362.543 312.325C358.435 313.599 357.109 318.193 359.609 322.536L381.989 361.81C384.442 366.112 389.8 368.623 393.907 367.397L472.275 343.989C476.512 342.692 477.979 338.062 475.52 333.673ZM417.743 352.111L420.624 324.994L406.835 332.47L408.595 307.578L411.646 324.49L431.011 315.799L417.743 352.111Z" fill="#007A66"/>
<path d="M526.573 422.28L504.151 382.19C501.675 377.76 496.17 375.219 491.934 376.533L413.596 400.933C409.488 402.206 408.162 406.801 410.662 411.143L433.042 450.418C435.495 454.719 440.853 457.23 444.96 456.004L523.328 432.596C527.564 431.3 529.031 426.67 526.573 422.28ZM468.479 434.509L460.921 420.972L458.908 417.363L449.361 400.264L458.093 397.247L477.504 405.603L478.519 407.423L479.975 410.016L481.981 413.602L489.528 427.098L468.479 434.509ZM494.105 418.472L493.6 417.574L492.855 416.23L496.376 416.06L497.133 417.404L494.105 418.472Z" fill="#007A66"/>
<path d="M577.623 510.888L555.202 470.797C552.725 466.367 547.221 463.826 542.984 465.14L464.646 489.54C460.539 490.813 459.213 495.408 461.712 499.75L484.093 539.025C486.546 543.326 491.903 545.838 496.011 544.611L574.378 521.204C578.615 519.907 580.082 515.277 577.623 510.888ZM503.809 495.144L509.918 492.92L509.097 491.453L512.846 490.085L516.596 488.724L517.417 490.191L523.497 487.973L524.594 489.921L514.771 493.501L504.913 497.098L503.809 495.144ZM529.376 519.484L523.285 521.743L507.148 498.06L515.598 494.979L524.019 491.905L535.456 517.225L529.376 519.484Z" fill="#007A66"/>
<path d="M599.799 247.226C597.323 242.795 591.819 240.254 587.582 241.569L509.244 265.968C505.136 267.241 503.81 271.836 506.31 276.178L528.691 315.453C531.143 319.754 536.501 322.266 540.609 321.039L602 302.673V251.163L599.799 247.226ZM550.901 297.151V294.287L550.936 282.046C550.921 281.029 551.24 280.035 551.844 279.217C552.449 278.399 553.305 277.801 554.281 277.516L576.11 270.539L577.982 273.843L584.941 286.166L550.901 297.151Z" fill="#007A66"/>
<path d="M601.999 341.583V406.531L591.66 409.617C587.552 410.844 582.195 408.332 579.742 404.031L557.338 364.786C554.861 360.449 556.164 355.849 560.272 354.575L601.999 341.583Z" fill="#007A66"/>
<path d="M529.77 89.0061C528.487 92.7499 525.852 95.1949 521.866 96.3412C519.894 96.9656 517.787 97.0185 515.786 96.4937C513.875 95.944 512.131 94.923 510.716 93.5245C509.069 91.885 507.7 89.9883 506.662 87.9088C505.393 85.4284 504.375 82.8277 503.622 80.1454C501.666 73.3229 501.314 67.9986 502.566 64.1727C503.818 60.3467 506.448 57.8587 510.458 56.7085C512.482 56.0546 514.652 55.9976 516.708 56.5442C518.633 57.1319 520.377 58.2026 521.772 59.6543C523.387 61.3304 524.733 63.2465 525.762 65.3345C526.978 67.761 527.961 70.2976 528.696 72.9101C530.699 79.9009 531.057 85.2662 529.77 89.0061Z" fill="#007A66"/>
<path d="M52.1672 407.287C59.7832 407.287 65.9571 413.461 65.9571 421.077V435.161C65.9571 442.776 59.7832 448.95 52.1672 448.95C44.5513 448.95 38.3774 442.776 38.3774 435.161V421.077C38.3774 413.461 44.5513 407.287 52.1672 407.287Z" fill="#007A66" stroke="#D6E5E3" stroke-width="0.586802"/>
<path d="M109.087 5.91474C116.703 5.91474 122.877 12.0887 122.877 19.7046V33.7878C122.877 41.4038 116.703 47.5777 109.087 47.5777C101.471 47.5777 95.2973 41.4038 95.2973 33.7878V19.7046C95.2973 12.0887 101.471 5.91474 109.087 5.91474Z" fill="white" stroke="#D6E5E3" stroke-width="0.586802"/>
<path d="M166.006 5.91474C173.622 5.91474 179.796 12.0887 179.796 19.7046V33.7878C179.796 41.4038 173.622 47.5777 166.006 47.5777C158.39 47.5777 152.216 41.4038 152.216 33.7878V19.7046C152.216 12.0887 158.39 5.91474 166.006 5.91474Z" fill="white" stroke="#D6E5E3" stroke-width="0.586802"/>
<path d="M66.2505 421.077C66.2505 413.299 59.9452 406.994 52.1672 406.994C44.3893 406.994 38.084 413.299 38.084 421.077V435.161C38.084 442.938 44.3893 449.244 52.1672 449.244C59.9452 449.244 66.2505 442.938 66.2505 435.161V421.077Z" stroke="#121212" stroke-width="1.1736" stroke-linecap="round" stroke-linejoin="round"/>
<path d="M52.166 438.681V458.633" stroke="#121212" stroke-width="1.1736" stroke-linecap="round" stroke-linejoin="round"/>
<path d="M123.17 19.7046C123.17 11.9266 116.865 5.62134 109.087 5.62134C101.309 5.62134 95.0039 11.9266 95.0039 19.7046V33.7878C95.0039 41.5658 101.309 47.8711 109.087 47.8711C116.865 47.8711 123.17 41.5658 123.17 33.7878V19.7046Z" fill="#007A66" stroke="#007A66" stroke-width="1.1736" stroke-linecap="round" stroke-linejoin="round"/>
<path d="M109.086 37.3087V55.4996" stroke="#121212" stroke-width="1.1736" stroke-linecap="round" stroke-linejoin="round"/>
<path d="M180.089 19.7046C180.089 11.9266 173.784 5.62134 166.006 5.62134C158.228 5.62134 151.923 11.9266 151.923 19.7046V33.7878C151.923 41.5658 158.228 47.8711 166.006 47.8711C173.784 47.8711 180.089 41.5658 180.089 33.7878V19.7046Z" fill="#007A66" stroke="#007A66" stroke-width="1.1736" stroke-linecap="round" stroke-linejoin="round"/>
<path d="M166.006 37.3087V55.4996" stroke="#121212" stroke-width="1.1736" stroke-linecap="round" stroke-linejoin="round"/>
<path d="M31.6284 468.608C31.6284 468.608 29.868 462.74 24 462.153C24 462.153 33.3888 460.393 36.3228 463.914C36.3228 463.914 32.802 456.285 28.1076 454.525C28.1076 454.525 46.2985 458.046 50.4061 461.567C50.4061 461.567 53.3401 455.699 59.2081 453.938L57.4477 460.98C57.4477 460.98 66.8366 456.872 76.8122 455.699L73.8782 462.74C79.0387 461.294 84.4685 461.093 89.7218 462.153L79.1594 468.608" stroke="#D6E5E3" stroke-width="1.1736" stroke-linecap="round" stroke-linejoin="round"/>
<path d="M90.8956 66.6488C90.8956 66.6488 85.6143 60.7808 80.9199 60.7808C80.9199 60.7808 93.8296 59.6072 97.3504 61.9544C102.076 57.4016 108.393 54.8748 114.954 54.9128L112.607 60.7808C112.607 60.7808 137.84 58.4336 140.187 57.26C140.187 57.26 138.427 61.3676 136.079 62.5412C136.079 62.5412 156.031 59.0204 163.072 59.0204C163.072 59.0204 157.791 55.4996 156.031 54.9128C156.031 54.9128 167.767 54.9128 170.114 57.26C170.114 57.26 179.503 51.9788 185.371 51.9788C185.371 51.9788 178.916 57.26 178.329 59.6072C178.329 59.6072 184.197 57.26 188.892 57.26C188.892 57.26 183.024 62.5412 182.437 66.6488" stroke="#D6E5E3" stroke-width="1.1736" stroke-linecap="round" stroke-linejoin="round"/>
<path d="M78.9956 131.778C70.9309 159.102 71.5276 191.634 77.118 219.569L94.5695 306.833C96.023 314.101 98.5839 321.103 102.163 327.594L106.406 334.62" stroke="#121212" stroke-width="1.1736" stroke-linecap="round" stroke-linejoin="round"/>
<path d="M196.373 498.606L237.009 573.646" stroke="white" stroke-width="1.1736" stroke-linecap="round" stroke-linejoin="round"/>
<path d="M106.739 335.897L194.76 495.601" stroke="#121212" stroke-width="1.1736" stroke-linecap="round" stroke-linejoin="round"/>
<path d="M602 126.109V136.772L138.426 276.724L136.079 267.922L602 126.109Z" fill="#007A66"/>
<path d="M313.457 476.413C314.226 477.821 313.721 479.347 312.331 479.869C311.59 480.085 310.798 480.04 310.086 479.744C309.374 479.447 308.785 478.915 308.417 478.238C307.642 476.829 308.153 475.304 309.543 474.782C310.284 474.566 311.076 474.61 311.788 474.907C312.5 475.204 313.089 475.735 313.457 476.413Z" stroke="#121212" stroke-width="1.1736" stroke-linecap="round" stroke-linejoin="round"/>
<path d="M337.013 467.91C337.781 469.307 337.288 470.844 335.909 471.343C335.173 471.557 334.385 471.513 333.677 471.217C332.969 470.922 332.384 470.392 332.019 469.717C331.25 468.321 331.743 466.783 333.122 466.285C333.859 466.072 334.646 466.118 335.353 466.413C336.061 466.709 336.646 467.237 337.013 467.91Z" stroke="#121212" stroke-width="1.1736" stroke-linecap="round" stroke-linejoin="round"/>
<path d="M342.992 465.756C343.755 467.147 343.268 468.69 341.889 469.178C341.154 469.391 340.368 469.346 339.662 469.051C338.956 468.755 338.373 468.226 338.01 467.552C337.242 466.155 337.735 464.618 339.108 464.131C339.843 463.917 340.63 463.961 341.337 464.257C342.044 464.553 342.628 465.082 342.992 465.756Z" stroke="#121212" stroke-width="1.1736" stroke-linecap="round" stroke-linejoin="round"/>
<path d="M494.094 418.472L493.589 417.574L492.855 416.23L496.376 416.06L497.133 417.404L494.094 418.472Z" stroke="#121212" stroke-width="1.1736" stroke-linecap="round" stroke-linejoin="round"/>
<path d="M103.618 330.229L102.045 335.991C102.045 335.991 107.913 333.644 110.26 333.644C110.26 333.644 105.566 335.991 104.979 337.751" stroke="#D6E5E3" stroke-width="1.1736" stroke-linecap="round" stroke-linejoin="round"/>
<path d="M79.1593 337.751C79.1593 337.751 77.3989 330.71 69.7705 330.123C69.7705 330.123 79.1593 328.949 83.8538 332.47C83.8538 332.47 87.3746 323.081 93.8294 321.908C93.8294 321.908 93.2426 331.297 93.8294 334.231C96.4548 331.795 99.7381 330.185 103.271 329.601" stroke="#D6E5E3" stroke-width="1.1736" stroke-linecap="round" stroke-linejoin="round"/>
<path d="M174.808 499.709C174.808 499.709 173.635 495.601 167.18 494.428C167.18 494.428 179.503 493.254 183.023 496.188C183.023 496.188 184.197 489.733 189.478 488.56V496.775C189.572 496.775 194.378 494.428 199.454 496.775C197.668 498.061 195.686 499.052 193.586 499.709" stroke="#D6E5E3" stroke-width="1.1736" stroke-linecap="round" stroke-linejoin="round"/>
<path d="M274.577 367.455L279.377 365.83L283.244 364.521L293.736 383.686L266.127 393.157L255.617 373.881L259.214 372.66" stroke="#007A66" stroke-width="1.1736" stroke-linecap="round" stroke-linejoin="round"/>
<path d="M337.822 467.617L337.012 467.91" stroke="#121212" stroke-width="1.1736" stroke-linecap="round" stroke-linejoin="round"/>
<path d="M314.221 476.137L316.979 475.145" stroke="white" stroke-width="1.1736" stroke-linecap="round" stroke-linejoin="round"/>
<path d="M310.571 463.474L300.871 469.993L305.888 479.147L307.572 478.537" stroke="white" stroke-width="1.1736" stroke-linecap="round" stroke-linejoin="round"/>
<path d="M336.384 445.125L306.375 455.822" stroke="#007A66" stroke-width="1.1736" stroke-linecap="round" stroke-linejoin="round"/>
<path d="M309.18 460.945L339.189 450.212" stroke="#007A66" stroke-width="1.1736" stroke-linecap="round" stroke-linejoin="round"/>
<path d="M311.996 466.067L341.993 455.306" stroke="#007A66" stroke-width="1.1736" stroke-linecap="round" stroke-linejoin="round"/>
<path d="M312.331 479.869C311.59 480.085 310.798 480.04 310.086 479.744C309.374 479.447 308.785 478.915 308.417 478.238C307.642 476.829 308.153 475.304 309.543 474.782C310.284 474.566 311.076 474.61 311.788 474.907C312.5 475.204 313.089 475.735 313.457 476.413C314.226 477.821 313.721 479.364 312.331 479.869Z" stroke="#007A66" stroke-width="1.1736" stroke-linecap="round" stroke-linejoin="round"/>
<path d="M335.909 471.343C335.173 471.557 334.385 471.513 333.677 471.217C332.969 470.922 332.384 470.392 332.019 469.717C331.25 468.321 331.743 466.783 333.122 466.285C333.859 466.072 334.646 466.118 335.353 466.413C336.061 466.709 336.646 467.237 337.013 467.91C337.781 469.307 337.288 470.844 335.909 471.343Z" stroke="#007A66" stroke-width="1.1736" stroke-linecap="round" stroke-linejoin="round"/>
<path d="M341.889 469.195C341.154 469.409 340.368 469.364 339.662 469.068C338.956 468.772 338.373 468.243 338.01 467.57C337.242 466.173 337.735 464.636 339.108 464.149C339.843 463.934 340.63 463.979 341.337 464.275C342.044 464.571 342.628 465.1 342.992 465.774C343.755 467.147 343.268 468.679 341.889 469.195Z" stroke="#007A66" stroke-width="1.1736" stroke-linecap="round" stroke-linejoin="round"/>
<path d="M458.896 417.363L479.963 410.016" stroke="#007A66" stroke-width="1.1736" stroke-linecap="round" stroke-linejoin="round"/>
<path d="M460.909 420.972L481.97 413.602" stroke="#007A66" stroke-width="1.1736" stroke-linecap="round" stroke-linejoin="round"/>
<path d="M478.507 407.422C478.507 407.422 483.201 404.606 485.953 409.529C488.705 414.452 490.102 418.801 493.582 417.574" stroke="white" stroke-width="1.1736" stroke-linecap="round" stroke-linejoin="round"/>
<path d="M497.138 417.404L494.093 418.472L493.588 417.574L492.837 416.23L496.381 416.06L497.138 417.404Z" stroke="white" stroke-width="1.1736" stroke-linecap="round" stroke-linejoin="round"/>
<path d="M465.122 412.504L459.841 414.347L457.077 409.394L462.358 407.557L465.122 412.504Z" stroke="#007A66" stroke-width="1.1736" stroke-linecap="round" stroke-linejoin="round"/>
<path d="M476.085 408.684L466.878 411.894L465.622 409.646L474.829 406.443L476.085 408.684Z" stroke="#007A66" stroke-width="1.1736" stroke-linecap="round" stroke-linejoin="round"/>
<path d="M560.454 281.706L576.744 276.478L574.602 272.699L563.699 276.219C562.567 276.558 561.604 277.31 561.002 278.327C560.401 279.344 560.205 280.551 560.454 281.706Z" stroke="#007A66" stroke-width="1.1736" stroke-linecap="round" stroke-linejoin="round"/>
<path d="M550.913 294.287L583.486 283.771" stroke="#007A66" stroke-width="1.1736" stroke-linecap="round" stroke-linejoin="round"/>
<path d="M602 -29L100.038 110.436C94.4333 111.996 89.4339 115.22 85.7 119.681C81.966 124.142 79.6731 129.63 79.124 135.422V135.428C78.8441 138.372 79.0242 141.341 79.658 144.23L110.26 284.81C111.808 291.899 114.415 298.714 117.994 305.025L269.87 573.646" stroke="#121212" stroke-width="1.09645"/>
</g>
<defs>
<clipPath id="clip0_6916_59561">
<rect width="576" height="500" rx="23" fill="white"/>
</clipPath>
</defs>
</svg>
