<svg width="576" height="500" viewBox="0 0 576 500" fill="none" xmlns="http://www.w3.org/2000/svg">
<g clip-path="url(#clip0_6916_59558)">
<rect width="576" height="500" rx="23" fill="#F5FAF8"/>
<g clip-path="url(#clip1_6916_59558)">
<path d="M579 440H-3V500H579V440Z" fill="#008F77"/>
<path d="M306.519 180.093C304.473 180.304 302.412 180.304 300.366 180.093C303.936 180.153 306.519 180.093 306.519 180.093Z" fill="#008F77"/>
<path d="M295.843 268.435C298.079 280.982 301.426 284.722 301.426 284.722C309.575 284.691 317.71 284.036 325.759 282.764L295.843 268.435Z" fill="#008F77"/>
<path d="M278.203 249.815C278.606 251.023 278.986 252.273 279.328 253.546C278.848 252.337 278.472 251.088 278.203 249.815Z" fill="#008F77"/>
<path d="M284.408 261.333C286.458 263.147 288.701 264.73 291.098 266.051L290.89 265.949C288.48 264.795 286.287 263.233 284.408 261.333Z" fill="#008F77"/>
<path d="M325.269 282.176L325.593 282.583L301.366 270.972L325.269 282.176Z" fill="#008F77"/>
<path d="M366.703 260.06C366.705 260.096 366.705 260.131 366.703 260.167C366.587 261.556 366.439 262.944 366.24 264.333C366.24 264.333 363.069 268.88 354.203 273.681L354.055 273.384C354.094 273.763 354.065 274.145 353.972 274.514C354.434 269.565 350.509 270.347 350.509 270.347C342.175 271.273 339.86 275.903 339.86 275.903L304.212 247.199L306.064 237.94C289.948 237.046 278.592 230.069 277.86 229.634L277.814 229.63C274.782 227.56 273.647 225.926 273.647 225.926C272.722 203.241 294.018 180.093 302.041 180.245C303.735 180.287 305.414 180.572 307.027 181.093L306.518 180.093C306.518 180.093 318.675 181.134 325.235 178.704L323.647 175.926C324.073 175.62 324.481 175.315 324.884 175V174.764C326.198 173.812 327.462 172.792 328.671 171.708C330.36 170.972 344.999 165.171 357.995 178.236L358.87 177.361L358.143 178.468L344.018 192.13C344.018 192.13 369.944 215.884 366.703 260.06Z" fill="#008F77"/>
<path d="M406.204 357.87L406.106 357.968L406.069 357.87H406.204Z" fill="#008F77"/>
<path d="M147.26 439.815H301.426" stroke="#121212" stroke-width="0.925926" stroke-linecap="round" stroke-linejoin="round"/>
<path d="M322.26 119.444C322.26 119.444 352.815 155.093 323.649 175.926L325.038 178.241" stroke="#121212" stroke-width="0.925926" stroke-linecap="round" stroke-linejoin="round"/>
<path d="M306.519 180.093C306.519 180.093 276.889 184.259 263.463 149.074C250.037 113.889 290.778 92.1297 314.389 105.556C338 118.982 300.963 142.593 300.963 142.593L303.278 149.074L297.259 143.519C297.259 143.519 291.241 140.741 288 149.074C284.759 157.407 295.87 164.815 304.204 160.648C304.204 160.648 296.796 173.148 306.519 180.093Z" stroke="#121212" stroke-width="0.925926" stroke-linecap="round" stroke-linejoin="round"/>
<path d="M316.242 186.574C316.242 186.574 310.071 180.398 302.043 180.245C294.015 180.093 272.723 203.241 273.649 225.926C273.649 225.926 281.983 237.963 313.927 237.963C313.927 237.963 318.094 225.926 315.779 206.019" stroke="#121212" stroke-width="0.925926" stroke-linecap="round" stroke-linejoin="round"/>
<path d="M325.76 282.764C317.711 284.036 309.576 284.691 301.427 284.722C301.427 284.722 298.08 280.982 295.844 268.435" stroke="#121212" stroke-width="0.925926" stroke-linecap="round" stroke-linejoin="round"/>
<path d="M306.519 180.093C306.519 180.093 322.722 181.481 327.815 177.315C327.815 177.315 373.648 206.481 366.241 264.352C366.241 264.352 363.069 268.898 354.204 273.699" stroke="#121212" stroke-width="0.925926" stroke-linecap="round" stroke-linejoin="round"/>
<path d="M279.204 230.556L277.853 242.352C277.298 247.155 278.256 252.011 280.593 256.244C282.93 260.476 286.529 263.874 290.89 265.963L331.982 285.648L345.491 296.069C346.236 296.642 347.163 296.924 348.1 296.863C349.037 296.803 349.919 296.404 350.584 295.741L359.76 286.574C360.311 286.023 360.684 285.319 360.828 284.553C360.973 283.788 360.883 282.996 360.57 282.282L358.371 277.315L349.112 274.537" stroke="#121212" stroke-width="0.925926" stroke-linecap="round" stroke-linejoin="round"/>
<path d="M343.131 278.491L299.575 243.519" stroke="#121212" stroke-width="0.925926" stroke-linecap="round" stroke-linejoin="round"/>
<path d="M306.084 237.968L304.02 247.088" stroke="#121212" stroke-width="0.925926" stroke-linecap="round" stroke-linejoin="round"/>
<path d="M339.853 275.87C341.178 274.283 342.811 272.981 344.652 272.041C346.494 271.102 348.507 270.544 350.57 270.403C351.105 270.378 351.638 270.483 352.124 270.708C352.61 270.934 353.034 271.273 353.361 271.697C353.688 272.122 353.907 272.619 354.001 273.146C354.095 273.674 354.06 274.216 353.899 274.727L353.538 275.87" stroke="#121212" stroke-width="0.925926" stroke-linecap="round" stroke-linejoin="round"/>
<path d="M366.241 264.352C366.241 264.352 386.7 249.417 414.852 255.167C424.459 257.13 430.241 267.019 427.44 276.417L403.278 357.407L371.797 350.463L394.482 273.611" stroke="#121212" stroke-width="0.925926" stroke-linecap="round" stroke-linejoin="round"/>
<path d="M310.686 299.537C310.686 299.537 330.005 341.667 381.686 316.435" stroke="#121212" stroke-width="0.925926" stroke-linecap="round" stroke-linejoin="round"/>
<path d="M301.426 284.722L268.556 363.426" stroke="#121212" stroke-width="0.925926" stroke-linecap="round" stroke-linejoin="round"/>
<path d="M336.782 322.264L290.879 379.296C288.972 381.665 286.702 383.716 284.153 385.375L238.463 415.741L220.407 399.074L273.62 351.301" stroke="#121212" stroke-width="0.925926" stroke-linecap="round" stroke-linejoin="round"/>
<path d="M416.505 374.505L415.695 378.449L375.834 369.681L377.352 362.037L374.315 361.421L376.292 351.82L405.524 357.838C408.307 358.403 410.851 359.801 412.82 361.847C414.419 363.497 415.59 365.513 416.233 367.719C416.875 369.925 416.969 372.254 416.505 374.505Z" fill="#008F77"/>
<path d="M415.695 378.449L414.876 382.445L371.815 373.583L372.755 369.005L374.315 361.421L377.352 362.037L375.834 369.681L415.695 378.449Z" stroke="#121212" stroke-width="0.925926" stroke-linecap="round" stroke-linejoin="round"/>
<path d="M375.834 369.681L372.755 369.005" stroke="#121212" stroke-width="0.925926" stroke-linecap="round" stroke-linejoin="round"/>
<path d="M402.353 375.463C402.353 375.463 403.931 365.366 412.82 361.843" stroke="#121212" stroke-width="0.925926" stroke-linecap="round" stroke-linejoin="round"/>
<path d="M243.44 439.815H237.537L208.907 412.403L211.148 414.352L216.241 408.796L214.18 406.727L220.87 399.537L242.731 419.857C244.088 421.12 245.183 422.639 245.953 424.326C246.723 426.013 247.154 427.836 247.219 429.689C247.285 431.542 246.985 433.391 246.337 435.128C245.688 436.865 244.704 438.458 243.44 439.815Z" fill="#008F77"/>
<path d="M416.505 374.505L415.695 378.449L375.834 369.681L377.352 362.037L374.315 361.421L376.292 351.82L405.524 357.838C408.307 358.403 410.851 359.801 412.82 361.847C414.419 363.497 415.59 365.513 416.233 367.719C416.875 369.925 416.969 372.254 416.505 374.505Z" stroke="#121212" stroke-width="0.925926" stroke-linecap="round" stroke-linejoin="round"/>
<path d="M243.44 439.815H237.537L208.907 412.403L214.18 406.727L220.87 399.537L242.731 419.857C244.088 421.12 245.183 422.639 245.953 424.326C246.723 426.013 247.154 427.836 247.219 429.689C247.285 431.542 246.985 433.391 246.337 435.128C245.688 436.865 244.704 438.458 243.44 439.815Z" stroke="#121212" stroke-width="0.925926" stroke-linecap="round" stroke-linejoin="round"/>
<path d="M237.537 439.815H231.982L205.723 415.829L208.908 412.403L237.537 439.815Z" stroke="#121212" stroke-width="0.925926" stroke-linecap="round" stroke-linejoin="round"/>
<path d="M230.848 433.287C230.848 433.287 237.44 425.472 246.871 427.083" stroke="#121212" stroke-width="0.925926" stroke-linecap="round" stroke-linejoin="round"/>
<path d="M214.181 406.727L216.454 408.833L211.186 414.579" stroke="#121212" stroke-width="0.925926" stroke-linecap="round" stroke-linejoin="round"/>
<path d="M324.112 142.593C325.134 142.593 325.963 141.245 325.963 139.583C325.963 137.921 325.134 136.574 324.112 136.574C323.089 136.574 322.26 137.921 322.26 139.583C322.26 141.245 323.089 142.593 324.112 142.593Z" fill="#121212"/>
<path d="M334.76 142.593C334.76 142.593 341.019 143.055 336.274 148.843" stroke="#121212" stroke-width="0.925926" stroke-linecap="round" stroke-linejoin="round"/>
<path d="M327.352 158.333C327.352 158.333 320.871 167.13 316.704 156.481" stroke="#121212" stroke-width="0.925926" stroke-linecap="round" stroke-linejoin="round"/>
<path d="M309.76 124.537C309.76 124.537 310.686 115.278 318.093 119.444" stroke="#121212" stroke-width="0.925926" stroke-linecap="round" stroke-linejoin="round"/>
<path d="M326.658 150C332.155 150 336.612 145.233 336.612 139.352C336.612 133.471 332.155 128.704 326.658 128.704C321.161 128.704 316.704 133.471 316.704 139.352C316.704 145.233 321.161 150 326.658 150Z" stroke="#121212" stroke-width="0.925926" stroke-linecap="round" stroke-linejoin="round"/>
<path d="M297.26 143.519L316.704 140.741" stroke="#121212" stroke-width="0.925926" stroke-linecap="round" stroke-linejoin="round"/>
<path d="M271.737 352.995L233.501 314.759C231.905 313.163 231.009 310.998 231.009 308.741C231.009 306.483 231.905 304.319 233.501 302.722L280.385 255.843" stroke="#121212" stroke-width="0.925926" stroke-linecap="round" stroke-linejoin="round"/>
<path d="M387.306 376.773L347.427 416.667C345.83 418.262 343.665 419.159 341.408 419.159C339.151 419.159 336.986 418.262 335.39 416.667L294.065 375.343" stroke="#121212" stroke-width="0.925926" stroke-linecap="round" stroke-linejoin="round"/>
<path d="M344.167 192.065L384.824 151.389C386.421 149.793 388.586 148.897 390.843 148.897C393.1 148.897 395.265 149.793 396.861 151.389L498.75 253.296C500.346 254.893 501.242 257.058 501.242 259.315C501.242 261.572 500.346 263.737 498.75 265.333L406.107 357.968" stroke="#121212" stroke-width="0.925926" stroke-linecap="round" stroke-linejoin="round"/>
<path d="M481.237 256.737L393.418 168.918C390.097 165.597 384.712 165.597 381.391 168.918L366.247 184.062C362.925 187.383 362.925 192.768 366.247 196.089L454.065 283.908C457.387 287.229 462.772 287.229 466.093 283.908L481.237 268.764C484.558 265.443 484.558 260.058 481.237 256.737Z" fill="#008F77"/>
<path d="M445.117 261.69C444.404 261.553 443.729 261.265 443.135 260.847C442.439 260.384 441.791 259.852 441.2 259.259C440.493 258.557 439.907 257.742 439.469 256.847C439.04 255.97 438.823 255.004 438.834 254.028C438.862 252.935 439.126 251.861 439.608 250.88C440.231 249.621 441.071 248.482 442.089 247.514C443.08 246.465 444.263 245.616 445.575 245.014C446.595 244.563 447.701 244.339 448.816 244.357C449.796 244.382 450.758 244.623 451.635 245.06C452.472 245.476 453.236 246.023 453.899 246.681C454.498 247.263 455.041 247.898 455.524 248.579C455.855 249.058 456.142 249.566 456.381 250.097L453.899 251.644C453.737 251.206 453.512 250.795 453.233 250.421C452.856 249.918 452.441 249.444 451.992 249.005C451.569 248.551 451.048 248.199 450.469 247.976C449.89 247.753 449.268 247.664 448.649 247.718C447.385 247.815 446.029 248.583 444.594 250.032C444.012 250.606 443.507 251.252 443.089 251.954C442.732 252.553 442.499 253.217 442.404 253.907C442.322 254.552 442.392 255.207 442.608 255.82C442.857 256.489 443.255 257.093 443.77 257.588C444.205 258.042 444.702 258.433 445.246 258.75C445.665 258.988 446.113 259.168 446.58 259.287L445.117 261.69Z" fill="white"/>
<path d="M451.209 256.639C453.234 254.617 455.24 253.505 457.227 253.301C459.215 253.097 461.035 253.823 462.686 255.477C463.484 256.24 464.105 257.17 464.505 258.199C464.851 259.124 464.964 260.119 464.834 261.097C464.687 262.139 464.334 263.142 463.797 264.046C463.169 265.106 462.405 266.079 461.524 266.94C459.499 268.968 457.493 270.079 455.505 270.273C453.518 270.468 451.695 269.744 450.038 268.102C449.226 267.336 448.594 266.4 448.186 265.361C447.842 264.441 447.732 263.45 447.866 262.477C448.021 261.437 448.377 260.437 448.913 259.532C449.549 258.472 450.321 257.499 451.209 256.639ZM453.709 259.134C453.137 259.7 452.622 260.32 452.172 260.986C451.794 261.538 451.508 262.148 451.325 262.792C451.169 263.342 451.153 263.923 451.278 264.482C451.506 265.291 452.021 265.989 452.726 266.446C453.432 266.903 454.28 267.087 455.112 266.963C456.235 266.769 457.536 265.931 459.015 264.449C459.572 263.901 460.075 263.3 460.515 262.653C460.899 262.104 461.194 261.498 461.39 260.857C461.565 260.304 461.592 259.715 461.468 259.148C461.245 258.325 460.724 257.614 460.006 257.153C459.288 256.692 458.425 256.514 457.584 256.653C456.445 256.863 455.153 257.69 453.709 259.134Z" fill="white"/>
<path d="M473.565 264.755C473.226 265.088 472.833 265.362 472.403 265.565C471.942 265.781 471.463 265.957 470.973 266.093C470.47 266.228 469.96 266.334 469.445 266.412C468.931 266.486 468.44 266.546 467.982 266.583L467.056 266.468L467.01 266.514L467.834 267.074L469.686 268.926L468.63 269.977L464.598 265.945L465.241 265.306C465.556 265.306 465.912 265.306 466.32 265.259C466.727 265.213 467.144 265.204 467.579 265.162C468.014 265.12 468.449 265.06 468.889 264.986C469.317 264.92 469.74 264.831 470.158 264.718C470.535 264.613 470.904 264.478 471.26 264.315C471.562 264.174 471.839 263.985 472.079 263.755C472.325 263.527 472.476 263.214 472.5 262.88C472.497 262.695 472.454 262.513 472.374 262.346C472.294 262.179 472.179 262.031 472.037 261.912C471.82 261.7 471.564 261.532 471.283 261.417C471.006 261.294 470.71 261.222 470.408 261.204L470.792 259.815C471.255 259.865 471.708 259.985 472.135 260.171C472.623 260.394 473.065 260.708 473.436 261.097C473.694 261.352 473.911 261.646 474.079 261.968C474.226 262.256 474.313 262.571 474.334 262.894C474.352 263.21 474.298 263.527 474.176 263.82C474.04 264.17 473.832 264.489 473.565 264.755Z" fill="white"/>
<path d="M328.51 171.782C328.51 171.782 344.181 164.352 357.991 178.241" stroke="#121212" stroke-width="0.925926" stroke-linecap="round" stroke-linejoin="round"/>
<path d="M440.778 132.87C440.778 128.696 439.119 124.692 436.167 121.74C433.216 118.788 429.212 117.13 425.037 117.13C429.212 117.13 433.216 115.471 436.167 112.519C439.119 109.567 440.778 105.564 440.778 101.389C440.778 105.564 442.436 109.567 445.388 112.519C448.34 115.471 452.344 117.13 456.519 117.13C452.344 117.13 448.34 118.788 445.388 121.74C442.436 124.692 440.778 128.696 440.778 132.87Z" fill="#008F77"/>
<path d="M372.722 432.87C372.722 428.695 371.064 424.692 368.112 421.74C365.16 418.788 361.156 417.129 356.981 417.129C361.156 417.129 365.16 415.471 368.112 412.519C371.064 409.567 372.722 405.563 372.722 401.389C372.722 405.563 374.381 409.567 377.333 412.519C380.285 415.471 384.288 417.129 388.463 417.129C384.288 417.129 380.285 418.788 377.333 421.74C374.381 424.692 372.722 428.695 372.722 432.87Z" fill="#008F77"/>
<path d="M472.26 170.37C472.26 167.424 471.089 164.597 469.005 162.514C466.921 160.43 464.095 159.259 461.148 159.259C464.095 159.259 466.921 158.089 469.005 156.005C471.089 153.921 472.26 151.095 472.26 148.148C472.26 151.095 473.43 153.921 475.514 156.005C477.598 158.089 480.424 159.259 483.371 159.259C480.424 159.259 477.598 160.43 475.514 162.514C473.43 164.597 472.26 167.424 472.26 170.37Z" fill="#008F77"/>
<path d="M414.389 160.648C419.482 145.833 411.236 134.75 393.324 139.583C406.982 92.1296 375.963 68.5185 337.074 83.3333" stroke="#D6E5E3" stroke-width="0.925926" stroke-linecap="round" stroke-linejoin="round"/>
<path d="M273.648 62.0371C288 45.8334 305.13 57.8704 301.426 73.6111" stroke="#D6E5E3" stroke-width="0.925926" stroke-linecap="round" stroke-linejoin="round"/>
<path d="M199.574 121.296C220.407 93.9815 191.241 66.6667 163.495 84.6945C177.213 57.4908 172.634 35.3149 157.657 24.5371" stroke="#D6E5E3" stroke-width="0.925926" stroke-linecap="round" stroke-linejoin="round"/>
<path d="M404.005 385.366C408.125 392.389 410.338 401.417 409.597 412.403C428.278 389.352 456.519 399.537 456.519 426.852" stroke="#D6E5E3" stroke-width="0.925926" stroke-linecap="round" stroke-linejoin="round"/>
<path d="M247.26 349.537C240.779 343.982 229.668 349.074 231.01 358.917C211.149 338.426 181.982 352.778 194.83 379.806C169.945 349.537 125.038 369.444 144.482 410.648" stroke="#D6E5E3" stroke-width="0.925926" stroke-linecap="round" stroke-linejoin="round"/>
<path d="M226.426 111.111H253.741" stroke="#D6E5E3" stroke-width="0.925926" stroke-linecap="round" stroke-linejoin="round"/>
<path d="M140.777 139.671H230.129" stroke="#D6E5E3" stroke-width="0.925926" stroke-linecap="round" stroke-linejoin="round"/>
<path d="M104.666 174.625H264.851" stroke="#D6E5E3" stroke-width="0.925926" stroke-linecap="round" stroke-linejoin="round"/>
<path d="M119.944 220.69H250.963" stroke="#D6E5E3" stroke-width="0.925926" stroke-linecap="round" stroke-linejoin="round"/>
<path d="M234 476H517" stroke="#121212" stroke-width="0.925926" stroke-linecap="round" stroke-linejoin="round"/>
<path d="M99.5742 311.653H222.722" stroke="#D6E5E3" stroke-width="0.925926" stroke-linecap="round" stroke-linejoin="round"/>
<path d="M128.713 418.843C129.387 419.14 130.121 419.273 130.856 419.233C131.592 419.193 132.307 418.98 132.944 418.611C135.431 417.185 137.778 414.264 137.991 408.324C138.282 400.176 131.431 397.884 126.31 397.31C127.056 392.505 127.699 379.542 113 379.167C94.9444 378.704 105.13 404.167 105.13 404.167C105.13 404.167 86.6342 436.634 106.574 442.931L106.519 443.056V448.148C106.519 448.148 120.87 453.241 130.593 450.926C134.231 450.06 135.343 448.481 135.306 446.843C137.914 447.028 140.536 446.844 143.093 446.296C152.815 443.981 144.481 436.574 144.481 436.574C144.481 436.574 144.019 418.518 125.037 425L127.958 431.264" fill="#F5F9F8"/>
<path d="M131.982 416.667L130.644 419.236C130.644 419.236 131.107 422.699 129.468 423.838L130.13 425.463" fill="#F5F9F8"/>
<path d="M103.426 384.176C103.426 384.176 91.2405 380.092 87.5368 386.111C83.8331 392.129 80.1294 409.259 81.5183 410.648C82.9072 412.037 93.5553 404.166 99.1109 393.055L103.426 384.176Z" fill="#F5F9F8"/>
<path d="M106.982 374.074L115.014 379.31C115.014 379.31 111.148 365.278 105.593 362.5C100.037 359.722 78.7408 368.981 79.2037 371.296C79.6667 373.611 94.0185 375.463 106.982 374.074Z" fill="#F5F9F8"/>
<path d="M114.851 379.167L108.832 371.296L100.036 372.222L100.175 374.519L107.374 380.158L109.758 381.482" fill="#F5F9F8"/>
<path d="M96.3332 395.833L103.741 393.518L102.352 385.185L94.9443 389.352L96.3332 395.833Z" fill="#F5F9F8"/>
<path d="M130.592 416.667C130.592 416.667 131.981 425 126.426 425.926C120.87 426.852 120.87 416.667 120.87 416.667H130.592Z" fill="#F5F9F8"/>
<path d="M125.963 399.074C125.963 399.074 131.055 379.63 113 379.167C94.9442 378.704 105.129 404.167 105.129 404.167C105.129 404.167 82.4442 443.981 114.389 443.981" stroke="#121212" stroke-width="0.925926" stroke-linecap="round" stroke-linejoin="round"/>
<path d="M106.519 443.055V448.148C106.519 448.148 120.87 453.241 130.593 450.926C140.315 448.611 131.982 441.204 131.982 441.204C131.982 441.204 131.519 423.148 112.537 429.63" stroke="#121212" stroke-width="0.925926" stroke-linecap="round" stroke-linejoin="round"/>
<path d="M135.222 446.838C137.858 447.033 140.508 446.85 143.093 446.296C152.815 443.981 144.482 436.574 144.482 436.574C144.482 436.574 144.019 418.518 125.037 425" stroke="#121212" stroke-width="0.925926" stroke-linecap="round" stroke-linejoin="round"/>
<path d="M113 401.389C113 401.389 130.593 399.537 130.13 412.5C129.917 418.44 127.565 421.366 125.079 422.796C124.426 423.165 123.696 423.375 122.947 423.41C122.198 423.444 121.452 423.302 120.768 422.995C120.084 422.687 119.483 422.224 119.011 421.641C118.54 421.057 118.213 420.372 118.056 419.639L116.704 413.426" stroke="#121212" stroke-width="0.925926" stroke-linecap="round" stroke-linejoin="round"/>
<path d="M126.311 397.31C131.431 397.884 138.283 400.176 137.991 408.324C137.778 414.264 135.431 417.185 132.945 418.611C132.307 418.981 131.591 419.195 130.855 419.235C130.118 419.275 129.383 419.141 128.709 418.842" stroke="#121212" stroke-width="0.925926" stroke-linecap="round" stroke-linejoin="round"/>
<path d="M130.644 419.236C130.644 419.236 131.107 422.699 129.468 423.838" stroke="#121212" stroke-width="0.925926" stroke-linecap="round" stroke-linejoin="round"/>
<path d="M103.427 384.176C103.427 384.176 91.2415 380.092 87.5378 386.111C83.8341 392.129 80.1304 409.259 81.5192 410.648C82.9081 412.037 93.5563 404.166 99.1118 393.055" stroke="#121212" stroke-width="0.925926" stroke-linecap="round" stroke-linejoin="round"/>
<path d="M102.5 393.861L97.8564 395.37" stroke="#121212" stroke-width="0.925926" stroke-linecap="round" stroke-linejoin="round"/>
<path d="M115.014 379.31C115.014 379.31 111.148 365.278 105.593 362.5C100.037 359.722 78.7408 368.981 79.2037 371.296C79.6667 373.611 94.0185 375.463 106.981 374.074" stroke="#121212" stroke-width="0.925926" stroke-linecap="round" stroke-linejoin="round"/>
<path d="M107.375 380.157C107.375 380.157 104.949 375.426 100.176 374.537" stroke="#121212" stroke-width="0.925926" stroke-linecap="round" stroke-linejoin="round"/>
<path d="M109.779 393.606C110.492 393.33 110.697 392.143 110.237 390.954C109.777 389.765 108.825 389.025 108.112 389.301C107.399 389.577 107.193 390.765 107.654 391.954C108.114 393.143 109.065 393.882 109.779 393.606Z" fill="#121212"/>
<path d="M117.653 389.945C118.366 389.669 118.571 388.481 118.111 387.292C117.651 386.103 116.699 385.363 115.986 385.639C115.273 385.915 115.067 387.103 115.528 388.292C115.988 389.481 116.939 390.221 117.653 389.945Z" fill="#121212"/>
<path d="M113 396.296L120.87 392.593" stroke="#121212" stroke-width="0.925926" stroke-linecap="round" stroke-linejoin="round"/>
<path d="M115.014 395.347L116.703 398.148L119.944 396.759L118.745 393.593" stroke="#121212" stroke-width="0.925926" stroke-linecap="round" stroke-linejoin="round"/>
<path d="M116.936 394.444L118.338 397.449" stroke="#121212" stroke-width="0.925926" stroke-linecap="round" stroke-linejoin="round"/>
<path d="M124.111 362.963C124.111 362.963 130.593 362.037 129.667 365.741C128.741 369.444 122.722 368.055 125.037 373.148" stroke="#121212" stroke-width="0.925926" stroke-linecap="round" stroke-linejoin="round"/>
<path d="M138.926 372.222L134.76 379.167" stroke="#121212" stroke-width="0.925926" stroke-linecap="round" stroke-linejoin="round"/>
<path d="M125.963 376.389C126.474 376.389 126.889 375.974 126.889 375.463C126.889 374.952 126.474 374.537 125.963 374.537C125.452 374.537 125.037 374.952 125.037 375.463C125.037 375.974 125.452 376.389 125.963 376.389Z" fill="#121212"/>
<path d="M133.37 382.408C133.882 382.408 134.296 381.993 134.296 381.482C134.296 380.97 133.882 380.556 133.37 380.556C132.859 380.556 132.444 380.97 132.444 381.482C132.444 381.993 132.859 382.408 133.37 382.408Z" fill="#121212"/>
</g>
</g>
<defs>
<clipPath id="clip0_6916_59558">
<rect width="576" height="500" rx="23" fill="white"/>
</clipPath>
<clipPath id="clip1_6916_59558">
<rect width="579" height="500" fill="white" transform="translate(-3)"/>
</clipPath>
</defs>
</svg>
