<svg width="1200" height="500" viewBox="0 0 1200 500" fill="none" xmlns="http://www.w3.org/2000/svg">
<rect width="1200" height="500" rx="27" fill="#F5FAF8"/>
<path d="M638.264 235.635C634.51 236.307 631.113 238.279 628.667 241.204C626.22 244.129 624.881 247.822 624.882 251.635C624.885 252.603 624.972 253.569 625.144 254.521C621.452 254.674 617.923 256.086 615.146 258.523C613.386 256.272 611.135 254.453 608.566 253.204C605.996 251.955 603.175 251.309 600.318 251.316C599.936 251.316 599.56 251.316 599.184 251.348" stroke="#D6E5E3" stroke-width="1.27442" stroke-linecap="round" stroke-linejoin="round"/>
<path d="M582.158 265.335C581.864 266.31 581.68 267.315 581.61 268.33C577.569 269.219 573.934 271.416 571.268 274.581C568.602 277.745 567.055 281.701 566.865 285.834C562.349 284.71 557.608 284.86 553.172 286.268C552.205 282.817 550.515 279.612 548.213 276.865C545.911 274.118 543.051 271.893 539.822 270.338" stroke="#D6E5E3" stroke-width="1.27442" stroke-linecap="round" stroke-linejoin="round"/>
<path d="M362.32 276.805C348.416 276.805 338.106 288.071 338.106 301.974C338.106 302.089 338.106 302.204 338.106 302.319C336.658 301.889 335.155 301.674 333.645 301.681C329.654 301.676 325.819 303.236 322.966 306.027" stroke="#D6E5E3" stroke-width="1.27442" stroke-linecap="round" stroke-linejoin="round"/>
<path d="M280.076 253.865V204.8H204.293V355.819" stroke="#D6E5E3" stroke-width="1.27442" stroke-linecap="round" stroke-linejoin="round"/>
<path d="M208.753 200.34V193.33H275.66V200.34" stroke="#D6E5E3" stroke-width="1.27442" stroke-linecap="round" stroke-linejoin="round"/>
<path d="M213.493 188.87V185.047H270.562V188.87" stroke="#D6E5E3" stroke-width="1.27442" stroke-linecap="round" stroke-linejoin="round"/>
<path d="M239.128 180.586V174.851H245.073V180.586" stroke="#D6E5E3" stroke-width="1.27442" stroke-linecap="round" stroke-linejoin="round"/>
<path d="M242.206 170.391V137.893" stroke="#D6E5E3" stroke-width="1.27442" stroke-linecap="round" stroke-linejoin="round"/>
<path d="M217.037 210.535H210.027V219.456H217.037V210.535Z" stroke="#D6E5E3" stroke-width="1.27442" stroke-linecap="round" stroke-linejoin="round"/>
<path d="M217.037 239.21H210.027V248.131H217.037V239.21Z" stroke="#D6E5E3" stroke-width="1.27442" stroke-linecap="round" stroke-linejoin="round"/>
<path d="M217.037 267.884H210.027V276.805H217.037V267.884Z" stroke="#D6E5E3" stroke-width="1.27442" stroke-linecap="round" stroke-linejoin="round"/>
<path d="M410.749 206.074H403.739V214.995H410.749V206.074Z" stroke="#D6E5E3" stroke-width="1.27442" stroke-linecap="round" stroke-linejoin="round"/>
<path d="M373.79 237.298H366.78V246.219H373.79V237.298Z" stroke="#D6E5E3" stroke-width="1.27442" stroke-linecap="round" stroke-linejoin="round"/>
<path d="M405.498 269.158H403.739V260.237H410.749V261.225" stroke="#D6E5E3" stroke-width="1.27442" stroke-linecap="round" stroke-linejoin="round"/>
<path d="M373.79 291.461H366.78V300.382H373.79V291.461Z" stroke="#D6E5E3" stroke-width="1.27442" stroke-linecap="round" stroke-linejoin="round"/>
<path d="M362.108 301.019V180.586H415.844V231.563" stroke="#D6E5E3" stroke-width="1.27442" stroke-linecap="round" stroke-linejoin="round"/>
<path d="M376.27 176.126V140.442L396.373 120.332V176.126" stroke="#D6E5E3" stroke-width="1.27442" stroke-linecap="round" stroke-linejoin="round"/>
<path d="M402.605 176.126V151.912L412.094 161.4V176.126" stroke="#D6E5E3" stroke-width="1.27442" stroke-linecap="round" stroke-linejoin="round"/>
<path d="M362.108 190.903H415.844" stroke="#D6E5E3" stroke-width="1.27442" stroke-linecap="round" stroke-linejoin="round"/>
<path d="M362.108 196.637H415.844" stroke="#D6E5E3" stroke-width="1.27442" stroke-linecap="round" stroke-linejoin="round"/>
<path d="M386.323 196.835V355.819H388.974V196.516" stroke="#D6E5E3" stroke-width="1.27442" stroke-linecap="round" stroke-linejoin="round"/>
<path d="M907.134 248.13H900.125V257.051H907.134V248.13Z" stroke="#D6E5E3" stroke-width="1.27442" stroke-linecap="round" stroke-linejoin="round"/>
<path d="M876.547 248.13H869.538V257.051H876.547V248.13Z" stroke="#D6E5E3" stroke-width="1.27442" stroke-linecap="round" stroke-linejoin="round"/>
<path d="M913.506 237.298L888.018 221.367L862.529 237.298H913.506ZM913.506 237.298V276.167" stroke="#D6E5E3" stroke-width="1.27442" stroke-linecap="round" stroke-linejoin="round"/>
<path d="M913.506 241.758H862.529" stroke="#D6E5E3" stroke-width="1.27442" stroke-linecap="round" stroke-linejoin="round"/>
<path d="M935.172 276.167V207.986H901.4V225.191" stroke="#D6E5E3" stroke-width="1.27442" stroke-linecap="round" stroke-linejoin="round"/>
<path d="M903.948 203.525V197.791H932.623V203.525" stroke="#D6E5E3" stroke-width="1.27442" stroke-linecap="round" stroke-linejoin="round"/>
<path d="M917.967 193.33V178.674" stroke="#D6E5E3" stroke-width="1.27442" stroke-linecap="round" stroke-linejoin="round"/>
<path d="M918.285 280.628V355.819" stroke="#121212" stroke-width="1.27442" stroke-linecap="round" stroke-linejoin="round"/>
<path d="M928.163 280.628V355.819" stroke="#121212" stroke-width="1.27442" stroke-linecap="round" stroke-linejoin="round"/>
<path d="M918.285 286.529H928.162" stroke="#121212" stroke-width="1.27442" stroke-linecap="round" stroke-linejoin="round"/>
<path d="M918.285 292.9H928.162" stroke="#121212" stroke-width="1.27442" stroke-linecap="round" stroke-linejoin="round"/>
<path d="M918.285 299.273H928.162" stroke="#121212" stroke-width="1.27442" stroke-linecap="round" stroke-linejoin="round"/>
<path d="M918.285 305.645H928.162" stroke="#121212" stroke-width="1.27442" stroke-linecap="round" stroke-linejoin="round"/>
<path d="M918.285 312.017H928.162" stroke="#121212" stroke-width="1.27442" stroke-linecap="round" stroke-linejoin="round"/>
<path d="M918.285 318.389H928.162" stroke="#121212" stroke-width="1.27442" stroke-linecap="round" stroke-linejoin="round"/>
<path d="M918.285 324.761H928.162" stroke="#121212" stroke-width="1.27442" stroke-linecap="round" stroke-linejoin="round"/>
<path d="M918.285 331.133H928.162" stroke="#121212" stroke-width="1.27442" stroke-linecap="round" stroke-linejoin="round"/>
<path d="M918.285 337.505H928.162" stroke="#121212" stroke-width="1.27442" stroke-linecap="round" stroke-linejoin="round"/>
<path d="M918.285 343.877H928.162" stroke="#121212" stroke-width="1.27442" stroke-linecap="round" stroke-linejoin="round"/>
<path d="M918.285 350.249H928.162" stroke="#121212" stroke-width="1.27442" stroke-linecap="round" stroke-linejoin="round"/>
<path d="M823.024 355.819H1004.63" stroke="#121212" stroke-width="1.27442" stroke-linecap="round" stroke-linejoin="round"/>
<path d="M770.135 355.819H791.163" stroke="#121212" stroke-width="1.27442" stroke-linecap="round" stroke-linejoin="round"/>
<path d="M189 355.819H392.748" stroke="#121212" stroke-width="1.27442" stroke-linecap="round" stroke-linejoin="round"/>
<path d="M368.054 313.126C368.054 304.68 361.207 297.833 352.761 297.833C344.315 297.833 337.468 304.68 337.468 313.126V328.419C337.468 336.865 344.315 343.712 352.761 343.712C361.207 343.712 368.054 336.865 368.054 328.419V313.126Z" fill="#008F77"/>
<path d="M238.064 313.126C238.064 304.68 231.217 297.833 222.771 297.833C214.324 297.833 207.478 304.68 207.478 313.126V328.419C207.478 336.865 214.324 343.712 222.771 343.712C231.217 343.712 238.064 336.865 238.064 328.419V313.126Z" fill="#008F77"/>
<path d="M324.726 313.126C324.726 304.68 317.879 297.833 309.433 297.833C300.987 297.833 294.14 304.68 294.14 313.126V328.419C294.14 336.865 300.987 343.712 309.433 343.712C317.879 343.712 324.726 336.865 324.726 328.419V313.126Z" fill="#008F77"/>
<path d="M819.2 313.126C819.2 304.68 812.353 297.833 803.907 297.833C795.461 297.833 788.614 304.68 788.614 313.126V328.419C788.614 336.865 795.461 343.712 803.907 343.712C812.353 343.712 819.2 336.865 819.2 328.419V313.126Z" fill="#008F77"/>
<path d="M900.124 313.126C900.124 304.68 893.277 297.833 884.831 297.833C876.385 297.833 869.538 304.68 869.538 313.126V328.419C869.538 336.865 876.385 343.712 884.831 343.712C893.277 343.712 900.124 336.865 900.124 328.419V313.126Z" fill="#008F77"/>
<path d="M973.403 313.126C973.403 304.68 966.557 297.833 958.11 297.833C949.664 297.833 942.817 304.68 942.817 313.126V328.419C942.817 336.865 949.664 343.712 958.11 343.712C966.557 343.712 973.403 336.865 973.403 328.419V313.126Z" fill="#008F77"/>
<path d="M1011 313.126C1011 304.68 1004.15 297.833 995.707 297.833C987.261 297.833 980.414 304.68 980.414 313.126V328.419C980.414 336.865 987.261 343.712 995.707 343.712C1004.15 343.712 1011 336.865 1011 328.419V313.126Z" fill="#008F77"/>
<path d="M238.064 313.126C238.064 304.68 231.217 297.833 222.771 297.833C214.324 297.833 207.478 304.68 207.478 313.126V328.419C207.478 336.865 214.324 343.712 222.771 343.712C231.217 343.712 238.064 336.865 238.064 328.419V313.126Z" stroke="#121212" stroke-width="1.27442" stroke-linecap="round" stroke-linejoin="round"/>
<path d="M222.771 332.242V355.819" stroke="#121212" stroke-width="1.27442" stroke-linecap="round" stroke-linejoin="round"/>
<path d="M324.726 313.126C324.726 304.68 317.879 297.833 309.433 297.833C300.987 297.833 294.14 304.68 294.14 313.126V328.419C294.14 336.865 300.987 343.712 309.433 343.712C317.879 343.712 324.726 336.865 324.726 328.419V313.126Z" stroke="#121212" stroke-width="1.27442" stroke-linecap="round" stroke-linejoin="round"/>
<path d="M309.432 332.242V355.819" stroke="#121212" stroke-width="1.27442" stroke-linecap="round" stroke-linejoin="round"/>
<path d="M368.054 313.126C368.054 304.68 361.207 297.833 352.761 297.833C344.315 297.833 337.468 304.68 337.468 313.126V328.419C337.468 336.865 344.315 343.712 352.761 343.712C361.207 343.712 368.054 336.865 368.054 328.419V313.126Z" stroke="#121212" stroke-width="1.27442" stroke-linecap="round" stroke-linejoin="round"/>
<path d="M352.763 332.242V355.819" stroke="#121212" stroke-width="1.27442" stroke-linecap="round" stroke-linejoin="round"/>
<path d="M819.2 313.126C819.2 304.68 812.353 297.833 803.907 297.833C795.461 297.833 788.614 304.68 788.614 313.126V328.419C788.614 336.865 795.461 343.712 803.907 343.712C812.353 343.712 819.2 336.865 819.2 328.419V313.126Z" stroke="#121212" stroke-width="1.27442" stroke-linecap="round" stroke-linejoin="round"/>
<path d="M803.905 332.242V351.358" stroke="#121212" stroke-width="1.27442" stroke-linecap="round" stroke-linejoin="round"/>
<path d="M900.124 313.126C900.124 304.68 893.277 297.833 884.831 297.833C876.385 297.833 869.538 304.68 869.538 313.126V328.419C869.538 336.865 876.385 343.712 884.831 343.712C893.277 343.712 900.124 336.865 900.124 328.419V313.126Z" stroke="#121212" stroke-width="1.27442" stroke-linecap="round" stroke-linejoin="round"/>
<path d="M884.832 332.242V355.819" stroke="#121212" stroke-width="1.27442" stroke-linecap="round" stroke-linejoin="round"/>
<path d="M973.403 313.126C973.403 304.68 966.557 297.833 958.11 297.833C949.664 297.833 942.817 304.68 942.817 313.126V328.419C942.817 336.865 949.664 343.712 958.11 343.712C966.557 343.712 973.403 336.865 973.403 328.419V313.126Z" stroke="#121212" stroke-width="1.27442" stroke-linecap="round" stroke-linejoin="round"/>
<path d="M958.111 332.242V355.819" stroke="#121212" stroke-width="1.27442" stroke-linecap="round" stroke-linejoin="round"/>
<path d="M1011 313.126C1011 304.68 1004.15 297.833 995.707 297.833C987.261 297.833 980.414 304.68 980.414 313.126V328.419C980.414 336.865 987.261 343.712 995.707 343.712C1004.15 343.712 1011 336.865 1011 328.419V313.126Z" stroke="#121212" stroke-width="1.27442" stroke-linecap="round" stroke-linejoin="round"/>
<path d="M995.706 332.242V355.819" stroke="#121212" stroke-width="1.27442" stroke-linecap="round" stroke-linejoin="round"/>
<path d="M321.54 337.76V355.819" stroke="#121212" stroke-width="1.27442" stroke-linecap="round" stroke-linejoin="round"/>
<path d="M228.398 298.884C228.398 277.525 228.341 258.326 228.341 258.326H290.908L321.539 288.956V303.791" stroke="#121212" stroke-width="1.27442" stroke-linecap="round" stroke-linejoin="round"/>
<path d="M290.953 258.326V355.819" stroke="#121212" stroke-width="1.27442" stroke-linecap="round" stroke-linejoin="round"/>
<path d="M284.981 258.326V355.819" stroke="#121212" stroke-width="1.27442" stroke-linecap="round" stroke-linejoin="round"/>
<path d="M278.209 267.884H271.2V276.805H278.209V267.884Z" fill="#008F77"/>
<path d="M854.883 171.665H847.874V180.586H854.883V171.665Z" fill="#008F77"/>
<path d="M854.883 210.535H847.874V219.456H854.883V210.535Z" fill="#008F77"/>
<path d="M854.883 249.405H847.874V258.326H854.883V249.405Z" fill="#008F77"/>
<path d="M854.883 288.274H847.874V297.195H854.883V288.274Z" fill="#008F77"/>
<path d="M262.277 267.884H255.268V276.805H262.277V267.884Z" fill="#008F77"/>
<path d="M278.209 299.107H271.2V308.028H278.209V299.107Z" fill="#008F77"/>
<path d="M262.277 299.107H255.268V308.028H262.277V299.107Z" fill="#008F77"/>
<path d="M278.209 330.331H271.2V339.251H278.209V330.331Z" fill="#008F77"/>
<path d="M262.277 330.331H255.268V339.251H262.277V330.331Z" fill="#008F77"/>
<path d="M278.209 267.884H271.2V276.805H278.209V267.884Z" stroke="#121212" stroke-width="1.27442" stroke-linecap="round" stroke-linejoin="round"/>
<path d="M854.883 171.665H847.874V180.586H854.883V171.665Z" stroke="#121212" stroke-width="1.27442" stroke-linecap="round" stroke-linejoin="round"/>
<path d="M854.883 210.535H847.874V219.456H854.883V210.535Z" stroke="#121212" stroke-width="1.27442" stroke-linecap="round" stroke-linejoin="round"/>
<path d="M854.883 249.405H847.874V258.326H854.883V249.405Z" stroke="#121212" stroke-width="1.27442" stroke-linecap="round" stroke-linejoin="round"/>
<path d="M854.883 288.274H847.874V297.195H854.883V288.274Z" stroke="#121212" stroke-width="1.27442" stroke-linecap="round" stroke-linejoin="round"/>
<path d="M262.277 267.884H255.268V276.805H262.277V267.884Z" stroke="#121212" stroke-width="1.27442" stroke-linecap="round" stroke-linejoin="round"/>
<path d="M278.209 299.107H271.2V308.028H278.209V299.107Z" stroke="#121212" stroke-width="1.27442" stroke-linecap="round" stroke-linejoin="round"/>
<path d="M262.277 299.107H255.268V308.028H262.277V299.107Z" stroke="#121212" stroke-width="1.27442" stroke-linecap="round" stroke-linejoin="round"/>
<path d="M278.209 330.331H271.2V339.251H278.209V330.331Z" stroke="#121212" stroke-width="1.27442" stroke-linecap="round" stroke-linejoin="round"/>
<path d="M262.277 330.331H255.268V339.251H262.277V330.331Z" stroke="#121212" stroke-width="1.27442" stroke-linecap="round" stroke-linejoin="round"/>
<path d="M824.577 355.819V180.586L767.885 237.285" stroke="#121212" stroke-width="1.27442" stroke-linecap="round" stroke-linejoin="round"/>
<path d="M824.577 186.958L766.909 244.626" stroke="#121212" stroke-width="1.27442" stroke-linecap="round" stroke-linejoin="round"/>
<path d="M769.777 241.758V325.233" stroke="#121212" stroke-width="1.27442" stroke-linecap="round" stroke-linejoin="round"/>
<path d="M814.905 339.041V351.358" stroke="#121212" stroke-width="1.27442" stroke-linecap="round" stroke-linejoin="round"/>
<path d="M814.905 196.637V302.503" stroke="#121212" stroke-width="1.27442" stroke-linecap="round" stroke-linejoin="round"/>
<path d="M792.079 207.986V164.764C792.079 158.483 794.574 152.458 799.016 148.017C803.458 143.575 809.482 141.079 815.764 141.079H838.844C841.954 141.079 845.034 141.692 847.908 142.882C850.781 144.073 853.392 145.817 855.592 148.017C857.791 150.216 859.536 152.827 860.726 155.701C861.916 158.574 862.529 161.654 862.529 164.764V355.819" stroke="#121212" stroke-width="1.27442" stroke-linecap="round" stroke-linejoin="round"/>
<path d="M792.437 164.656H862.53" stroke="#121212" stroke-width="1.27442" stroke-linecap="round" stroke-linejoin="round"/>
<path d="M992.521 343.712V355.819" stroke="#121212" stroke-width="1.27442" stroke-linecap="round" stroke-linejoin="round"/>
<path d="M902.743 355.819V280.628H992.52V298.164" stroke="#121212" stroke-width="1.27442" stroke-linecap="round" stroke-linejoin="round"/>
<path d="M958.111 276.167V253.865L976.909 235.067V276.167" stroke="#121212" stroke-width="1.27442" stroke-linecap="round" stroke-linejoin="round"/>
<path d="M1001.12 342.724V355.819" stroke="#121212" stroke-width="1.27442" stroke-linecap="round" stroke-linejoin="round"/>
<path d="M982.326 276.168V243.033L1001.12 224.235V298.82" stroke="#121212" stroke-width="1.27442" stroke-linecap="round" stroke-linejoin="round"/>
<path d="M967.669 239.846V219.112C967.671 216.454 968.617 213.884 970.339 211.86C973.642 207.984 975.407 203.03 975.3 197.939C975.194 192.847 973.222 187.972 969.759 184.237C966.479 180.696 964.532 176.125 964.252 171.307C963.972 166.488 965.376 161.722 968.223 157.825L973.442 150.688C976.027 147.152 977.429 142.89 977.449 138.51C977.468 134.129 976.104 129.855 973.55 126.296L968.395 119.102C965.523 115.095 964.167 110.198 964.57 105.285C964.972 100.371 967.107 95.7608 970.594 92.2752L977.227 85.6418" stroke="#D6E5E3" stroke-width="1.27442" stroke-linecap="round" stroke-linejoin="round"/>
<path d="M991.884 229.014V210.898C991.882 203.994 993.79 197.223 997.396 191.336L1002.78 182.542C1005.15 178.669 1006.2 174.131 1005.77 169.61C1005.35 165.089 1003.46 160.828 1000.41 157.468C997.837 154.638 996.087 151.159 995.348 147.407C994.609 143.655 994.909 139.773 996.217 136.179L1001.83 120.733C1003.63 115.788 1003.5 110.348 1001.48 105.491L995.707 91.5677C994.522 88.7176 993.979 85.6416 994.117 82.5581C994.255 79.4745 995.069 76.4591 996.504 73.7259L1004.63 58.2417" stroke="#D6E5E3" stroke-width="1.27442" stroke-linecap="round" stroke-linejoin="round"/>
<path d="M348.94 122.6C347.078 122.6 345.234 122.954 343.505 123.645C343.162 122.583 342.572 121.619 341.782 120.831C340.992 120.044 340.026 119.456 338.964 119.117C337.901 118.778 336.773 118.698 335.674 118.882C334.574 119.067 333.534 119.511 332.64 120.178C331.209 117.63 328.945 115.651 326.228 114.573C323.511 113.495 320.506 113.384 317.717 114.259C315.276 110.308 311.614 107.261 307.285 105.58C302.956 103.898 298.197 103.674 293.73 104.942C289.262 106.209 285.33 108.899 282.529 112.603C279.729 116.307 278.212 120.823 278.21 125.467C278.213 126.448 278.281 127.427 278.414 128.398C276.75 127.806 274.977 127.585 273.22 127.751C271.462 127.916 269.761 128.464 268.238 129.356C266.714 130.248 265.404 131.463 264.399 132.914C263.394 134.366 262.719 136.02 262.421 137.761C262.123 139.501 262.209 141.285 262.673 142.989C263.138 144.692 263.969 146.273 265.109 147.622C266.249 148.97 267.67 150.053 269.273 150.794C270.876 151.535 272.621 151.916 274.386 151.911H348.94C352.827 151.911 356.555 150.367 359.303 147.619C362.052 144.87 363.596 141.142 363.596 137.256C363.596 133.369 362.052 129.641 359.303 126.892C356.555 124.144 352.827 122.6 348.94 122.6Z" stroke="#D6E5E3" stroke-width="1.27442" stroke-linecap="round" stroke-linejoin="round"/>
<path d="M819.2 113.042C819.2 116.929 820.744 120.657 823.493 123.405C826.241 126.154 829.969 127.698 833.856 127.698H908.409C910.175 127.702 911.92 127.321 913.523 126.58C915.126 125.839 916.547 124.756 917.687 123.408C918.827 122.06 919.658 120.479 920.123 118.775C920.587 117.072 920.673 115.287 920.375 113.547C920.077 111.807 919.402 110.153 918.397 108.701C917.392 107.249 916.082 106.034 914.558 105.142C913.035 104.25 911.334 103.703 909.576 103.537C907.819 103.372 906.046 103.593 904.382 104.185C904.515 103.213 904.583 102.234 904.586 101.254C904.584 96.6098 903.067 92.0934 900.267 88.3894C897.466 84.6854 893.533 81.9957 889.066 80.7282C884.599 79.4608 879.84 79.6847 875.511 81.366C871.182 83.0473 867.52 86.0944 865.079 90.045C862.291 89.1723 859.288 89.2842 856.572 90.3619C853.856 91.4395 851.593 93.4176 850.162 95.9647C849.269 95.3042 848.232 94.8655 847.136 94.6847C846.04 94.5039 844.916 94.5862 843.859 94.9247C842.801 95.2633 841.838 95.8484 841.051 96.6319C840.263 97.4154 839.673 98.3748 839.33 99.4311C837.104 98.5351 834.693 98.1991 832.307 98.4527C829.921 98.7063 827.634 99.5417 825.647 100.886C823.659 102.229 822.032 104.041 820.908 106.16C819.784 108.28 819.198 110.643 819.2 113.042Z" stroke="#D6E5E3" stroke-width="1.27442" stroke-linecap="round" stroke-linejoin="round"/>
<path d="M614.655 88.1907C635.418 88.1907 652.25 71.3587 652.25 50.5953C652.25 29.832 635.418 13 614.655 13C593.892 13 577.06 29.832 577.06 50.5953C577.06 71.3587 593.892 88.1907 614.655 88.1907Z" stroke="#D6E5E3" stroke-width="1.27442" stroke-linecap="round" stroke-linejoin="round"/>
<path d="M387.808 346.898C387.808 346.898 385.259 292.098 412.659 258.963L408.199 256.414C408.199 256.414 427.315 211.172 434.961 198.428C442.608 185.684 452.166 169.116 487.85 187.595C487.85 187.595 492.31 198.428 506.966 196.516C506.966 196.516 525.445 207.349 528.631 221.368C528.631 221.368 539.464 227.74 540.101 284.451C540.101 284.451 525.126 272.026 510.471 279.672C495.815 287.319 477.973 297.514 477.973 297.514L460.768 284.77L462.68 274.575C462.68 274.575 431.457 271.388 421.261 263.105C421.261 263.105 416.164 291.142 416.801 294.965C417.438 298.788 418.075 304.523 434.643 321.091L387.808 346.898Z" fill="#008F77"/>
<path d="M671.366 278.717C671.366 278.717 654.48 279.08 654.48 274.575C654.48 273.938 650.657 231.882 674.871 211.491C674.871 211.491 681.88 202.57 686.34 201.296C686.34 201.296 689.526 210.854 701.633 200.658C701.633 200.658 701.633 234.431 698.447 248.449H758.982V265.017C758.982 265.017 750.699 278.398 718.201 276.486L721.387 293.691L702.271 315.993H683.792C683.792 315.993 674.233 289.868 671.366 278.717Z" fill="#008F77"/>
<path d="M755.478 267.884L759.301 308.028L754.841 315.675H766.948L757.931 266.316L755.478 267.884Z" fill="#008F77"/>
<path d="M337.468 407.433V380.033C337.468 380.033 373.789 374.298 373.789 404.247V428.46H309.431C309.431 428.46 290.952 426.549 288.403 407.433H337.468Z" fill="#008F77"/>
<path d="M791.161 366.014V357.73H823.022V367.926H837.04C837.04 367.926 837.677 376.21 828.756 379.396C819.836 382.582 800.719 389.591 800.719 389.591V377.165C800.719 377.165 802.95 368.244 791.161 366.014Z" fill="#008F77"/>
<path d="M564.316 144.903C564.316 144.903 551.571 203.526 499.32 183.135" stroke="#121212" stroke-width="1.27442" stroke-linecap="round" stroke-linejoin="round"/>
<path d="M492.949 180.587C492.949 180.587 475.107 171.666 475.744 148.089" stroke="#121212" stroke-width="1.27442" stroke-linecap="round" stroke-linejoin="round"/>
<path d="M505.056 125.149C505.056 125.149 490.4 118.139 486.577 128.335C482.753 138.53 495.498 143.628 495.498 143.628C495.498 143.628 487.214 159.558 487.214 165.93C487.214 165.93 455.353 136.619 488.488 95.8371C521.623 55.0557 589.167 99.0232 566.865 144.902C566.865 144.902 533.73 146.814 520.986 111.13C514.472 116.851 509.443 124.067 506.33 132.158C505.51 129.911 505.079 127.541 505.056 125.149Z" stroke="#121212" stroke-width="1.27442" stroke-linecap="round" stroke-linejoin="round"/>
<path d="M478.292 225.828L465.548 274.893C465.548 274.893 433.05 272.982 408.199 256.414C408.199 256.414 429.227 203.526 443.246 186.958C457.264 170.391 487.85 187.595 487.85 187.595C487.85 187.595 494.222 199.702 506.967 196.516C506.967 196.516 530.543 209.261 530.543 231.563V278.716" stroke="#121212" stroke-width="1.27442" stroke-linecap="round" stroke-linejoin="round"/>
<path d="M420.944 264.698L417.197 289.065C416.732 292.074 416.872 295.145 417.609 298.099C418.345 301.053 419.663 303.831 421.485 306.27C429.329 316.739 445.54 334.275 471.283 343.712C509.516 357.731 548.386 374.935 548.386 374.935L553.923 382.429C555.567 384.652 557.71 386.457 560.179 387.701C562.648 388.945 565.374 389.593 568.139 389.591H598.47C600.3 389.59 602.066 388.921 603.437 387.71C604.809 386.5 605.691 384.83 605.919 383.015L608.283 364.358C608.367 363.687 608.308 363.007 608.109 362.361C607.909 361.716 607.575 361.12 607.128 360.614C606.681 360.107 606.131 359.702 605.515 359.425C604.899 359.147 604.231 359.004 603.555 359.005H585.344" stroke="#121212" stroke-width="1.27442" stroke-linecap="round" stroke-linejoin="round"/>
<path d="M571.325 366.651L457.901 282.539L433.688 278.716" stroke="#121212" stroke-width="1.27442" stroke-linecap="round" stroke-linejoin="round"/>
<path d="M462.841 274.657L460.649 284.572" stroke="#121212" stroke-width="1.27442" stroke-linecap="round" stroke-linejoin="round"/>
<path d="M560.492 358.629L583.763 351.785C586.005 351.124 588.407 351.257 590.563 352.162C592.718 353.066 594.496 354.686 595.596 356.749L596.813 359.004" stroke="#121212" stroke-width="1.27442" stroke-linecap="round" stroke-linejoin="round"/>
<path d="M477.847 297.329L501.232 284.451C518.144 274.211 531.474 275.435 541.822 286.197C545.417 289.995 548.204 294.482 550.013 299.388C551.823 304.294 552.617 309.516 552.349 314.738L550.718 351.358" stroke="#121212" stroke-width="1.27442" stroke-linecap="round" stroke-linejoin="round"/>
<path d="M412.507 259.103C412.507 259.103 387.809 285.089 387.809 346.898L434.758 321.046" stroke="#121212" stroke-width="1.27442" stroke-linecap="round" stroke-linejoin="round"/>
<path d="M388.976 346.261C388.976 346.261 406.289 416.991 491.675 374.935" stroke="#121212" stroke-width="1.27442" stroke-linecap="round" stroke-linejoin="round"/>
<path d="M533.366 384.493C533.481 383.582 533.564 382.658 533.621 381.728C533.691 380.644 533.729 379.555 533.729 378.452V368.607" stroke="#121212" stroke-width="1.27442" stroke-linecap="round" stroke-linejoin="round"/>
<path d="M423.76 385.13L373.79 404.247V428.461H485.302" stroke="#121212" stroke-width="1.27442" stroke-linecap="round" stroke-linejoin="round"/>
<path d="M373.79 428.461H311.7C308.557 428.461 305.444 427.843 302.54 426.641C299.636 425.438 296.997 423.675 294.775 421.452C292.552 419.23 290.789 416.591 289.587 413.687C288.384 410.783 287.766 407.67 287.767 404.527V398.512H330.46V380.033H349.856C353 380.032 356.112 380.65 359.016 381.853C361.92 383.055 364.559 384.818 366.782 387.041C369.004 389.263 370.767 391.902 371.97 394.806C373.172 397.71 373.791 400.823 373.79 403.966V428.461Z" stroke="#121212" stroke-width="1.27442" stroke-linecap="round" stroke-linejoin="round"/>
<path d="M288.403 407.433H337.468V380.033" stroke="#121212" stroke-width="1.27442" stroke-linecap="round" stroke-linejoin="round"/>
<path d="M321.538 407.433C321.538 407.433 319.849 421.388 302.339 426.549" stroke="#121212" stroke-width="1.27442" stroke-linecap="round" stroke-linejoin="round"/>
<path d="M528.102 219.392C528.102 219.392 540.151 231.811 540.151 284.572" stroke="#121212" stroke-width="1.27442" stroke-linecap="round" stroke-linejoin="round"/>
<path d="M648.43 148.089C648.43 148.089 649.067 207.987 701.318 187.596" stroke="#121212" stroke-width="1.27442" stroke-linecap="round" stroke-linejoin="round"/>
<path d="M642.056 148.088L698.767 143.628" stroke="#121212" stroke-width="1.27442" stroke-linecap="round" stroke-linejoin="round"/>
<path d="M691.12 104.121C691.12 104.121 708.325 151.275 698.766 248.768H766.311C766.311 248.768 795.622 79.9072 691.12 79.9072C586.618 79.9072 642.055 248.768 642.055 248.768H655.436" stroke="#121212" stroke-width="1.27442" stroke-linecap="round" stroke-linejoin="round"/>
<path d="M686.021 191.584V200.977C686.021 200.977 688.487 210.535 701.601 200.977" stroke="#121212" stroke-width="1.27442" stroke-linecap="round" stroke-linejoin="round"/>
<path d="M686.024 200.977C686.024 200.977 666.907 212.447 664.996 238.572C663.084 264.698 683.475 315.674 683.475 315.674H701.954" stroke="#121212" stroke-width="1.27442" stroke-linecap="round" stroke-linejoin="round"/>
<path d="M704.502 248.768L714.06 276.168C714.06 276.168 745.921 280.628 759.302 264.698V248.768" stroke="#121212" stroke-width="1.27442" stroke-linecap="round" stroke-linejoin="round"/>
<path d="M675.777 210.535C675.777 210.535 652.252 223.279 654.801 274.893C654.801 274.893 658.815 278.079 671.145 278.717" stroke="#121212" stroke-width="1.27442" stroke-linecap="round" stroke-linejoin="round"/>
<path d="M718.099 276.55L721.068 293.372" stroke="#121212" stroke-width="1.27442" stroke-linecap="round" stroke-linejoin="round"/>
<path d="M755.798 268.113L759.302 308.028C759.302 308.028 744.009 344.349 680.926 372.386L677.88 381.9C676.556 386.052 673.859 389.632 670.233 392.05L657.852 400.302C656.948 400.904 655.886 401.224 654.8 401.224C653.714 401.224 652.652 400.904 651.748 400.302L636.499 390.292C635.797 389.831 635.209 389.216 634.78 388.494C634.352 387.772 634.093 386.962 634.025 386.125C633.957 385.288 634.081 384.446 634.387 383.665C634.693 382.883 635.174 382.181 635.792 381.613L654.8 364.102" stroke="#121212" stroke-width="1.27442" stroke-linecap="round" stroke-linejoin="round"/>
<path d="M664.995 359.005L723.618 290.824L740.823 286.363" stroke="#121212" stroke-width="1.27442" stroke-linecap="round" stroke-linejoin="round"/>
<path d="M670.596 352.486L648.701 359.769C647.765 360.081 646.903 360.58 646.167 361.238C645.431 361.896 644.838 362.697 644.424 363.593C644.011 364.488 643.785 365.459 643.761 366.446C643.737 367.432 643.916 368.413 644.286 369.328L645.598 372.59" stroke="#121212" stroke-width="1.27442" stroke-linecap="round" stroke-linejoin="round"/>
<path d="M657.176 356.953C665.294 335.778 683.473 315.674 683.473 315.674" stroke="#121212" stroke-width="1.27442" stroke-linecap="round" stroke-linejoin="round"/>
<path d="M757.913 266.214L766.949 315.675H754.938" stroke="#121212" stroke-width="1.27442" stroke-linecap="round" stroke-linejoin="round"/>
<path d="M766.949 315.674C766.949 315.674 787.34 363.465 742.098 387.679" stroke="#121212" stroke-width="1.27442" stroke-linecap="round" stroke-linejoin="round"/>
<path d="M695.37 365.408C695.37 365.408 693.669 386.404 693.669 395.962" stroke="#121212" stroke-width="1.27442" stroke-linecap="round" stroke-linejoin="round"/>
<path d="M723.617 415.716L800.72 389.59V375.094C800.716 373.388 800.169 371.727 799.159 370.352C798.148 368.978 796.727 367.96 795.099 367.447L768.375 359.004" stroke="#121212" stroke-width="1.27442" stroke-linecap="round" stroke-linejoin="round"/>
<path d="M791.161 365.377V355.334C791.161 354.28 791.58 353.268 792.326 352.523C793.071 351.777 794.083 351.358 795.137 351.358H819.045C820.1 351.358 821.111 351.777 821.857 352.523C822.603 353.268 823.022 354.28 823.022 355.334V367.926H837.04C837.04 370.355 836.294 372.727 834.904 374.719C833.514 376.712 831.546 378.231 829.266 379.07L800.719 389.591" stroke="#121212" stroke-width="1.27442" stroke-linecap="round" stroke-linejoin="round"/>
<path d="M791.161 357.992H823.022" stroke="#121212" stroke-width="1.27442" stroke-linecap="round" stroke-linejoin="round"/>
<path d="M831.001 367.926C831.001 367.926 836.972 376.471 824.578 380.797" stroke="#121212" stroke-width="1.27442" stroke-linecap="round" stroke-linejoin="round"/>
<path d="M543.926 372.979C532.577 384.659 525.071 396.842 512.703 401.061C486.577 409.982 484.028 434.195 484.028 434.195" stroke="#121212" stroke-width="1.27442" stroke-linecap="round" stroke-linejoin="round"/>
<path d="M653.03 358.329C641.993 351.996 627.516 347.535 607.011 347.535H608.285C587.028 347.535 572.245 352.308 561.062 359.043" stroke="#121212" stroke-width="1.27442" stroke-linecap="round" stroke-linejoin="round"/>
<path d="M731.265 434.195C731.265 434.195 728.716 409.981 702.59 401.06C692.917 397.76 686.214 389.591 678.312 380.555" stroke="#121212" stroke-width="1.27442" stroke-linecap="round" stroke-linejoin="round"/>
<path d="M591.805 348.605C591.805 348.605 586.23 334.153 551.056 343.712" stroke="#121212" stroke-width="1.27442" stroke-linecap="round" stroke-linejoin="round"/>
<path d="M623.486 348.606C623.486 348.606 647.789 332.879 654.799 352.633" stroke="#121212" stroke-width="1.27442" stroke-linecap="round" stroke-linejoin="round"/>
<path d="M660.108 277.104L645.031 343.075" stroke="#121212" stroke-width="1.27442" stroke-linecap="round" stroke-linejoin="round"/>
<path d="M667.543 293.372L675.776 294.099" stroke="#121212" stroke-width="1.27442" stroke-linecap="round" stroke-linejoin="round"/>
<path d="M608.283 347.535V264.698" stroke="#121212" stroke-width="1.27442" stroke-linecap="round" stroke-linejoin="round"/>
<path d="M600.001 269.796C600.001 269.796 609.559 229.651 558.582 223.917C558.582 223.917 556.033 265.972 600.001 269.796Z" fill="#008F77"/>
<path d="M614.737 300.331C614.737 300.331 607.256 268.929 647.152 264.443C647.152 264.443 649.121 297.342 614.737 300.331Z" fill="#008F77"/>
<path d="M608.282 281.265L591.715 258.326" stroke="#121212" stroke-width="1.27442" stroke-linecap="round" stroke-linejoin="round"/>
<path d="M600.001 269.796C600.001 269.796 609.559 229.651 558.582 223.917C558.582 223.917 556.033 265.972 600.001 269.796Z" stroke="#121212" stroke-width="1.27442" stroke-linecap="round" stroke-linejoin="round"/>
<path d="M608.258 309.303L621.212 291.359" stroke="#121212" stroke-width="1.27442" stroke-linecap="round" stroke-linejoin="round"/>
<path d="M614.737 300.331C614.737 300.331 607.256 268.929 647.152 264.443C647.152 264.443 649.121 297.342 614.737 300.331Z" stroke="#121212" stroke-width="1.27442" stroke-linecap="round" stroke-linejoin="round"/>
<path d="M659.522 166.184C660.74 166.005 661.521 164.448 661.264 162.707C661.008 160.967 659.813 159.701 658.594 159.88C657.376 160.059 656.595 161.616 656.851 163.357C657.108 165.098 658.303 166.363 659.522 166.184Z" fill="#121212"/>
<path d="M682.197 164.029C683.416 163.844 684.191 162.282 683.927 160.54C683.663 158.798 682.461 157.536 681.241 157.721C680.022 157.905 679.247 159.467 679.511 161.209C679.775 162.951 680.978 164.214 682.197 164.029Z" fill="#121212"/>
<path d="M670.73 149.363C670.73 149.363 671.368 143.628 677.103 142.991C682.837 142.353 685.386 148.088 685.386 148.088" stroke="#121212" stroke-width="1.27442" stroke-linecap="round" stroke-linejoin="round"/>
<path d="M657.984 150.637C657.984 150.637 656.073 146.177 651.612 146.177C647.152 146.177 646.515 152.549 646.515 152.549" stroke="#121212" stroke-width="1.27442" stroke-linecap="round" stroke-linejoin="round"/>
<path d="M665.631 167.842C665.631 167.842 662.445 169.754 663.082 172.303C663.72 174.852 667.543 174.214 667.543 174.214" stroke="#121212" stroke-width="1.27442" stroke-linecap="round" stroke-linejoin="round"/>
<path d="M687.935 176.126C687.935 176.126 687.935 186.958 675.19 185.047" stroke="#121212" stroke-width="1.27442" stroke-linecap="round" stroke-linejoin="round"/>
<path d="M549.584 163.053C550.509 161.556 550.409 159.818 549.362 159.171C548.314 158.523 546.715 159.211 545.789 160.708C544.864 162.205 544.964 163.943 546.011 164.591C547.059 165.238 548.658 164.55 549.584 163.053Z" fill="#121212"/>
<path d="M528.615 151.405C529.54 149.908 529.441 148.169 528.393 147.522C527.345 146.874 525.746 147.563 524.821 149.059C523.895 150.556 523.995 152.295 525.043 152.942C526.09 153.59 527.69 152.901 528.615 151.405Z" fill="#121212"/>
<path d="M541.771 138.352C541.771 138.352 543.46 132.834 538.451 129.973C533.443 127.112 528.823 131.368 528.823 131.368" stroke="#121212" stroke-width="1.27442" stroke-linecap="round" stroke-linejoin="round"/>
<path d="M551.691 145.208C551.691 145.208 555.215 141.869 559.338 143.64C563.461 145.412 561.492 151.51 561.492 151.51" stroke="#121212" stroke-width="1.27442" stroke-linecap="round" stroke-linejoin="round"/>
<path d="M533.39 164.344C533.39 164.344 535.557 167.364 533.964 169.442C532.371 171.519 529.108 169.442 529.108 169.442" stroke="#121212" stroke-width="1.27442" stroke-linecap="round" stroke-linejoin="round"/>
<path d="M507.089 165.656C507.089 165.656 502.795 175.603 515.252 178.897" stroke="#121212" stroke-width="1.27442" stroke-linecap="round" stroke-linejoin="round"/>
<path d="M523.534 159.558C530.924 159.558 536.915 153.567 536.915 146.177C536.915 138.786 530.924 132.795 523.534 132.795C516.143 132.795 510.152 138.786 510.152 146.177C510.152 153.567 516.143 159.558 523.534 159.558Z" stroke="#121212" stroke-width="1.27442" stroke-linecap="round" stroke-linejoin="round"/>
<path d="M550.297 175.488C557.688 175.488 563.679 169.497 563.679 162.107C563.679 154.717 557.688 148.726 550.297 148.726C542.907 148.726 536.916 154.717 536.916 162.107C536.916 169.497 542.907 175.488 550.297 175.488Z" stroke="#121212" stroke-width="1.27442" stroke-linecap="round" stroke-linejoin="round"/>
<path d="M534.552 153.772L538.592 155.62" stroke="#121212" stroke-width="1.27442" stroke-linecap="round" stroke-linejoin="round"/>
<path d="M513.339 137.893L505.056 125.149" stroke="#121212" stroke-width="1.27442" stroke-linecap="round" stroke-linejoin="round"/>
<path d="M401.986 59.5164C401.986 59.5164 394.977 48.6838 389.242 59.5164C383.507 48.6838 376.498 59.5164 376.498 59.5164" stroke="#121212" stroke-width="1.27442" stroke-linecap="round" stroke-linejoin="round"/>
<path d="M385.737 59.5164H392.747" stroke="#121212" stroke-width="1.27442" stroke-linecap="round" stroke-linejoin="round"/>
<path d="M448.661 69.7119C448.661 69.7119 441.652 58.8794 435.917 69.7119C430.182 58.8794 423.173 69.7119 423.173 69.7119" stroke="#121212" stroke-width="1.27442" stroke-linecap="round" stroke-linejoin="round"/>
<path d="M432.415 69.7117H439.424" stroke="#121212" stroke-width="1.27442" stroke-linecap="round" stroke-linejoin="round"/>
<path d="M491.82 179.936L487.851 187.596" stroke="#121212" stroke-width="1.27442" stroke-linecap="round" stroke-linejoin="round"/>
<path d="M511.492 186.646L506.968 196.516" stroke="#121212" stroke-width="1.27442" stroke-linecap="round" stroke-linejoin="round"/>
<path d="M311.98 469.242H401.827" stroke="#121212" stroke-width="1.27442" stroke-linecap="round" stroke-linejoin="round"/>
<path d="M788.614 432.921H840.228" stroke="#121212" stroke-width="1.27442" stroke-linecap="round" stroke-linejoin="round"/>
<path d="M873.36 387.679H964.481" stroke="#121212" stroke-width="1.27442" stroke-linecap="round" stroke-linejoin="round"/>
<path d="M564.315 487.721H780.329" stroke="#121212" stroke-width="1.27442" stroke-linecap="round" stroke-linejoin="round"/>
<path d="M274.386 389.591H213.214" stroke="#121212" stroke-width="1.27442" stroke-linecap="round" stroke-linejoin="round"/>
</svg>
