<?xml version='1.0' encoding='utf-8'?>
<svg xmlns="http://www.w3.org/2000/svg" width="67.384mm" height="67.33mm" version="1.1" viewBox="0 0 238.76 238.57"> <g transform="translate(-492.05 -595.93)"> <g transform="translate(410.81 255)" filter="url(#filter4240)"> <circle cx="200.71" cy="460.22" r="119.29" fill="#5d88ea"/> <path d="m159.82 348.2a119.29 119.29 0 0 0-78.582 112.02 119.29 119.29 0 0 0 119.29 119.29 119.29 119.29 0 0 0 86.418-37.27 119.29 119.29 0 0 1-40.705 7.2695 119.29 119.29 0 0 1-119.29-119.29 119.29 119.29 0 0 1 32.867-82.016z" fill="#3967c8"/> <g transform="matrix(1.1013 0 0 1.1013 -381.06 -178.78)" fill="#3cc839" fill-rule="evenodd"> <path d="m499.52 475.06c3.5355 2.0203 8.5863 9.0914 8.5863 9.0914l2.5254 3.5355 5.0508 3.5355 5.0508-1.5152 7.5761-4.0406 5.5558 8.5863 2.0203 7.5762-5.5558-2.0203-7.0711-3.5355 6.0609 9.5964-6.0609-3.0305-8.0812 2.5254-10.607 3.5355-8.0812 7.0711-2.0203 12.122c-1.1382 0.58482-1.7044 1.2739-3.7881-0.50507l-0.52151-8.1689-0.80431-2.6902c-3.2066 0.17924-6.3053 0.79009-9.3439 1.6415-3.0703 1.6387-6.0408 3.627-8.7757 6.4397-1.3104 1.1926-1.3389 3.3007-1.5152 5.3033 0.28594 1.4187 0.61786 2.7914 1.894 3.2199l2.3917-0.51932 1.649-3.4582c1.852-0.70467 4.3984-0.0371 6.2503 0.3788 0.0638 1.5087-1.7573 2.2237-2.6516 3.0936-1.2333 0.36612-1.5311 1.6677-1.9572 2.8411 1.6537 1.0142 4.3244 1.0703 4.3563 3.2199-3.0472 0.93919-3.4773 1.9278-2.5254 5.3664l0.88388 4.23c2.859-0.0749 5.3576 0.93136 7.8918 1.8309l3.8515-1.9565 2.2573-1.1921c0.86035-0.62475 1.5987-0.39543 2.2915 0.15253-0.24851 0.76854-0.0428 1.4722 0.88581 2.0726 1.1235-0.2099 1.6051-0.805 1.8925-1.5165 1.3166-0.38895 2.8256-0.20095 4.4787 0.41978l10.492 7.395 9.923 9.2726 15.951 13.132 3.4505 6.726-1.9353 8.4263-3.0342 8.5012-6.6286 3.165c-1.9338 1.954-1.1863 4.2358-3.7217 9.7995l-5.5558 6.0609-5.3033-0.75761c0.27826 3.3569-2.5273 7.9473-5.5558 12.627l-7.0711 1.5152c-2.5469 0.31953-5.1295 0.54101-5.0508 8.0812 0 0-7.0971 2.4854-7.3236 5.0508-0.37916 4.2939-0.75762 12.627-0.75762 12.627-2.6851-0.62151-5.2568-0.56286-8.5863-5.0508l-0.50508-28.284 1.0102-9.0914-3.5355-20.203 0.50508-6.0609-4.0406-9.5964c-1.6248-2.9428-3.6396-5.5736-2.0203-11.112l14.71-16.226c-2.9119-0.5569-3.7946-0.37345-6.8965-0.85056-1.0493-0.16138-3.1293 1.7913-3.3814 0.86379-0.27722-1.02 0.20815-2.6932-1.6546-2.6018l-2.3991-8.9651c-2.4895-7.0925-7.2002-5.2651-10.48-8.0812-1.5195-2.4657-2.9831-4.978-2.5254-9.0914 1.4275-7.9608 2.7166-10.383 3.9775-11.68l-1.3258-0.31567c-1.7016 3.035-1.9114 4.5156-2.1466 6.4397-0.64718 0.18226-1.0411 1.0399-2.1466 0-0.0121-2.7238-0.27333-5.5473 0.50508-7.955 0.94888-3.2726 2.5614-4.7202 4.1669-6.1872l9.5964-7.5762 7.0711-10.607v-4.0406z"/> <path d="m562.5 477.36c0.19716 2.3342-1.6231 2.3627 0.71429 7.1429 3.6228 0.31607 5.0868 2.3591 7.1428 3.9286 2.6405 2.6835 4.0543 1.6868 6.0714 2.5 1.4024 1.9035 8.3863 1.7773 3.2143 6.0714 3.3128-0.94146 5.7434 1.131 7.8571 4.2857 3.0294 3.6431 2.7553 4.3131 2.5 5l-1.0714 1.4286c-0.20221-1.2533-0.60919-2.1482-2.1428-1.0714 1.2545-3.9961-1.4616-3.2426-3.5714-3.2143 0 0-0.35715-1.4286-3.5714-1.7857-3.2143-0.35714-3.5714 0.71428-3.5714 0.71428l1.0714 2.5 6.176 1.9299c0.72585 2.1946 1.2432 4.7263 3.4668 4.4986v2.8571s-6.4286 5.3571-5.3572 6.7857 3.9286 5.7143 3.9286 5.7143l4.2857 0.71428 4.6429-2.8571 1.7857-3.5714c1.9045 0.92372 5.1166-1.7515 6.5669 3.3402 0.45117 1.5839 2.9754 1.5643 4.5045 2.3741l-1.7857 1.7857 3.5714 3.5714 5 1.4286 3.2143 3.9286-2.9364-1.5839-5.1263 0.32124-3.9898-2.8571s-2.2332-5.523-4.3761-4.8087c-2.1429 0.71429-12.5 1.4286-12.5 1.4286l-4.6429 3.2143-1.4286 5.3571-6.6198 3.3876 0.90554 15.184-5.8548 1.7207 5.4976 14.351 3.9286 6.7857 7.1429 0.71429 5 0.71429 4.6429-2.1429 2.1428 5 7.1429 1.0714-1.7857 4.6428-5 4.6429 3.9286 5.3571-3.5714 9.2857-3.2143 3.9286-3.5714 8.2143-1.4286 8.5714 2.8572 7.8572 2.5 5.7143 11.071-2.5 13.214-13.214c3.6744-3.1227 5.8153-6.9633 7.6263-12.5 4.8852-14.436 4.9673-24.312 6.7857-36.429-0.97384-10.035 0.3293-14.151-3.6327-31.955-3.3581-9.9622-7.5233-18.633-12.565-25.902-6.4608-8.3011-11.777-17.746-20.714-23.571-5.7975-5.8597-12.519-10.425-20-13.929-5.3571-3.3904-10.714-4.6317-16.071-6.0714z"/> <path d="m499.52 475.06c3.5355 2.0203 8.5863 9.0914 8.5863 9.0914l2.5254 3.5355 5.0508 3.5355 5.0508-1.5152 7.5761-4.0406 5.5558 8.5863 2.0203 7.5762-5.5558-2.0203-7.0711-3.5355 6.0609 9.5964-6.0609-3.0305-8.0812 2.5254-10.607 3.5355-8.0812 7.0711-2.0203 12.122c-1.1382 0.58482-1.7044 1.2739-3.7881-0.50507l-0.52151-8.1689-0.80431-2.6902c-3.2066 0.17924-6.3053 0.79009-9.3439 1.6415-3.0703 1.6387-6.0408 3.627-8.7757 6.4397-1.3104 1.1926-1.3389 3.3007-1.5152 5.3033 0.28594 1.4187 0.61786 2.7914 1.894 3.2199l2.3917-0.51932 1.649-3.4582c1.852-0.70467 4.3984-0.0371 6.2503 0.3788 0.0638 1.5087-1.7573 2.2237-2.6516 3.0936-1.2333 0.36612-1.5311 1.6677-1.9572 2.8411 1.6537 1.0142 4.3244 1.0703 4.3563 3.2199-3.0472 0.93919-3.4773 1.9278-2.5254 5.3664l0.88388 4.23c2.859-0.0749 5.3576 0.93136 7.8918 1.8309l3.8515-1.9565 2.2573-1.1921c0.86035-0.62475 1.5987-0.39543 2.2915 0.15253-0.24851 0.76854-0.0428 1.4722 0.88581 2.0726 1.1235-0.2099 1.6051-0.805 1.8925-1.5165 1.3166-0.38895 2.8256-0.20095 4.4787 0.41978l10.492 7.395 9.923 9.2726 15.951 13.132 3.4505 6.726-1.9353 8.4263-3.0342 8.5012-6.6286 3.165c-1.9338 1.954-1.1863 4.2358-3.7217 9.7995l-5.5558 6.0609-5.3033-0.75761c0.27826 3.3569-2.5273 7.9473-5.5558 12.627l-7.0711 1.5152c-2.5469 0.31953-5.1295 0.54101-5.0508 8.0812 0 0-7.0971 2.4854-7.3236 5.0508-0.37916 4.2939-0.75762 12.627-0.75762 12.627-2.6851-0.62151-5.2568-0.56286-8.5863-5.0508l-0.50508-28.284 1.0102-9.0914-3.5355-20.203 0.50508-6.0609-4.0406-9.5964c-1.6248-2.9428-3.6396-5.5736-2.0203-11.112l14.71-16.226c-2.9119-0.5569-3.7946-0.37345-6.8965-0.85056-1.0493-0.16138-3.1293 1.7913-3.3814 0.86379-0.27722-1.02 0.20815-2.6932-1.6546-2.6018l-2.3991-8.9651c-2.4895-7.0925-7.2002-5.2651-10.48-8.0812-1.5195-2.4657-2.9831-4.978-2.5254-9.0914 1.4275-7.9608 2.7166-10.383 3.9775-11.68l-1.3258-0.31567c-1.7016 3.035-1.9114 4.5156-2.1466 6.4397-0.64718 0.18226-1.0411 1.0399-2.1466 0-0.0121-2.7238-0.27333-5.5473 0.50508-7.955 0.94888-3.2726 2.5614-4.7202 4.1669-6.1872l9.5964-7.5762 7.0711-10.607v-4.0406z"/> <path d="m562.5 477.36c0.19716 2.3342-1.6231 2.3627 0.71429 7.1429 3.6228 0.31607 5.0868 2.3591 7.1428 3.9286 2.6405 2.6835 4.0543 1.6868 6.0714 2.5 1.4024 1.9035 8.3863 1.7773 3.2143 6.0714 3.3128-0.94146 5.7434 1.131 7.8571 4.2857 3.0294 3.6431 2.7553 4.3131 2.5 5l-1.0714 1.4286c-0.20221-1.2533-0.60919-2.1482-2.1428-1.0714 1.2545-3.9961-1.4616-3.2426-3.5714-3.2143 0 0-0.35715-1.4286-3.5714-1.7857-3.2143-0.35714-3.5714 0.71428-3.5714 0.71428l1.0714 2.5 6.176 1.9299c0.72585 2.1946 1.2432 4.7263 3.4668 4.4986v2.8571s-6.4286 5.3571-5.3572 6.7857 3.9286 5.7143 3.9286 5.7143l4.2857 0.71428 4.6429-2.8571 1.7857-3.5714c1.9045 0.92372 5.1166-1.7515 6.5669 3.3402 0.45117 1.5839 2.9754 1.5643 4.5045 2.3741l-1.7857 1.7857 3.5714 3.5714 5 1.4286 3.2143 3.9286-2.9364-1.5839-5.1263 0.32124-3.9898-2.8571s-2.2332-5.523-4.3761-4.8087c-2.1429 0.71429-12.5 1.4286-12.5 1.4286l-4.6429 3.2143-1.4286 5.3571-6.6198 3.3876 0.90554 15.184-5.8548 1.7207 5.4976 14.351 3.9286 6.7857 7.1429 0.71429 5 0.71429 4.6429-2.1429 2.1428 5 7.1429 1.0714-1.7857 4.6428-5 4.6429 3.9286 5.3571-3.5714 9.2857-3.2143 3.9286-3.5714 8.2143-1.4286 8.5714 2.8572 7.8572 2.5 5.7143 11.071-2.5 13.214-13.214c3.6744-3.1227 5.8153-6.9633 7.6263-12.5 4.8852-14.436 4.9673-24.312 6.7857-36.429-0.97384-10.035 0.3293-14.151-3.6327-31.955-3.3581-9.9622-7.5233-18.633-12.565-25.902-6.4608-8.3011-11.777-17.746-20.714-23.571-5.7975-5.8597-12.519-10.425-20-13.929-5.3571-3.3904-10.714-4.6317-16.071-6.0714z"/> </g> <g transform="matrix(.99999 0 0 .99999 -130.64 -378.57)" fill="#2e9b2b"> <path d="m281.76 880.79-1.0098 8.8184 0.55664 31.338c0.91665 1.2356 1.7801 2.1578 2.6074 2.8574s1.6168 1.1759 2.3848 1.5195c1.536 0.68719 2.9961 0.86677 4.4746 1.209 0 0 0.46785-9.3747 0.8854-14.103 0.0312-0.35315 0.21195-0.57735 0.44954-0.92256 0.23758-0.34522 0.54758-0.63743 0.93148-0.96437 0.7678-0.65388 1.7376-1.2606 2.7302-1.7793 1.9851-1.0374 3.9217-1.6753 3.9217-1.6753-0.0217-2.0759 0.14119-3.774 0.43946-4.97 0.099-0.39724 0.47761-1.2447 0.60514-1.5636-7.0109-5.6714-13.419-12.662-18.977-19.764z"/> <path d="m289.63 727.66-1.1342-0.20866c-2.9343 1.2034-5.8578 2.3852-8.9537 3.9118l0.0937 5.293-7.7871 11.68-10.568 8.3438c-0.88403 0.80773-1.7689 1.6111-2.5645 2.6621s-1.501 2.3504-2.0234 4.1523c-0.42861 1.3257-0.57191 2.7663-0.60547 4.25-0.0336 1.4837 0.0422 3.2053 0.0488 4.7051 0.60871 0.5726 1.0136 0.63174 1.3633 0.51368 0.34971-0.11806 0.65146-0.39769 1.0078-0.49805 0.12946-1.0594 0.33187-2.1851 0.65625-3.2754s0.77986-2.1218 1.7168-3.793l1.4355 0.33203c-0.34714 0.35705-0.6881 0.57226-1.041 1.1602-0.35292 0.58789-0.70978 1.3302-1.0723 2.3008-0.72497 1.9412-1.4718 4.8002-2.2578 9.1836-0.12601 1.1325-0.12004 2.1549-0.0137 3.0938 1.2e-4 0.99194 0.38115 2.5717 0.71289 3.3418 0.0749 0.21776 0.9977 1.8487 1.082 2.0586 4.3445-20.946 15.492-43.4 29.904-59.207z"/> </g> </g> </g> </svg>