<svg width="576" height="500" viewBox="0 0 576 500" fill="none" xmlns="http://www.w3.org/2000/svg">
<g clip-path="url(#clip0_6916_59551)">
<rect width="576" height="500" rx="23" fill="#F5FAF8"/>
<path d="M189.828 402.083L191.141 434.096V455.902C191.448 455.902 191.754 455.902 192.069 455.902H192.246L192.784 455.935H193.016L193.433 455.972L195.479 456.273L195.851 456.352L196.533 456.51L196.922 456.612L197.266 456.705C197.439 456.751 197.61 456.802 197.781 456.858L198.184 456.988L198.458 457.08L198.945 457.257L205.728 461.289C205.863 461.4 205.993 461.521 206.123 461.637L206.29 461.79C206.317 461.812 206.341 461.837 206.364 461.864C206.545 462.031 206.726 462.203 206.902 462.379C210.255 465.724 212.451 470.053 213.17 474.734C213.226 475.099 213.272 475.47 213.309 475.847C213.385 476.62 213.419 477.396 213.411 478.172V484.305C213.411 484.894 213.178 485.458 212.762 485.874C212.346 486.289 211.782 486.523 211.194 486.523H166.552C165.964 486.523 165.399 486.289 164.984 485.874C164.568 485.458 164.334 484.894 164.334 484.305V458.12C164.334 457.532 164.568 456.967 164.984 456.552C165.399 456.136 165.964 455.902 166.552 455.902V434.096H157.737L156.461 412.647L149.385 428.993L118.3 419.25L123.696 402.083H0V519H580.5V402.083H189.828ZM150.313 475.908L149.956 477.04L148.457 481.758C148.371 482.037 148.23 482.296 148.043 482.519C147.856 482.743 147.626 482.928 147.367 483.062C147.109 483.197 146.826 483.279 146.535 483.304C146.244 483.328 145.952 483.295 145.674 483.206L103.097 469.779C102.819 469.691 102.561 469.55 102.338 469.362C102.114 469.175 101.93 468.946 101.796 468.687C101.661 468.429 101.579 468.146 101.554 467.856C101.529 467.565 101.561 467.273 101.649 466.995L103.138 462.277L109.527 442.021C109.705 441.46 110.098 440.993 110.62 440.722C111.142 440.45 111.75 440.397 112.311 440.573L115.735 429.707L116.635 426.854L140.083 434.277L139.178 437.107L135.75 447.973C135.991 448.047 136.214 448.126 136.46 448.214L137.309 448.53L137.638 448.664C137.87 448.757 138.102 448.859 138.329 448.966C138.557 449.073 138.793 449.17 138.993 449.281L139.234 449.402C139.475 449.523 139.698 449.653 139.944 449.782C140.19 449.912 140.408 450.038 140.612 450.172L141.494 450.734C141.707 450.877 141.916 451.021 142.12 451.174L142.343 451.337L142.881 451.75L142.923 451.782C143.141 451.954 143.349 452.125 143.553 452.302C143.753 452.473 143.948 452.645 144.138 452.826L144.3 452.974C144.481 453.142 144.662 453.318 144.834 453.494L145.484 454.181C145.663 454.376 145.839 454.575 146.012 454.779L146.379 455.243L146.583 455.503C146.727 455.684 146.866 455.865 147.001 456.051L148.045 457.619C148.161 457.804 148.272 457.994 148.379 458.185L148.754 458.876C148.847 459.048 148.935 459.224 149.019 459.4L149.079 459.526C149.177 459.716 149.265 459.906 149.348 460.101C149.432 460.296 149.543 460.537 149.631 460.755C149.789 461.135 149.938 461.525 150.067 461.915L150.16 462.189C150.216 462.342 150.267 462.499 150.313 462.653L150.369 462.847C150.429 463.024 150.48 463.205 150.527 463.381L150.592 463.641C150.638 463.794 150.675 463.947 150.712 464.105L151.056 465.882L151.139 466.485V466.675C151.167 466.895 151.19 467.113 151.209 467.329V467.519C151.209 467.733 151.237 467.946 151.246 468.155L151.274 469.204C151.297 471.474 150.973 473.735 150.313 475.908ZM233.719 471.519L223.976 473.282C223.433 473.387 222.875 473.384 222.333 473.272C221.792 473.16 221.278 472.942 220.822 472.63C220.366 472.318 219.976 471.918 219.675 471.454C219.374 470.99 219.169 470.472 219.07 469.928C218.972 469.384 218.982 468.826 219.101 468.286C219.22 467.746 219.444 467.235 219.762 466.783C220.08 466.33 220.484 465.946 220.952 465.651C221.42 465.356 221.941 465.157 222.486 465.065L230.703 463.576C231.792 463.378 232.916 463.622 233.826 464.253C234.736 464.884 235.358 465.85 235.556 466.94L235.834 468.466C235.956 469.153 235.8 469.86 235.401 470.433C235.001 471.005 234.392 471.396 233.705 471.519H233.719ZM265.045 475.694L256.559 477.819C256.022 477.987 255.457 478.043 254.898 477.984C254.339 477.925 253.798 477.753 253.307 477.478C252.817 477.203 252.388 476.83 252.047 476.383C251.706 475.936 251.46 475.424 251.323 474.879C251.187 474.334 251.163 473.766 251.254 473.211C251.345 472.656 251.548 472.126 251.851 471.652C252.154 471.179 252.55 470.772 253.016 470.457C253.482 470.142 254.007 469.926 254.56 469.821L264.599 467.32C264.922 467.24 265.257 467.225 265.585 467.276C265.913 467.326 266.228 467.441 266.512 467.613C266.795 467.786 267.042 468.012 267.238 468.281C267.434 468.549 267.575 468.853 267.652 469.176L268.042 470.739C268.297 471.798 268.124 472.914 267.56 473.846C266.996 474.777 266.087 475.448 265.031 475.713L265.045 475.694ZM283.083 464.281L276.588 466.183C276.088 466.342 275.56 466.399 275.037 466.351C274.515 466.303 274.007 466.151 273.543 465.904C273.08 465.657 272.67 465.32 272.339 464.913C272.007 464.506 271.761 464.037 271.613 463.533C271.465 463.029 271.42 462.501 271.479 461.979C271.538 461.457 271.701 460.953 271.958 460.495C272.215 460.037 272.56 459.635 272.975 459.312C273.389 458.99 273.863 458.753 274.37 458.616L279.27 457.183C279.767 457.037 280.288 456.99 280.803 457.046C281.318 457.102 281.817 457.258 282.272 457.507C282.726 457.755 283.128 458.091 283.452 458.495C283.777 458.899 284.019 459.362 284.164 459.86L284.628 461.47C284.714 461.758 284.742 462.06 284.71 462.359C284.677 462.658 284.586 462.947 284.441 463.211C284.296 463.474 284.1 463.706 283.865 463.893C283.629 464.08 283.359 464.218 283.07 464.3L283.083 464.281ZM321.128 462.889L313.111 465.237C312.584 465.391 312.032 465.44 311.486 465.381C310.941 465.321 310.412 465.155 309.931 464.891C309.45 464.628 309.025 464.272 308.681 463.844C308.338 463.416 308.082 462.924 307.928 462.397C307.816 462.016 307.76 461.621 307.761 461.224C307.762 460.322 308.055 459.444 308.596 458.722C309.137 458 309.897 457.473 310.763 457.22L320.636 454.329C320.919 454.245 321.215 454.218 321.508 454.25C321.802 454.281 322.086 454.37 322.345 454.511C322.603 454.652 322.831 454.844 323.016 455.074C323.201 455.304 323.338 455.568 323.42 455.851L323.967 457.707C324.125 458.235 324.177 458.789 324.119 459.338C324.061 459.886 323.896 460.417 323.632 460.901C323.368 461.385 323.011 461.812 322.581 462.157C322.151 462.502 321.657 462.759 321.128 462.912V462.889ZM328.644 449.142L321.346 450.956C320.988 451.056 320.613 451.082 320.245 451.035C319.876 450.987 319.52 450.866 319.199 450.678C318.878 450.491 318.598 450.241 318.375 449.944C318.152 449.647 317.991 449.308 317.901 448.947C317.811 448.586 317.794 448.211 317.852 447.844C317.909 447.476 318.039 447.124 318.235 446.808C318.431 446.492 318.688 446.219 318.991 446.003C319.294 445.788 319.637 445.636 320 445.556L325.856 444.099C326.572 443.921 327.329 444.034 327.962 444.415C328.594 444.795 329.05 445.41 329.229 446.126L329.586 447.569C329.631 447.736 329.642 447.91 329.619 448.081C329.596 448.252 329.539 448.417 329.451 448.566C329.363 448.715 329.247 448.844 329.108 448.947C328.97 449.05 328.812 449.124 328.644 449.165V449.142ZM336.967 408.272L337.25 407.117C337.381 406.587 337.717 406.13 338.184 405.846C338.651 405.563 339.211 405.476 339.742 405.605L344.502 406.769C345.273 406.958 345.949 407.422 346.401 408.075C346.853 408.728 347.05 409.524 346.956 410.312C346.861 411.1 346.48 411.827 345.886 412.354C345.292 412.881 344.526 413.172 343.732 413.172C343.472 413.173 343.214 413.141 342.962 413.079L339.352 412.197C338.52 411.993 337.803 411.468 337.357 410.737C336.91 410.007 336.77 409.129 336.967 408.296V408.272ZM341.199 428.83L343.518 425.355C343.894 424.792 344.477 424.4 345.141 424.266C345.804 424.132 346.494 424.267 347.058 424.641L347.935 425.225C348.099 425.334 348.24 425.474 348.349 425.637C348.459 425.8 348.535 425.983 348.574 426.176C348.613 426.368 348.613 426.567 348.575 426.759C348.537 426.952 348.462 427.136 348.353 427.299L345.458 431.656C345.273 431.937 345.035 432.18 344.757 432.369C344.478 432.558 344.165 432.69 343.835 432.758C343.505 432.826 343.165 432.827 342.835 432.763C342.505 432.699 342.19 432.57 341.91 432.383C341.629 432.197 341.389 431.957 341.202 431.677C341.014 431.397 340.884 431.083 340.819 430.753C340.754 430.423 340.755 430.083 340.821 429.753C340.888 429.423 341.019 429.109 341.208 428.83H341.199ZM349.503 442.916L346.692 446.001C346.152 446.592 345.4 446.944 344.601 446.98C343.802 447.016 343.021 446.733 342.43 446.194C341.84 445.654 341.488 444.902 341.452 444.103C341.415 443.304 341.698 442.523 342.238 441.932L345.699 438.137C346.067 437.736 346.578 437.497 347.122 437.473C347.666 437.449 348.197 437.641 348.599 438.007L349.309 438.652C349.605 438.92 349.845 439.243 350.016 439.604C350.186 439.965 350.284 440.356 350.302 440.755C350.32 441.154 350.259 441.552 350.122 441.927C349.984 442.302 349.774 442.646 349.503 442.939V442.916ZM361.376 414.731L360.388 418.79C360.227 419.371 359.846 419.866 359.326 420.171C358.806 420.476 358.188 420.566 357.603 420.423C357.017 420.28 356.51 419.915 356.189 419.405C355.868 418.895 355.758 418.28 355.883 417.691L357.019 413.023C357.126 412.587 357.401 412.211 357.785 411.978C358.169 411.745 358.629 411.674 359.066 411.78L359.673 411.928C359.971 412 360.252 412.131 360.5 412.313C360.747 412.494 360.956 412.723 361.114 412.986C361.273 413.248 361.377 413.54 361.422 413.844C361.467 414.147 361.452 414.456 361.376 414.754V414.731Z" fill="#008F77"/>
<path d="M357.701 272.64H352.598V279.135H357.701V272.64Z" stroke="#D6E5E3" stroke-width="0.927911" stroke-linecap="round" stroke-linejoin="round"/>
<path d="M319.656 272.64H314.553V279.135H319.656V272.64Z" stroke="#D6E5E3" stroke-width="0.927911" stroke-linecap="round" stroke-linejoin="round"/>
<path d="M357.701 304.189H352.598V310.684H357.701V304.189Z" stroke="#D6E5E3" stroke-width="0.927911" stroke-linecap="round" stroke-linejoin="round"/>
<path d="M357.701 335.738H352.598V342.233H357.701V335.738Z" stroke="#D6E5E3" stroke-width="0.927911" stroke-linecap="round" stroke-linejoin="round"/>
<path d="M357.701 367.286H352.598V373.782H357.701V367.286Z" stroke="#D6E5E3" stroke-width="0.927911" stroke-linecap="round" stroke-linejoin="round"/>
<path d="M345.174 289.806H274.448V402.083H345.174V289.806Z" stroke="#D6E5E3" stroke-width="0.927911" stroke-linecap="round" stroke-linejoin="round"/>
<path d="M291.769 392.929V402.083" stroke="#D6E5E3" stroke-width="0.927911" stroke-linecap="round" stroke-linejoin="round"/>
<path d="M291.769 289.806V360.202" stroke="#D6E5E3" stroke-width="0.927911" stroke-linecap="round" stroke-linejoin="round"/>
<path d="M297.387 389.496V402.083" stroke="#D6E5E3" stroke-width="0.927911" stroke-linecap="round" stroke-linejoin="round"/>
<path d="M297.387 289.806V363.635" stroke="#D6E5E3" stroke-width="0.927911" stroke-linecap="round" stroke-linejoin="round"/>
<path d="M297.387 307.668H345.174" stroke="#D6E5E3" stroke-width="0.927911" stroke-linecap="round" stroke-linejoin="round"/>
<path d="M340.999 311.612H335.896V318.107H340.999V311.612Z" stroke="#D6E5E3" stroke-width="0.927911" stroke-linecap="round" stroke-linejoin="round"/>
<path d="M330.792 311.612H325.688V318.107H330.792V311.612Z" stroke="#D6E5E3" stroke-width="0.927911" stroke-linecap="round" stroke-linejoin="round"/>
<path d="M317.337 339.449H312.233V345.945H317.337V339.449Z" stroke="#D6E5E3" stroke-width="0.927911" stroke-linecap="round" stroke-linejoin="round"/>
<path d="M307.13 339.449H302.026V345.945H307.13V339.449Z" stroke="#D6E5E3" stroke-width="0.927911" stroke-linecap="round" stroke-linejoin="round"/>
<path d="M340.999 370.07H335.896V376.566H340.999V370.07Z" stroke="#D6E5E3" stroke-width="0.927911" stroke-linecap="round" stroke-linejoin="round"/>
<path d="M255.269 360.318V326.458H274.448" stroke="#D6E5E3" stroke-width="0.927911" stroke-linecap="round" stroke-linejoin="round"/>
<path d="M255.167 326.458L274.319 307.306" stroke="#D6E5E3" stroke-width="0.927911" stroke-linecap="round" stroke-linejoin="round"/>
<path d="M309.812 286.558V266.144C309.812 256.3 313.722 246.86 320.683 239.899C327.643 232.938 337.084 229.028 346.928 229.028H368.372V402.083" stroke="#D6E5E3" stroke-width="0.927911" stroke-linecap="round" stroke-linejoin="round"/>
<path d="M309.812 268.413H368.372" stroke="#D6E5E3" stroke-width="0.927911" stroke-linecap="round" stroke-linejoin="round"/>
<path d="M361.877 229.028V402.083" stroke="#D6E5E3" stroke-width="0.927911" stroke-linecap="round" stroke-linejoin="round"/>
<path d="M255.269 402.083V392.786" stroke="#D6E5E3" stroke-width="0.927911" stroke-linecap="round" stroke-linejoin="round"/>
<path d="M82.1113 486.523H476.474" stroke="#121212" stroke-width="0.927911" stroke-linecap="round" stroke-linejoin="round"/>
<path d="M242.64 402.083H499.671" stroke="#121212" stroke-width="0.927911" stroke-linecap="round" stroke-linejoin="round"/>
<path d="M459.771 324.139H371.155V402.083H459.771V324.139Z" stroke="#121212" stroke-width="0.927911" stroke-linecap="round" stroke-linejoin="round"/>
<path d="M459.771 324.139L486.913 351.28V402.083H459.771V324.139Z" stroke="#121212" stroke-width="0.927911" stroke-linecap="round" stroke-linejoin="round"/>
<path d="M383.733 320.891V271.712L404.124 292.098V320.891" stroke="#121212" stroke-width="0.927911" stroke-linecap="round" stroke-linejoin="round"/>
<path d="M435.696 320.891V293.982L456.087 314.368V320.891" stroke="#121212" stroke-width="0.927911" stroke-linecap="round" stroke-linejoin="round"/>
<path d="M452.863 307.9V280.991L473.254 301.377V334.346" stroke="#121212" stroke-width="0.927911" stroke-linecap="round" stroke-linejoin="round"/>
<path d="M393.927 278.671V262.929C393.925 261.03 394.34 259.155 395.141 257.434C395.943 255.713 397.112 254.188 398.566 252.968L403.54 248.792C404.876 247.673 405.974 246.297 406.767 244.745C407.56 243.193 408.033 241.497 408.157 239.758C408.282 238.02 408.055 236.274 407.49 234.625C406.926 232.976 406.035 231.457 404.871 230.16L402.287 227.279C400.028 224.763 398.839 221.465 398.972 218.086C399.106 214.708 400.551 211.514 403.002 209.184C404.349 207.9 405.404 206.341 406.096 204.613C406.788 202.885 407.1 201.028 407.012 199.169C406.924 197.31 406.438 195.491 405.586 193.836C404.734 192.182 403.536 190.729 402.074 189.578L401.587 189.188C399.363 187.431 397.774 184.996 397.063 182.253C396.352 179.51 396.557 176.609 397.648 173.993L398.529 171.961" stroke="#D6E5E3" stroke-width="0.927911" stroke-linecap="round" stroke-linejoin="round"/>
<path d="M445.89 300.941V283.612C445.885 280.108 444.767 276.697 442.698 273.869L440.8 271.248C438.653 268.319 437.529 264.764 437.604 261.133C437.679 257.502 438.947 253.997 441.213 251.158L442.702 249.303C444.839 246.631 446.095 243.363 446.297 239.948C446.499 236.532 445.637 233.139 443.83 230.234C441.883 227.104 441.039 223.413 441.431 219.748C441.822 216.083 443.428 212.654 445.992 210.006L450.028 205.83" stroke="#D6E5E3" stroke-width="0.927911" stroke-linecap="round" stroke-linejoin="round"/>
<path d="M463.998 288.878V274.57C463.999 272.671 464.436 270.799 465.276 269.096C466.116 267.394 467.336 265.908 468.842 264.752C470.216 263.698 471.353 262.367 472.181 260.846C473.008 259.324 473.507 257.646 473.645 255.92C473.783 254.193 473.558 252.457 472.983 250.823C472.408 249.19 471.497 247.695 470.308 246.435L470.271 246.398C468.443 244.463 467.288 241.99 466.977 239.347C466.666 236.703 467.216 234.03 468.545 231.723L476.219 218.408C477.287 216.554 477.857 214.455 477.872 212.316C477.888 210.177 477.348 208.07 476.307 206.201C472.606 199.562 470.86 192.011 471.271 184.422C471.681 176.832 474.232 169.514 478.627 163.313L479.722 161.754" stroke="#D6E5E3" stroke-width="0.927911" stroke-linecap="round" stroke-linejoin="round"/>
<path d="M269.549 370.998C269.549 364.849 264.564 359.863 258.414 359.863C252.265 359.863 247.279 364.849 247.279 370.998V382.133C247.279 388.283 252.265 393.268 258.414 393.268C264.564 393.268 269.549 388.283 269.549 382.133V370.998Z" fill="#007A66"/>
<path d="M300.17 370.998C300.17 364.849 295.185 359.863 289.035 359.863C282.886 359.863 277.9 364.849 277.9 370.998V382.133C277.9 388.283 282.886 393.268 289.035 393.268C295.185 393.268 300.17 388.283 300.17 382.133V370.998Z" fill="#007A66"/>
<path d="M330.791 370.998C330.791 364.849 325.806 359.863 319.656 359.863C313.507 359.863 308.521 364.849 308.521 370.998V382.133C308.521 388.283 313.507 393.268 319.656 393.268C325.806 393.268 330.791 388.283 330.791 382.133V370.998Z" fill="#007A66"/>
<path d="M269.549 370.998C269.549 364.849 264.564 359.863 258.414 359.863C252.265 359.863 247.279 364.849 247.279 370.998V382.133C247.279 388.283 252.265 393.268 258.414 393.268C264.564 393.268 269.549 388.283 269.549 382.133V370.998Z" stroke="#121212" stroke-width="0.927911" stroke-linecap="round" stroke-linejoin="round"/>
<path d="M258.414 384.917V402.083" stroke="#121212" stroke-width="0.927911" stroke-linecap="round" stroke-linejoin="round"/>
<path d="M300.17 370.998C300.17 364.849 295.185 359.863 289.035 359.863C282.886 359.863 277.9 364.849 277.9 370.998V382.133C277.9 388.283 282.886 393.268 289.035 393.268C295.185 393.268 300.17 388.283 300.17 382.133V370.998Z" stroke="#121212" stroke-width="0.927911" stroke-linecap="round" stroke-linejoin="round"/>
<path d="M289.035 384.917V402.083" stroke="#121212" stroke-width="0.927911" stroke-linecap="round" stroke-linejoin="round"/>
<path d="M330.791 370.998C330.791 364.849 325.806 359.863 319.656 359.863C313.507 359.863 308.521 364.849 308.521 370.998V382.133C308.521 388.283 313.507 393.268 319.656 393.268C325.806 393.268 330.791 388.283 330.791 382.133V370.998Z" stroke="#121212" stroke-width="0.927911" stroke-linecap="round" stroke-linejoin="round"/>
<path d="M319.656 384.917V402.083" stroke="#121212" stroke-width="0.927911" stroke-linecap="round" stroke-linejoin="round"/>
<path d="M386.002 336.201H380.898V342.697H386.002V336.201Z" fill="#007A66"/>
<path d="M448.637 336.201H443.533V342.697H448.637V336.201Z" fill="#007A66"/>
<path d="M386.002 336.201H380.898V342.697H386.002V336.201Z" stroke="#121212" stroke-width="0.927911" stroke-linecap="round" stroke-linejoin="round"/>
<path d="M448.637 336.201H443.533V342.697H448.637V336.201Z" stroke="#121212" stroke-width="0.927911" stroke-linecap="round" stroke-linejoin="round"/>
<path d="M437.965 337.593H391.569V340.841H437.965V337.593Z" stroke="#121212" stroke-width="0.927911" stroke-linecap="round" stroke-linejoin="round"/>
<path d="M371.155 351.512H459.771" stroke="#121212" stroke-width="0.927911" stroke-linecap="round" stroke-linejoin="round"/>
<path d="M301.237 141.442C310.127 138.329 317.267 132.627 320.835 124.044C327.265 109.049 319.41 91.1958 303.696 86.199C299.21 85.1118 294.512 85.2686 290.108 86.6527C285.704 88.0367 281.761 90.5955 278.703 94.0537C276.294 96.8599 274.637 100.232 273.888 103.854C273.139 107.476 273.322 111.228 274.42 114.76C277.278 122.615 285.133 129.045 293.702 128.331C302.272 126.902 310.127 119.762 308.698 110.478C307.995 107.524 306.515 104.812 304.411 102.623C299.414 98.3361 292.274 99.765 288.701 104.766C287.272 107.62 287.987 111.907 290.845 113.336C291.559 114.046 292.988 113.336 293.702 112.621C294.417 110.478 295.841 106.905 298.699 108.334C300.128 109.049 301.557 110.478 301.557 111.907C301.557 118.333 294.417 122.615 288.701 120.476C280.132 116.904 277.988 106.191 283.704 99.0505C287.272 94.7682 292.283 92.6248 297.985 92.6248C308.698 93.3393 317.267 104.052 315.838 114.76C314.409 129.76 297.28 139.753 283.704 134.042C274.425 130.474 267.995 121.905 266.566 111.907C265.137 101.194 269.424 91.1958 277.988 84.77C285.848 79.0587 294.417 76.9152 303.696 79.0587C315.838 81.912 325.836 90.4813 328.907 102.521" stroke="#D6E5E3" stroke-width="0.927911" stroke-linecap="round" stroke-linejoin="round"/>
<path d="M304.81 431.776C304.81 431.776 303.418 426.209 297.387 425.745C297.387 425.745 304.81 424.817 308.522 427.601C308.522 427.601 311.305 420.177 316.409 419.25C316.409 419.25 315.945 426.673 316.409 428.993C316.409 428.993 319.657 425.745 324.296 425.281L322.904 430.384C322.904 430.384 327.544 428.529 329.4 428.529C329.4 428.529 325.688 430.384 325.224 431.776" stroke="#121212" stroke-width="0.927911" stroke-linecap="round" stroke-linejoin="round"/>
<path d="M485.289 418.322C485.289 418.322 484.361 415.074 479.258 414.146C479.258 414.146 489.001 413.218 491.785 415.538C491.785 415.538 492.713 410.434 496.888 409.506V416.002C498.132 415.461 499.475 415.181 500.832 415.181C502.189 415.181 503.531 415.461 504.775 416.002L500.136 418.322" stroke="#121212" stroke-width="0.927911" stroke-linecap="round" stroke-linejoin="round"/>
<path d="M168.458 289.593V289.806C168.458 289.806 172.972 312.976 188.612 317.388C188.463 320.381 188.357 322.747 188.357 322.747C154.66 319.652 139.052 318.85 133.234 317.128C131.202 316.534 130.362 315.82 130.362 314.86C130.362 311.148 135.002 310.684 135.002 310.684V307.306L135.141 282.434C143.774 280.558 151.505 275.785 157.05 268.908C162.595 262.032 165.62 253.465 165.623 244.631V233.356C165.623 233.356 185.93 236.952 197.172 269.081V271.763L197.065 271.804C197.427 273.122 197.77 274.481 198.1 275.892C198.1 275.887 195.158 287.658 168.458 289.593Z" fill="#007A66"/>
<path d="M200.007 479.36H164.333V458.12C164.333 457.532 164.567 456.968 164.983 456.552C165.398 456.136 165.963 455.902 166.551 455.902H191.14C196.755 455.892 202.163 458.013 206.275 461.836C199.691 469.774 200.007 479.36 200.007 479.36Z" fill="#007A66"/>
<path d="M213.411 478.172V479.36H200.007C200.007 479.36 199.692 469.774 206.275 461.836C206.484 462.031 206.688 462.226 206.888 462.425C208.96 464.49 210.603 466.945 211.722 469.647C212.842 472.35 213.416 475.247 213.411 478.172Z" fill="#005E4E"/>
<path d="M148.406 458.185C139.739 463.775 137.16 473.031 137.16 473.031L103.138 462.305L109.526 442.048C109.704 441.488 110.097 441.021 110.619 440.749C111.141 440.478 111.749 440.425 112.31 440.601L135.758 447.996C141.112 449.669 145.631 453.31 148.406 458.185Z" fill="#007A66"/>
<path d="M151.334 469.204C151.337 471.477 150.993 473.738 150.313 475.908L149.956 477.04L137.174 473.008C137.174 473.008 139.753 463.775 148.42 458.161C150.335 461.526 151.339 465.332 151.334 469.204Z" fill="#005E4E"/>
<path d="M135.159 282.434L135.02 307.306C123.458 307.278 124.762 283.311 124.762 283.311H126.961C129.664 283.31 132.358 283.025 135.001 282.461L135.159 282.434Z" fill="#007A66"/>
<path d="M214.803 266.144C214.803 266.144 213.875 318.107 193.925 318.107C192.129 318.113 190.341 317.871 188.612 317.388C172.972 312.976 168.458 289.806 168.458 289.806V289.592C195.159 287.658 198.1 275.887 198.1 275.887C197.771 274.495 197.427 273.104 197.066 271.8L197.172 271.758V266.144H214.803Z" fill="#005E4E"/>
<path d="M185.109 193.767C185.43 191.568 185.109 190.519 185.109 188.664C185.109 188.664 188.241 189.128 188.357 188.2C189.285 180.776 186.037 170.184 186.037 169.683L191.605 165.93L201.348 177.065L185.109 193.767Z" fill="#005E4E"/>
<path d="M165.624 177.529V244.631C165.623 254.889 161.547 264.726 154.293 271.98C147.04 279.234 137.202 283.309 126.944 283.311H103.918V177.529C103.918 177.529 102.526 144.124 147.53 144.124C192.533 144.124 188.358 188.664 188.358 188.664H165.624" stroke="#121212" stroke-width="0.927911" stroke-linecap="round" stroke-linejoin="round"/>
<path d="M185.23 188.664C185.23 188.664 187.893 224.56 165.623 224.56" stroke="#121212" stroke-width="0.927911" stroke-linecap="round" stroke-linejoin="round"/>
<path d="M161.912 268.464C162.214 275.621 162.989 282.751 164.232 289.806C194.853 288.878 198.101 275.887 198.101 275.887C188.822 235.987 165.624 233.356 165.624 233.356" stroke="#121212" stroke-width="0.927911" stroke-linecap="round" stroke-linejoin="round"/>
<path d="M135.16 282.434L135.002 310.684C135.002 310.684 130.362 311.148 130.362 314.86C130.362 318.571 142.889 318.571 188.357 322.747C188.357 322.747 188.57 322.181 188.821 317.643" stroke="#121212" stroke-width="0.927911" stroke-linecap="round" stroke-linejoin="round"/>
<path d="M133.61 316.715C133.61 316.715 117.372 332.49 136.394 376.566" stroke="#121212" stroke-width="0.927911" stroke-linecap="round" stroke-linejoin="round"/>
<path d="M141.961 329.242C141.961 329.242 139.178 352.44 160.056 364.967" stroke="#121212" stroke-width="0.927911" stroke-linecap="round" stroke-linejoin="round"/>
<path d="M186.566 322.584L191.141 434.096H157.736L153.314 359.863" stroke="#121212" stroke-width="0.927911" stroke-linecap="round" stroke-linejoin="round"/>
<path d="M133.763 370.07L118.3 419.25L149.385 428.993L156.46 412.643" stroke="#121212" stroke-width="0.927911" stroke-linecap="round" stroke-linejoin="round"/>
<path d="M191.14 434.096V455.902C197.047 455.902 202.711 458.248 206.888 462.425C211.064 466.601 213.41 472.266 213.41 478.172V484.305C213.41 484.894 213.177 485.458 212.761 485.874C212.345 486.289 211.781 486.523 211.193 486.523H166.551C165.963 486.523 165.398 486.289 164.983 485.874C164.567 485.458 164.333 484.894 164.333 484.305V458.12C164.333 457.532 164.567 456.967 164.983 456.552C165.398 456.136 165.963 455.902 166.551 455.902V434.096" stroke="#121212" stroke-width="0.927911" stroke-linecap="round" stroke-linejoin="round"/>
<path d="M166.551 455.902H191.14" stroke="#121212" stroke-width="0.927911" stroke-linecap="round" stroke-linejoin="round"/>
<path d="M164.333 479.36H213.41" stroke="#121212" stroke-width="0.927911" stroke-linecap="round" stroke-linejoin="round"/>
<path d="M200.007 479.36C200.007 479.36 199.692 469.774 206.275 461.836" stroke="#121212" stroke-width="0.927911" stroke-linecap="round" stroke-linejoin="round"/>
<path d="M166.551 444.507H191.14" stroke="#121212" stroke-width="0.927911" stroke-linecap="round" stroke-linejoin="round"/>
<path d="M166.551 441.519H191.14" stroke="#121212" stroke-width="0.927911" stroke-linecap="round" stroke-linejoin="round"/>
<path d="M142.318 427.179L135.758 447.973C138.548 448.851 141.138 450.27 143.38 452.15C145.621 454.029 147.47 456.331 148.822 458.925C150.173 461.52 151.001 464.355 151.257 467.268C151.512 470.182 151.191 473.118 150.312 475.908L148.457 481.758C148.37 482.037 148.229 482.296 148.042 482.519C147.855 482.743 147.625 482.928 147.367 483.062C147.108 483.197 146.825 483.279 146.534 483.304C146.243 483.328 145.951 483.295 145.673 483.206L103.096 469.779C102.818 469.691 102.56 469.55 102.337 469.362C102.114 469.175 101.929 468.946 101.795 468.687C101.661 468.429 101.578 468.146 101.553 467.856C101.528 467.565 101.56 467.273 101.648 466.995L109.535 442.02C109.713 441.46 110.106 440.993 110.628 440.722C111.15 440.45 111.758 440.397 112.319 440.573L118.875 419.778" stroke="#121212" stroke-width="0.927911" stroke-linecap="round" stroke-linejoin="round"/>
<path d="M112.311 440.578L135.759 447.973" stroke="#121212" stroke-width="0.927911" stroke-linecap="round" stroke-linejoin="round"/>
<path d="M103.138 462.281L149.942 477.04" stroke="#121212" stroke-width="0.927911" stroke-linecap="round" stroke-linejoin="round"/>
<path d="M137.16 473.008C137.16 473.008 139.74 463.775 148.406 458.161" stroke="#121212" stroke-width="0.927911" stroke-linecap="round" stroke-linejoin="round"/>
<path d="M115.734 429.712L139.187 437.107" stroke="#121212" stroke-width="0.927911" stroke-linecap="round" stroke-linejoin="round"/>
<path d="M116.635 426.858L140.083 434.258" stroke="#121212" stroke-width="0.927911" stroke-linecap="round" stroke-linejoin="round"/>
<path d="M124.744 283.311C124.744 283.311 123.441 307.306 135.021 307.306" stroke="#121212" stroke-width="0.927911" stroke-linecap="round" stroke-linejoin="round"/>
<path d="M168.458 289.806C168.458 289.806 173.974 318.107 193.925 318.107C213.875 318.107 214.803 266.144 214.803 266.144H197.172V271.758" stroke="#121212" stroke-width="0.927911" stroke-linecap="round" stroke-linejoin="round"/>
<path d="M197.396 277.465L202.74 287.022" stroke="#121212" stroke-width="0.927911" stroke-linecap="round" stroke-linejoin="round"/>
<path d="M200.067 266.144L199.956 262.433C199.956 262.433 193.924 258.721 197.636 250.834" stroke="#121212" stroke-width="0.927911" stroke-linecap="round" stroke-linejoin="round"/>
<path d="M218.978 234.131C218.978 234.131 229.185 257.329 210.627 262.896V266.144" stroke="#121212" stroke-width="0.927911" stroke-linecap="round" stroke-linejoin="round"/>
<path d="M218.978 243.41C218.978 243.41 209.699 237.843 206.451 242.482C203.203 247.122 216.658 253.153 216.658 253.153" stroke="#121212" stroke-width="0.927911" stroke-linecap="round" stroke-linejoin="round"/>
<path d="M218.389 243.081C219.47 235.384 218.83 226.541 217.202 221.113C216.994 220.428 216.619 219.807 216.111 219.303C215.603 218.8 214.978 218.431 214.292 218.229C213.606 218.027 212.881 217.998 212.181 218.146C211.482 218.294 210.83 218.614 210.284 219.076L197.841 229.603C196.51 230.792 195.706 232.461 195.605 234.243C194.987 241.202 195.526 258.011 207.844 258.262C211.351 258.336 213.898 256.151 215.661 252.694" stroke="#121212" stroke-width="0.927911" stroke-linecap="round" stroke-linejoin="round"/>
<path d="M194.156 230.42C195.566 230.42 196.708 229.277 196.708 227.868C196.708 226.459 195.566 225.316 194.156 225.316C192.747 225.316 191.604 226.459 191.604 227.868C191.604 229.277 192.747 230.42 194.156 230.42Z" stroke="#121212" stroke-width="0.927911" stroke-linecap="round" stroke-linejoin="round"/>
<path d="M198.796 225.78C200.205 225.78 201.348 224.638 201.348 223.228C201.348 221.819 200.205 220.677 198.796 220.677C197.387 220.677 196.244 221.819 196.244 223.228C196.244 224.638 197.387 225.78 198.796 225.78Z" stroke="#121212" stroke-width="0.927911" stroke-linecap="round" stroke-linejoin="round"/>
<path d="M203.899 221.604C205.309 221.604 206.451 220.462 206.451 219.053C206.451 217.643 205.309 216.501 203.899 216.501C202.49 216.501 201.348 217.643 201.348 219.053C201.348 220.462 202.49 221.604 203.899 221.604Z" stroke="#121212" stroke-width="0.927911" stroke-linecap="round" stroke-linejoin="round"/>
<path d="M209.003 217.429C210.412 217.429 211.555 216.286 211.555 214.877C211.555 213.468 210.412 212.325 209.003 212.325C207.594 212.325 206.451 213.468 206.451 214.877C206.451 216.286 207.594 217.429 209.003 217.429Z" stroke="#121212" stroke-width="0.927911" stroke-linecap="round" stroke-linejoin="round"/>
<path d="M216.05 216.895C215.6 216.82 215.168 216.657 214.78 216.416C214.392 216.174 214.055 215.858 213.79 215.486C213.524 215.115 213.334 214.694 213.231 214.249C213.127 213.803 213.113 213.342 213.188 212.891L213.726 210.572C213.878 209.661 214.385 208.849 215.136 208.312C215.887 207.776 216.82 207.559 217.73 207.709C218.181 207.784 218.613 207.947 219.001 208.189C219.388 208.43 219.725 208.746 219.991 209.118C220.257 209.49 220.447 209.91 220.55 210.356C220.653 210.801 220.668 211.262 220.593 211.713L220.054 214.033C219.98 214.484 219.817 214.915 219.575 215.303C219.333 215.691 219.017 216.028 218.645 216.293C218.274 216.559 217.853 216.749 217.408 216.853C216.963 216.956 216.501 216.97 216.05 216.895Z" stroke="#121212" stroke-width="0.927911" stroke-linecap="round" stroke-linejoin="round"/>
<path d="M205.816 236.191C205.568 236.357 205.288 236.471 204.995 236.525C204.657 236.59 204.314 236.623 203.97 236.623C203.559 236.625 203.152 236.559 202.763 236.428C202.385 236.296 202.042 236.078 201.761 235.792C201.452 235.466 201.216 235.076 201.07 234.651C200.886 234.104 200.8 233.529 200.815 232.953C200.796 232.36 200.894 231.769 201.102 231.213C201.265 230.788 201.518 230.403 201.845 230.086C202.138 229.808 202.488 229.597 202.87 229.468C203.233 229.346 203.614 229.283 203.997 229.283C204.341 229.279 204.684 229.305 205.023 229.362C205.259 229.405 205.49 229.47 205.714 229.557L205.44 230.726C205.267 230.645 205.082 230.59 204.893 230.563C204.638 230.527 204.38 230.51 204.123 230.512C203.867 230.503 203.613 230.553 203.379 230.656C203.145 230.76 202.938 230.915 202.773 231.111C202.389 231.65 202.21 232.308 202.267 232.967C202.262 233.303 202.303 233.639 202.388 233.964C202.458 234.241 202.583 234.501 202.754 234.73C202.919 234.94 203.13 235.11 203.371 235.226C203.637 235.347 203.928 235.408 204.22 235.402C204.478 235.407 204.736 235.376 204.986 235.31C205.176 235.251 205.357 235.167 205.524 235.059L205.816 236.191Z" fill="#121212"/>
<path d="M206.117 232.953C206.062 231.982 206.344 231.021 206.915 230.234C207.186 229.914 207.527 229.662 207.912 229.496C208.297 229.331 208.715 229.258 209.133 229.283C209.587 229.273 210.038 229.362 210.455 229.543C210.819 229.715 211.137 229.971 211.383 230.29C211.644 230.635 211.833 231.03 211.94 231.45C212.066 231.941 212.126 232.446 212.121 232.953C212.184 233.923 211.907 234.884 211.337 235.672C211.067 235.991 210.726 236.243 210.342 236.408C209.958 236.573 209.541 236.647 209.124 236.623C208.666 236.632 208.212 236.544 207.792 236.363C207.427 236.192 207.109 235.936 206.864 235.616C206.61 235.267 206.424 234.874 206.317 234.456C206.185 233.966 206.118 233.46 206.117 232.953ZM207.569 232.953C207.566 233.283 207.596 233.612 207.658 233.936C207.708 234.207 207.802 234.467 207.936 234.707C208.046 234.911 208.205 235.085 208.4 235.212C208.61 235.337 208.851 235.4 209.096 235.393C209.319 235.403 209.542 235.355 209.742 235.254C209.941 235.154 210.112 235.003 210.237 234.818C210.549 234.252 210.689 233.607 210.641 232.962C210.644 232.641 210.614 232.321 210.553 232.006C210.505 231.734 210.416 231.471 210.288 231.227C210.18 231.017 210.02 230.838 209.824 230.707C209.519 230.534 209.162 230.48 208.819 230.555C208.477 230.629 208.174 230.827 207.968 231.111C207.661 231.674 207.523 232.313 207.569 232.953Z" fill="#121212"/>
<path d="M214.974 228.814C214.972 229.011 214.936 229.205 214.867 229.39C214.799 229.586 214.712 229.776 214.608 229.956C214.501 230.142 214.384 230.322 214.255 230.494C214.131 230.664 214.006 230.819 213.879 230.958L213.587 231.19V231.218L213.986 231.139H215.058V231.751H212.71V231.375C212.803 231.283 212.9 231.176 213.012 231.051L213.35 230.656C213.462 230.517 213.573 230.373 213.68 230.225C213.785 230.075 213.883 229.92 213.972 229.761C214.053 229.622 214.12 229.476 214.171 229.325C214.221 229.197 214.248 229.062 214.25 228.926C214.255 228.788 214.207 228.653 214.116 228.55C214.062 228.497 213.997 228.456 213.926 228.43C213.854 228.404 213.778 228.395 213.703 228.401C213.577 228.402 213.452 228.427 213.336 228.476C213.222 228.522 213.117 228.588 213.025 228.671L212.733 228.156C212.882 228.036 213.048 227.94 213.225 227.868C213.433 227.794 213.653 227.758 213.874 227.761C214.024 227.76 214.173 227.782 214.315 227.826C214.442 227.867 214.558 227.934 214.659 228.021C214.758 228.11 214.837 228.219 214.891 228.341C214.952 228.491 214.981 228.652 214.974 228.814Z" fill="#121212"/>
<path d="M179.078 199.799C180.359 199.799 181.397 198.448 181.397 196.783C181.397 195.117 180.359 193.767 179.078 193.767C177.796 193.767 176.758 195.117 176.758 196.783C176.758 198.448 177.796 199.799 179.078 199.799Z" fill="#121212"/>
<path d="M182.79 179.384C182.79 179.384 180.47 187.272 172.583 184.024" stroke="#121212" stroke-width="0.927911" stroke-linecap="round" stroke-linejoin="round"/>
<path d="M145.674 174.745C145.674 174.745 145.21 179.384 147.993 179.384C150.777 179.384 149.849 174.745 149.849 174.745" stroke="#121212" stroke-width="0.927911" stroke-linecap="round" stroke-linejoin="round"/>
<path d="M153.097 168.714C153.097 168.714 152.169 173.817 154.953 173.817C157.736 173.817 156.808 168.714 156.808 168.714" stroke="#121212" stroke-width="0.927911" stroke-linecap="round" stroke-linejoin="round"/>
<path d="M135.002 206.758C135.002 206.758 134.074 212.325 136.858 212.325C139.642 212.325 139.178 206.758 139.178 206.758" stroke="#121212" stroke-width="0.927911" stroke-linecap="round" stroke-linejoin="round"/>
<path d="M186.018 169.697L191.604 165.93L201.348 177.065L185.327 193.767" stroke="#121212" stroke-width="0.927911" stroke-linecap="round" stroke-linejoin="round"/>
<path d="M192.997 167.322C192.997 167.322 206.452 143.66 209.699 141.34C212.947 139.02 223.618 141.34 225.474 142.268C227.33 143.196 226.866 150.155 225.938 154.331C225.437 156.595 218.979 165.002 218.979 165.002C218.979 165.002 227.33 165.002 227.33 169.177C227.33 173.353 223.618 174.281 215.731 174.745C207.844 175.209 200.42 176.016 200.42 176.016" stroke="#121212" stroke-width="0.927911" stroke-linecap="round" stroke-linejoin="round"/>
<path d="M214.339 142.732L207.844 153.403" stroke="#121212" stroke-width="0.927911" stroke-linecap="round" stroke-linejoin="round"/>
<path d="M220.37 143.196L211.787 157.347" stroke="#121212" stroke-width="0.927911" stroke-linecap="round" stroke-linejoin="round"/>
<path d="M223.618 148.299L215.73 161.29" stroke="#121212" stroke-width="0.927911" stroke-linecap="round" stroke-linejoin="round"/>
<path d="M289.036 150.155C289.036 150.155 276.973 161.754 284.86 188.664C292.747 215.573 254.239 207.686 255.167 244.338" stroke="#D6E5E3" stroke-width="0.927911" stroke-linecap="round" stroke-linejoin="round"/>
<path d="M314.553 144.124C314.553 144.124 309.449 169.177 340.998 182.168C372.547 195.159 352.133 210.933 379.043 217.893" stroke="#D6E5E3" stroke-width="0.927911" stroke-linecap="round" stroke-linejoin="round"/>
<path d="M330.792 120.926C330.792 120.926 343.783 140.876 371.156 131.133C398.53 121.39 398.993 152.939 424.975 142.732" stroke="#D6E5E3" stroke-width="0.927911" stroke-linecap="round" stroke-linejoin="round"/>
<path d="M335.896 85.6655C335.896 85.6655 371.156 91.2329 386.003 74.0666C400.849 56.9002 432.862 79.634 430.542 46.6932" stroke="#D6E5E3" stroke-width="0.927911" stroke-linecap="round" stroke-linejoin="round"/>
<path d="M307.13 73.6026C307.13 73.6026 321.049 55.0443 309.914 41.5896C309.284 40.8338 308.707 40.0354 308.188 39.2003" stroke="#D6E5E3" stroke-width="0.927911" stroke-linecap="round" stroke-linejoin="round"/>
<path d="M271.869 78.2421C271.869 78.2421 266.302 54.5804 243.104 44.3734C219.906 34.1664 214.339 17 214.339 17" stroke="#D6E5E3" stroke-width="0.927911" stroke-linecap="round" stroke-linejoin="round"/>
<path d="M255.167 99.5841C255.167 99.5841 234.753 92.1608 207.843 101.44C180.934 110.719 162.376 90.7689 147.993 116.286" stroke="#D6E5E3" stroke-width="0.927911" stroke-linecap="round" stroke-linejoin="round"/>
<path d="M264.446 123.71C264.446 123.71 240.784 127.421 231.041 144.588" stroke="#D6E5E3" stroke-width="0.927911" stroke-linecap="round" stroke-linejoin="round"/>
<path d="M222.489 465.055L230.706 463.567C231.796 463.369 232.919 463.613 233.829 464.244C234.739 464.874 235.362 465.841 235.559 466.931L235.835 468.456C235.897 468.795 235.891 469.143 235.818 469.48C235.745 469.817 235.606 470.136 235.41 470.42C235.213 470.703 234.963 470.945 234.673 471.132C234.383 471.318 234.059 471.446 233.72 471.508L223.977 473.273C222.888 473.47 221.764 473.227 220.854 472.596C219.944 471.965 219.322 470.998 219.124 469.909C218.927 468.819 219.17 467.695 219.801 466.785C220.432 465.875 221.399 465.253 222.489 465.055Z" fill="white"/>
<path d="M254.539 469.822L264.579 467.324C265.228 467.162 265.914 467.265 266.486 467.61C267.059 467.954 267.471 468.512 267.632 469.16L268.021 470.723C268.285 471.785 268.117 472.91 267.552 473.848C266.988 474.786 266.074 475.462 265.011 475.727L256.533 477.836C255.47 478.1 254.346 477.931 253.408 477.367C252.469 476.802 251.793 475.888 251.529 474.825C251.265 473.763 251.433 472.638 251.998 471.7C252.562 470.762 253.477 470.086 254.539 469.822Z" fill="white"/>
<path d="M274.349 458.627L279.247 457.194C280.251 456.9 281.331 457.017 282.248 457.519C283.166 458.021 283.846 458.867 284.14 459.871L284.612 461.483C284.78 462.059 284.713 462.679 284.425 463.206C284.136 463.733 283.651 464.123 283.074 464.292L276.564 466.197C275.561 466.49 274.481 466.373 273.564 465.871C272.646 465.369 271.966 464.523 271.672 463.519C271.378 462.516 271.495 461.436 271.997 460.519C272.5 459.601 273.346 458.921 274.349 458.627Z" fill="white"/>
<path d="M310.773 457.233L320.645 454.344C321.216 454.177 321.829 454.244 322.35 454.529C322.872 454.815 323.258 455.295 323.425 455.866L323.969 457.723C324.28 458.785 324.156 459.928 323.624 460.9C323.092 461.871 322.196 462.592 321.134 462.903L313.118 465.248C312.056 465.559 310.913 465.435 309.941 464.903C308.97 464.372 308.249 463.476 307.938 462.413C307.627 461.35 307.751 460.207 308.283 459.236C308.815 458.264 309.71 457.544 310.773 457.233Z" fill="white"/>
<path d="M319.985 445.597L325.838 444.141C326.554 443.963 327.312 444.076 327.945 444.457C328.577 444.838 329.033 445.454 329.211 446.17L329.571 447.616C329.653 447.949 329.601 448.301 329.424 448.595C329.247 448.889 328.96 449.101 328.627 449.184L321.329 451C320.612 451.178 319.854 451.064 319.222 450.684C318.589 450.303 318.133 449.687 317.955 448.97C317.777 448.254 317.891 447.496 318.271 446.863C318.652 446.231 319.268 445.775 319.985 445.597Z" fill="white"/>
<path d="M348.622 438.034L349.332 438.681C349.922 439.22 350.275 439.972 350.312 440.77C350.348 441.569 350.066 442.35 349.527 442.941L346.713 446.026C346.174 446.617 345.423 446.97 344.624 447.006C343.825 447.043 343.044 446.761 342.453 446.222C341.862 445.683 341.509 444.931 341.473 444.132C341.436 443.333 341.718 442.552 342.257 441.961L345.718 438.167C346.086 437.764 346.598 437.524 347.143 437.499C347.687 437.474 348.219 437.666 348.622 438.034Z" fill="white"/>
<path d="M347.082 424.664L347.959 425.247C348.29 425.467 348.52 425.809 348.599 426.199C348.677 426.588 348.598 426.993 348.378 427.324L345.484 431.679C345.109 432.242 344.526 432.634 343.862 432.768C343.199 432.901 342.509 432.766 341.946 432.391C341.382 432.017 340.991 431.434 340.857 430.77C340.723 430.107 340.859 429.417 341.233 428.854L343.545 425.376C343.919 424.813 344.502 424.421 345.166 424.287C345.829 424.154 346.519 424.289 347.082 424.664Z" fill="white"/>
<path d="M359.059 411.806L359.668 411.955C360.265 412.101 360.781 412.478 361.1 413.004C361.419 413.53 361.517 414.161 361.371 414.759L360.381 418.815C360.235 419.413 359.857 419.928 359.332 420.247C358.806 420.567 358.175 420.664 357.577 420.518C356.979 420.373 356.464 419.995 356.145 419.469C355.825 418.944 355.728 418.312 355.874 417.715L357.012 413.05C357.119 412.613 357.394 412.237 357.778 412.004C358.162 411.771 358.623 411.7 359.059 411.806Z" fill="white"/>
<path d="M339.737 405.63L344.496 406.792C345.333 406.997 346.054 407.525 346.501 408.261C346.949 408.997 347.085 409.881 346.881 410.718C346.677 411.554 346.148 412.276 345.412 412.723C344.676 413.17 343.792 413.307 342.956 413.102L339.35 412.222C338.513 412.018 337.792 411.489 337.344 410.753C336.897 410.017 336.761 409.134 336.965 408.297L337.247 407.143C337.311 406.88 337.426 406.633 337.586 406.414C337.746 406.196 337.947 406.011 338.178 405.871C338.41 405.731 338.666 405.637 338.934 405.596C339.201 405.554 339.474 405.566 339.737 405.63Z" fill="white"/>
</g>
<defs>
<clipPath id="clip0_6916_59551">
<rect width="576" height="500" rx="23" fill="white"/>
</clipPath>
</defs>
</svg>
